<?xml version="1.0" encoding="utf-8"?>
<!-- Generator: Adobe Illustrator 21.0.2, SVG Export Plug-In . SVG Version: 6.00 Build 0)  -->
<!DOCTYPE svg PUBLIC "-//W3C//DTD SVG 1.1//EN" "http://www.w3.org/Graphics/SVG/1.1/DTD/svg11.dtd">
<svg version="1.1" id="Layer_1" xmlns="http://www.w3.org/2000/svg" xmlns:xlink="http://www.w3.org/1999/xlink" x="0px" y="0px"
	 width="334.5px" height="334.5px" viewBox="0 0 334.5 334.5" enable-background="new 0 0 334.5 334.5" xml:space="preserve">
<image overflow="visible" width="2048" height="1366" xlink:href="../../../../Downloads/exports/Artboard@2x.jpg"  transform="matrix(1 0 0 1 -517.6157 676.8416)">
</image>
<path fill="#F8F8F8" d="M83.6,61.5c-13.8,0-24.9,11.2-24.9,24.9s11.2,24.9,24.9,24.9c13.8,0,24.9-11.2,24.9-24.9
	S97.4,61.5,83.6,61.5z M83.6,101.2c-8.2,0-14.8-6.6-14.8-14.8s6.6-14.8,14.8-14.8c8.2,0,14.8,6.6,14.8,14.8S91.8,101.2,83.6,101.2z"
	/>
<path fill="#F8F8F8" d="M266.3,102l-3.9,3.9c-0.9,0.9-2.3,0.9-3.2,0l-32-32c-0.9-0.9-0.9-2.3,0-3.2l3.9-3.9c0.9-0.9,2.3-0.9,3.2,0
	l32,32C267.2,99.7,267.2,101.2,266.3,102z"/>
<path fill="#F8F8F8" d="M231.1,106l-3.9-3.9c-0.9-0.9-0.9-2.3,0-3.2l32-32c0.9-0.9,2.3-0.9,3.2,0l3.9,3.9c0.9,0.9,0.9,2.3,0,3.2
	l-32,32C233.4,106.9,231.9,106.9,231.1,106z"/>
<path fill="#F8F8F8" d="M246.7,225.4c-13.8,0-24.9,11.2-24.9,24.9c0,13.8,11.2,24.9,24.9,24.9c13.8,0,24.9-11.2,24.9-24.9
	C271.6,236.6,260.5,225.4,246.7,225.4z M246.7,265.2c-8.2,0-14.8-6.6-14.8-14.8c0-8.2,6.6-14.8,14.8-14.8c8.2,0,14.8,6.6,14.8,14.8
	C261.5,258.5,254.9,265.2,246.7,265.2z"/>
<path fill="#F8F8F8" d="M103.2,266l-3.9,3.9c-0.9,0.9-2.3,0.9-3.2,0l-32-32c-0.9-0.9-0.9-2.3,0-3.2l3.9-3.9c0.9-0.9,2.3-0.9,3.2,0
	l32,32C104.1,263.7,104.1,265.1,103.2,266z"/>
<path fill="#F8F8F8" d="M68,269.9L64,266c-0.9-0.9-0.9-2.3,0-3.2l32-32c0.9-0.9,2.3-0.9,3.2,0l3.9,3.9c0.9,0.9,0.9,2.3,0,3.2l-32,32
	C70.3,270.8,68.8,270.8,68,269.9z"/>
</svg>
