<?xml version="1.0" encoding="UTF-8"?>
<svg width="1024px" height="683px" viewBox="0 0 1024 683" version="1.1" xmlns="http://www.w3.org/2000/svg" xmlns:xlink="http://www.w3.org/1999/xlink">
    <!-- Generator: Sketch 45.1 (43504) - http://www.bohemiancoding.com/sketch -->
    <title>Artboard Copy 3@1x</title>
    <desc>Created with Sketch.</desc>
    <defs>
        <rect id="path-1" x="0" y="0" width="112.299084" height="28.8049155" rx="14.4024578"></rect>
        <rect id="path-2" x="0" y="0" width="112.299084" height="28.8049155" rx="14.4024578"></rect>
        <rect id="path-3" x="0" y="0" width="112.299084" height="28.8049155" rx="14.4024578"></rect>
        <rect id="path-4" x="0" y="0" width="112.299084" height="28.8049155" rx="14.4024578"></rect>
    </defs>
    <g id="Page-1" stroke="none" stroke-width="1" fill="none" fill-rule="evenodd">
        <g id="Artboard-Copy-3">
            <g id="Group" transform="translate(104.000000, 51.000000)">
                <g id="Group-4-Copy" transform="translate(102.664407, 0.000000)">
                    <g id="Group-Copy-2" transform="translate(0.000000, 2.700461)" stroke="#D0D4D9" stroke-width="3.60000014">
                        <path d="M36.9231638,0.450076805 L36.9231638,108.46851" id="Line"></path>
                        <path d="M73.8463277,0.450076805 L73.8463277,108.46851" id="Line-Copy"></path>
                        <path d="M54.9344633,-18.453149 L54.9344633,90.4654378" id="Line" transform="translate(54.934463, 36.006144) rotate(90.000000) translate(-54.934463, -36.006144) "></path>
                        <path d="M54.9344633,18.453149 L54.9344633,127.371736" id="Line-Copy" transform="translate(54.934463, 72.912442) rotate(90.000000) translate(-54.934463, -72.912442) "></path>
                    </g>
                    <polygon id="X-Copy-7" fill="#424649" transform="translate(19.103868, 56.901593) rotate(-315.000000) translate(-19.103868, -56.901593) " points="16.7330001 70.4015938 16.7330001 59.200355 5.60386742 59.200355 5.60386742 54.5192402 16.7330001 54.5192402 16.7330001 43.4015927 21.4747358 43.4015927 21.4747358 54.5192402 32.6038685 54.5192402 32.6038685 59.200355 21.4747358 59.200355 21.4747358 70.4015938 18.2750305 70.4015938"></polygon>
                    <polygon id="X-Copy-8" fill="#2ECD72" transform="translate(55.126467, 19.095142) rotate(-315.000000) translate(-55.126467, -19.095142) " points="52.755599 32.5951422 52.755599 21.3939033 41.6264663 21.3939033 41.6264663 16.7127886 52.755599 16.7127886 52.755599 5.59514111 57.4973347 5.59514111 57.4973347 16.7127886 68.6264674 16.7127886 68.6264674 21.3939033 57.4973347 21.3939033 57.4973347 32.5951422 54.2976294 32.5951422"></polygon>
                    <polygon id="X-Copy-9" fill="#424649" transform="translate(94.751326, 19.095142) rotate(-315.000000) translate(-94.751326, -19.095142) " points="92.3804577 32.5951422 92.3804577 21.3939033 81.251325 21.3939033 81.251325 16.7127886 92.3804577 16.7127886 92.3804577 5.59514111 97.1221934 5.59514111 97.1221934 16.7127886 108.251326 16.7127886 108.251326 21.3939033 97.1221934 21.3939033 97.1221934 32.5951422 93.9224881 32.5951422"></polygon>
                    <polygon id="X-Copy-10" fill="#424649" transform="translate(19.103868, 94.708045) rotate(-315.000000) translate(-19.103868, -94.708045) " points="16.7330001 108.208045 16.7330001 97.0068066 5.60386742 97.0068066 5.60386742 92.3256918 16.7330001 92.3256918 16.7330001 81.2080443 21.4747358 81.2080443 21.4747358 92.3256918 32.6038685 92.3256918 32.6038685 97.0068066 21.4747358 97.0068066 21.4747358 108.208045 18.2750305 108.208045"></polygon>
                    <path d="M55.3847458,101.717358 C59.1180621,101.717358 62.1429191,98.6938827 62.1429191,94.9662058 C62.1429191,91.238529 59.1180621,88.2150538 55.3847458,88.2150538 C51.6514294,88.2150538 48.6265724,91.238529 48.6265724,94.9662058 C48.6265724,98.6938827 51.6514294,101.717358 55.3847458,101.717358 Z M55.3847458,106.218126 C49.167642,106.218126 44.1276836,101.18047 44.1276836,94.9662058 C44.1276836,88.7519419 49.167642,83.7142857 55.3847458,83.7142857 C61.6018495,83.7142857 66.6418079,88.7519419 66.6418079,94.9662058 C66.6418079,101.18047 61.6018495,106.218126 55.3847458,106.218126 Z" id="O-Copy-6" fill="#424649" fill-rule="nonzero"></path>
                    <path d="M19.3621469,26.1044547 C23.0954633,26.1044547 26.1203202,23.0809794 26.1203202,19.3533026 C26.1203202,15.6256258 23.0954633,12.6021505 19.3621469,12.6021505 C15.6288305,12.6021505 12.6039736,15.6256258 12.6039736,19.3533026 C12.6039736,23.0809794 15.6288305,26.1044547 19.3621469,26.1044547 Z M19.3621469,30.6052227 C13.1450431,30.6052227 8.10508475,25.5675665 8.10508475,19.3533026 C8.10508475,13.1390387 13.1450431,8.10138249 19.3621469,8.10138249 C25.5792506,8.10138249 30.619209,13.1390387 30.619209,19.3533026 C30.619209,25.5675665 25.5792506,30.6052227 19.3621469,30.6052227 Z" id="O-Copy-7" fill="#424649" fill-rule="nonzero"></path>
                    <path d="M95.0096045,101.717358 C98.7429209,101.717358 101.767778,98.6938827 101.767778,94.9662058 C101.767778,91.238529 98.7429209,88.2150538 95.0096045,88.2150538 C91.2762882,88.2150538 88.2514312,91.238529 88.2514312,94.9662058 C88.2514312,98.6938827 91.2762882,101.717358 95.0096045,101.717358 Z M95.0096045,106.218126 C88.7925008,106.218126 83.7525424,101.18047 83.7525424,94.9662058 C83.7525424,88.7519419 88.7925008,83.7142857 95.0096045,83.7142857 C101.226708,83.7142857 106.266667,88.7519419 106.266667,94.9662058 C106.266667,101.18047 101.226708,106.218126 95.0096045,106.218126 Z" id="O-Copy-8" fill="#424649" fill-rule="nonzero"></path>
                </g>
                <g id="Group-9-Copy" transform="translate(0.000000, 209.735791)">
                    <g id="Group-Copy-4" transform="translate(0.000000, 3.600614)" stroke="#D0D4D9" stroke-width="3.60000014">
                        <path d="M36.9231638,0.450076805 L36.9231638,108.46851" id="Line"></path>
                        <path d="M73.8463277,0.450076805 L73.8463277,108.46851" id="Line-Copy"></path>
                        <path d="M54.9344633,-18.453149 L54.9344633,90.4654378" id="Line" transform="translate(54.934463, 36.006144) rotate(90.000000) translate(-54.934463, -36.006144) "></path>
                        <path d="M54.9344633,18.453149 L54.9344633,127.371736" id="Line-Copy" transform="translate(54.934463, 72.912442) rotate(90.000000) translate(-54.934463, -72.912442) "></path>
                    </g>
                    <polygon id="X-Copy-15" fill="#424649" transform="translate(19.103868, 57.801747) rotate(-315.000000) translate(-19.103868, -57.801747) " points="16.7330001 71.3017474 16.7330001 60.1005086 5.60386742 60.1005086 5.60386742 55.4193938 16.7330001 55.4193938 16.7330001 44.3017463 21.4747358 44.3017463 21.4747358 55.4193938 32.6038685 55.4193938 32.6038685 60.1005086 21.4747358 60.1005086 21.4747358 71.3017474 18.2750305 71.3017474"></polygon>
                    <polygon id="X-Copy-16" fill="#424649" transform="translate(55.126467, 19.095142) rotate(-315.000000) translate(-55.126467, -19.095142) " points="52.755599 32.5951422 52.755599 21.3939033 41.6264663 21.3939033 41.6264663 16.7127886 52.755599 16.7127886 52.755599 5.59514111 57.4973347 5.59514111 57.4973347 16.7127886 68.6264674 16.7127886 68.6264674 21.3939033 57.4973347 21.3939033 57.4973347 32.5951422 54.2976294 32.5951422"></polygon>
                    <polygon id="X-Copy-17" fill="#424649" transform="translate(94.751326, 19.095142) rotate(-315.000000) translate(-94.751326, -19.095142) " points="92.3804577 32.5951422 92.3804577 21.3939033 81.251325 21.3939033 81.251325 16.7127886 92.3804577 16.7127886 92.3804577 5.59514111 97.1221934 5.59514111 97.1221934 16.7127886 108.251326 16.7127886 108.251326 21.3939033 97.1221934 21.3939033 97.1221934 32.5951422 93.9224881 32.5951422"></polygon>
                    <polygon id="X-Copy-18" fill="#424649" transform="translate(19.103868, 95.608198) rotate(-315.000000) translate(-19.103868, -95.608198) " points="16.7330001 109.108199 16.7330001 97.9069602 5.60386742 97.9069602 5.60386742 93.2258454 16.7330001 93.2258454 16.7330001 82.1081979 21.4747358 82.1081979 21.4747358 93.2258454 32.6038685 93.2258454 32.6038685 97.9069602 21.4747358 97.9069602 21.4747358 109.108199 18.2750305 109.108199"></polygon>
                    <path d="M55.3847458,102.617512 C59.1180621,102.617512 62.1429191,99.5940363 62.1429191,95.8663594 C62.1429191,92.1386826 59.1180621,89.1152074 55.3847458,89.1152074 C51.6514294,89.1152074 48.6265724,92.1386826 48.6265724,95.8663594 C48.6265724,99.5940363 51.6514294,102.617512 55.3847458,102.617512 Z M55.3847458,107.11828 C49.167642,107.11828 44.1276836,102.080623 44.1276836,95.8663594 C44.1276836,89.6520956 49.167642,84.6144393 55.3847458,84.6144393 C61.6018495,84.6144393 66.6418079,89.6520956 66.6418079,95.8663594 C66.6418079,102.080623 61.6018495,107.11828 55.3847458,107.11828 Z" id="O-Copy-12" fill="#424649" fill-rule="nonzero"></path>
                    <path d="M55.3847458,63.9109063 C59.1180621,63.9109063 62.1429191,60.887431 62.1429191,57.1597542 C62.1429191,53.4320774 59.1180621,50.4086022 55.3847458,50.4086022 C51.6514294,50.4086022 48.6265724,53.4320774 48.6265724,57.1597542 C48.6265724,60.887431 51.6514294,63.9109063 55.3847458,63.9109063 Z M55.3847458,68.4116743 C49.167642,68.4116743 44.1276836,63.3740181 44.1276836,57.1597542 C44.1276836,50.9454903 49.167642,45.9078341 55.3847458,45.9078341 C61.6018495,45.9078341 66.6418079,50.9454903 66.6418079,57.1597542 C66.6418079,63.3740181 61.6018495,68.4116743 55.3847458,68.4116743 Z" id="O-Copy-15" fill="#AB6CDF" fill-rule="nonzero"></path>
                    <path d="M19.3621469,27.0046083 C23.0954633,27.0046083 26.1203202,23.981133 26.1203202,20.2534562 C26.1203202,16.5257794 23.0954633,13.5023041 19.3621469,13.5023041 C15.6288305,13.5023041 12.6039736,16.5257794 12.6039736,20.2534562 C12.6039736,23.981133 15.6288305,27.0046083 19.3621469,27.0046083 Z M19.3621469,31.5053763 C13.1450431,31.5053763 8.10508475,26.4677201 8.10508475,20.2534562 C8.10508475,14.0391923 13.1450431,9.0015361 19.3621469,9.0015361 C25.5792506,9.0015361 30.619209,14.0391923 30.619209,20.2534562 C30.619209,26.4677201 25.5792506,31.5053763 19.3621469,31.5053763 Z" id="O-Copy-13" fill="#424649" fill-rule="nonzero"></path>
                    <path d="M95.0096045,102.617512 C98.7429209,102.617512 101.767778,99.5940363 101.767778,95.8663594 C101.767778,92.1386826 98.7429209,89.1152074 95.0096045,89.1152074 C91.2762882,89.1152074 88.2514312,92.1386826 88.2514312,95.8663594 C88.2514312,99.5940363 91.2762882,102.617512 95.0096045,102.617512 Z M95.0096045,107.11828 C88.7925008,107.11828 83.7525424,102.080623 83.7525424,95.8663594 C83.7525424,89.6520956 88.7925008,84.6144393 95.0096045,84.6144393 C101.226708,84.6144393 106.266667,89.6520956 106.266667,95.8663594 C106.266667,102.080623 101.226708,107.11828 95.0096045,107.11828 Z" id="O-Copy-14" fill="#424649" fill-rule="nonzero"></path>
                </g>
                <g id="Group-10-Copy-2" transform="translate(204.428249, 209.735791)">
                    <g id="Group-Copy-8" transform="translate(0.000000, 3.600614)" stroke="#D0D4D9" stroke-width="3.60000014">
                        <path d="M36.9231638,0.450076805 L36.9231638,108.46851" id="Line"></path>
                        <path d="M73.8463277,0.450076805 L73.8463277,108.46851" id="Line-Copy"></path>
                        <path d="M54.9344633,-18.453149 L54.9344633,90.4654378" id="Line" transform="translate(54.934463, 36.006144) rotate(90.000000) translate(-54.934463, -36.006144) "></path>
                        <path d="M54.9344633,18.453149 L54.9344633,127.371736" id="Line-Copy" transform="translate(54.934463, 72.912442) rotate(90.000000) translate(-54.934463, -72.912442) "></path>
                    </g>
                    <polygon id="X-Copy-19" fill="#424649" transform="translate(19.103868, 57.801747) rotate(-315.000000) translate(-19.103868, -57.801747) " points="16.7330001 71.3017474 16.7330001 60.1005086 5.60386742 60.1005086 5.60386742 55.4193938 16.7330001 55.4193938 16.7330001 44.3017463 21.4747358 44.3017463 21.4747358 55.4193938 32.6038685 55.4193938 32.6038685 60.1005086 21.4747358 60.1005086 21.4747358 71.3017474 18.2750305 71.3017474"></polygon>
                    <polygon id="X-Copy-20" fill="#424649" transform="translate(55.126467, 19.095142) rotate(-315.000000) translate(-55.126467, -19.095142) " points="52.755599 32.5951422 52.755599 21.3939033 41.6264663 21.3939033 41.6264663 16.7127886 52.755599 16.7127886 52.755599 5.59514111 57.4973347 5.59514111 57.4973347 16.7127886 68.6264674 16.7127886 68.6264674 21.3939033 57.4973347 21.3939033 57.4973347 32.5951422 54.2976294 32.5951422"></polygon>
                    <polygon id="X-Copy-21" fill="#424649" transform="translate(94.751326, 19.095142) rotate(-315.000000) translate(-94.751326, -19.095142) " points="92.3804577 32.5951422 92.3804577 21.3939033 81.251325 21.3939033 81.251325 16.7127886 92.3804577 16.7127886 92.3804577 5.59514111 97.1221934 5.59514111 97.1221934 16.7127886 108.251326 16.7127886 108.251326 21.3939033 97.1221934 21.3939033 97.1221934 32.5951422 93.9224881 32.5951422"></polygon>
                    <polygon id="X-Copy-22" fill="#424649" transform="translate(19.103868, 95.608198) rotate(-315.000000) translate(-19.103868, -95.608198) " points="16.7330001 109.108199 16.7330001 97.9069602 5.60386742 97.9069602 5.60386742 93.2258454 16.7330001 93.2258454 16.7330001 82.1081979 21.4747358 82.1081979 21.4747358 93.2258454 32.6038685 93.2258454 32.6038685 97.9069602 21.4747358 97.9069602 21.4747358 109.108199 18.2750305 109.108199"></polygon>
                    <path d="M55.3847458,102.617512 C59.1180621,102.617512 62.1429191,99.5940363 62.1429191,95.8663594 C62.1429191,92.1386826 59.1180621,89.1152074 55.3847458,89.1152074 C51.6514294,89.1152074 48.6265724,92.1386826 48.6265724,95.8663594 C48.6265724,99.5940363 51.6514294,102.617512 55.3847458,102.617512 Z M55.3847458,107.11828 C49.167642,107.11828 44.1276836,102.080623 44.1276836,95.8663594 C44.1276836,89.6520956 49.167642,84.6144393 55.3847458,84.6144393 C61.6018495,84.6144393 66.6418079,89.6520956 66.6418079,95.8663594 C66.6418079,102.080623 61.6018495,107.11828 55.3847458,107.11828 Z" id="O-Copy-16" fill="#424649" fill-rule="nonzero"></path>
                    <path d="M94.1090395,63.9109063 C97.8423559,63.9109063 100.867213,60.887431 100.867213,57.1597542 C100.867213,53.4320774 97.8423559,50.4086022 94.1090395,50.4086022 C90.3757232,50.4086022 87.3508662,53.4320774 87.3508662,57.1597542 C87.3508662,60.887431 90.3757232,63.9109063 94.1090395,63.9109063 Z M94.1090395,68.4116743 C87.8919358,68.4116743 82.8519774,63.3740181 82.8519774,57.1597542 C82.8519774,50.9454903 87.8919358,45.9078341 94.1090395,45.9078341 C100.326143,45.9078341 105.366102,50.9454903 105.366102,57.1597542 C105.366102,63.3740181 100.326143,68.4116743 94.1090395,68.4116743 Z" id="O-Copy-17" fill="#AB6CDF" fill-rule="nonzero"></path>
                    <path d="M19.3621469,27.0046083 C23.0954633,27.0046083 26.1203202,23.981133 26.1203202,20.2534562 C26.1203202,16.5257794 23.0954633,13.5023041 19.3621469,13.5023041 C15.6288305,13.5023041 12.6039736,16.5257794 12.6039736,20.2534562 C12.6039736,23.981133 15.6288305,27.0046083 19.3621469,27.0046083 Z M19.3621469,31.5053763 C13.1450431,31.5053763 8.10508475,26.4677201 8.10508475,20.2534562 C8.10508475,14.0391923 13.1450431,9.0015361 19.3621469,9.0015361 C25.5792506,9.0015361 30.619209,14.0391923 30.619209,20.2534562 C30.619209,26.4677201 25.5792506,31.5053763 19.3621469,31.5053763 Z" id="O-Copy-18" fill="#424649" fill-rule="nonzero"></path>
                    <path d="M95.0096045,102.617512 C98.7429209,102.617512 101.767778,99.5940363 101.767778,95.8663594 C101.767778,92.1386826 98.7429209,89.1152074 95.0096045,89.1152074 C91.2762882,89.1152074 88.2514312,92.1386826 88.2514312,95.8663594 C88.2514312,99.5940363 91.2762882,102.617512 95.0096045,102.617512 Z M95.0096045,107.11828 C88.7925008,107.11828 83.7525424,102.080623 83.7525424,95.8663594 C83.7525424,89.6520956 88.7925008,84.6144393 95.0096045,84.6144393 C101.226708,84.6144393 106.266667,89.6520956 106.266667,95.8663594 C106.266667,102.080623 101.226708,107.11828 95.0096045,107.11828 Z" id="O-Copy-19" fill="#424649" fill-rule="nonzero"></path>
                </g>
                <g id="Group-10-Copy-3" transform="translate(204.428249, 424.872504)">
                    <g id="Group-Copy-8" transform="translate(0.000000, 3.600614)" stroke="#D0D4D9" stroke-width="3.60000014">
                        <path d="M36.9231638,0.450076805 L36.9231638,108.46851" id="Line"></path>
                        <path d="M73.8463277,0.450076805 L73.8463277,108.46851" id="Line-Copy"></path>
                        <path d="M54.9344633,-18.453149 L54.9344633,90.4654378" id="Line" transform="translate(54.934463, 36.006144) rotate(90.000000) translate(-54.934463, -36.006144) "></path>
                        <path d="M54.9344633,18.453149 L54.9344633,127.371736" id="Line-Copy" transform="translate(54.934463, 72.912442) rotate(90.000000) translate(-54.934463, -72.912442) "></path>
                    </g>
                    <polygon id="X-Copy-19" fill="#424649" transform="translate(19.103868, 57.801747) rotate(-315.000000) translate(-19.103868, -57.801747) " points="16.7330001 71.3017474 16.7330001 60.1005086 5.60386742 60.1005086 5.60386742 55.4193938 16.7330001 55.4193938 16.7330001 44.3017463 21.4747358 44.3017463 21.4747358 55.4193938 32.6038685 55.4193938 32.6038685 60.1005086 21.4747358 60.1005086 21.4747358 71.3017474 18.2750305 71.3017474"></polygon>
                    <polygon id="X-Copy-20" fill="#424649" transform="translate(55.126467, 19.095142) rotate(-315.000000) translate(-55.126467, -19.095142) " points="52.755599 32.5951422 52.755599 21.3939033 41.6264663 21.3939033 41.6264663 16.7127886 52.755599 16.7127886 52.755599 5.59514111 57.4973347 5.59514111 57.4973347 16.7127886 68.6264674 16.7127886 68.6264674 21.3939033 57.4973347 21.3939033 57.4973347 32.5951422 54.2976294 32.5951422"></polygon>
                    <polygon id="X-Copy-36" fill="#2ECD72" transform="translate(55.126467, 57.801747) rotate(-315.000000) translate(-55.126467, -57.801747) " points="52.755599 71.3017474 52.755599 60.1005086 41.6264663 60.1005086 41.6264663 55.4193938 52.755599 55.4193938 52.755599 44.3017463 57.4973347 44.3017463 57.4973347 55.4193938 68.6264674 55.4193938 68.6264674 60.1005086 57.4973347 60.1005086 57.4973347 71.3017474 54.2976294 71.3017474"></polygon>
                    <polygon id="X-Copy-21" fill="#424649" transform="translate(94.751326, 19.095142) rotate(-315.000000) translate(-94.751326, -19.095142) " points="92.3804577 32.5951422 92.3804577 21.3939033 81.251325 21.3939033 81.251325 16.7127886 92.3804577 16.7127886 92.3804577 5.59514111 97.1221934 5.59514111 97.1221934 16.7127886 108.251326 16.7127886 108.251326 21.3939033 97.1221934 21.3939033 97.1221934 32.5951422 93.9224881 32.5951422"></polygon>
                    <polygon id="X-Copy-22" fill="#424649" transform="translate(19.103868, 95.608198) rotate(-315.000000) translate(-19.103868, -95.608198) " points="16.7330001 109.108199 16.7330001 97.9069602 5.60386742 97.9069602 5.60386742 93.2258454 16.7330001 93.2258454 16.7330001 82.1081979 21.4747358 82.1081979 21.4747358 93.2258454 32.6038685 93.2258454 32.6038685 97.9069602 21.4747358 97.9069602 21.4747358 109.108199 18.2750305 109.108199"></polygon>
                    <path d="M55.3847458,102.617512 C59.1180621,102.617512 62.1429191,99.5940363 62.1429191,95.8663594 C62.1429191,92.1386826 59.1180621,89.1152074 55.3847458,89.1152074 C51.6514294,89.1152074 48.6265724,92.1386826 48.6265724,95.8663594 C48.6265724,99.5940363 51.6514294,102.617512 55.3847458,102.617512 Z M55.3847458,107.11828 C49.167642,107.11828 44.1276836,102.080623 44.1276836,95.8663594 C44.1276836,89.6520956 49.167642,84.6144393 55.3847458,84.6144393 C61.6018495,84.6144393 66.6418079,89.6520956 66.6418079,95.8663594 C66.6418079,102.080623 61.6018495,107.11828 55.3847458,107.11828 Z" id="O-Copy-16" fill="#424649" fill-rule="nonzero"></path>
                    <path d="M94.1090395,63.9109063 C97.8423559,63.9109063 100.867213,60.887431 100.867213,57.1597542 C100.867213,53.4320774 97.8423559,50.4086022 94.1090395,50.4086022 C90.3757232,50.4086022 87.3508662,53.4320774 87.3508662,57.1597542 C87.3508662,60.887431 90.3757232,63.9109063 94.1090395,63.9109063 Z M94.1090395,68.4116743 C87.8919358,68.4116743 82.8519774,63.3740181 82.8519774,57.1597542 C82.8519774,50.9454903 87.8919358,45.9078341 94.1090395,45.9078341 C100.326143,45.9078341 105.366102,50.9454903 105.366102,57.1597542 C105.366102,63.3740181 100.326143,68.4116743 94.1090395,68.4116743 Z" id="O-Copy-17" fill="#424649" fill-rule="nonzero"></path>
                    <path d="M19.3621469,27.0046083 C23.0954633,27.0046083 26.1203202,23.981133 26.1203202,20.2534562 C26.1203202,16.5257794 23.0954633,13.5023041 19.3621469,13.5023041 C15.6288305,13.5023041 12.6039736,16.5257794 12.6039736,20.2534562 C12.6039736,23.981133 15.6288305,27.0046083 19.3621469,27.0046083 Z M19.3621469,31.5053763 C13.1450431,31.5053763 8.10508475,26.4677201 8.10508475,20.2534562 C8.10508475,14.0391923 13.1450431,9.0015361 19.3621469,9.0015361 C25.5792506,9.0015361 30.619209,14.0391923 30.619209,20.2534562 C30.619209,26.4677201 25.5792506,31.5053763 19.3621469,31.5053763 Z" id="O-Copy-18" fill="#424649" fill-rule="nonzero"></path>
                    <path d="M95.0096045,102.617512 C98.7429209,102.617512 101.767778,99.5940363 101.767778,95.8663594 C101.767778,92.1386826 98.7429209,89.1152074 95.0096045,89.1152074 C91.2762882,89.1152074 88.2514312,92.1386826 88.2514312,95.8663594 C88.2514312,99.5940363 91.2762882,102.617512 95.0096045,102.617512 Z M95.0096045,107.11828 C88.7925008,107.11828 83.7525424,102.080623 83.7525424,95.8663594 C83.7525424,89.6520956 88.7925008,84.6144393 95.0096045,84.6144393 C101.226708,84.6144393 106.266667,89.6520956 106.266667,95.8663594 C106.266667,102.080623 101.226708,107.11828 95.0096045,107.11828 Z" id="O-Copy-19" fill="#424649" fill-rule="nonzero"></path>
                </g>
                <g id="Group-5-Copy" transform="translate(566.455367, 0.000000)">
                    <g id="Group-Copy-3" transform="translate(0.000000, 2.700461)" stroke="#D0D4D9" stroke-width="3.60000014">
                        <path d="M36.9231638,0.450076805 L36.9231638,108.46851" id="Line"></path>
                        <path d="M73.8463277,0.450076805 L73.8463277,108.46851" id="Line-Copy"></path>
                        <path d="M54.9344633,-18.453149 L54.9344633,90.4654378" id="Line" transform="translate(54.934463, 36.006144) rotate(90.000000) translate(-54.934463, -36.006144) "></path>
                        <path d="M54.9344633,18.453149 L54.9344633,127.371736" id="Line-Copy" transform="translate(54.934463, 72.912442) rotate(90.000000) translate(-54.934463, -72.912442) "></path>
                    </g>
                    <polygon id="X-Copy-14" fill="#424649" transform="translate(19.103868, 56.901593) rotate(-315.000000) translate(-19.103868, -56.901593) " points="16.7330001 70.4015938 16.7330001 59.200355 5.60386742 59.200355 5.60386742 54.5192402 16.7330001 54.5192402 16.7330001 43.4015927 21.4747358 43.4015927 21.4747358 54.5192402 32.6038685 54.5192402 32.6038685 59.200355 21.4747358 59.200355 21.4747358 70.4015938 18.2750305 70.4015938"></polygon>
                    <polygon id="X-Copy-13" fill="#2ECD72" transform="translate(94.751326, 56.901593) rotate(-315.000000) translate(-94.751326, -56.901593) " points="92.3804577 70.4015938 92.3804577 59.200355 81.251325 59.200355 81.251325 54.5192402 92.3804577 54.5192402 92.3804577 43.4015927 97.1221934 43.4015927 97.1221934 54.5192402 108.251326 54.5192402 108.251326 59.200355 97.1221934 59.200355 97.1221934 70.4015938 93.9224881 70.4015938"></polygon>
                    <polygon id="X-Copy-12" fill="#424649" transform="translate(94.751326, 19.095142) rotate(-315.000000) translate(-94.751326, -19.095142) " points="92.3804577 32.5951422 92.3804577 21.3939033 81.251325 21.3939033 81.251325 16.7127886 92.3804577 16.7127886 92.3804577 5.59514111 97.1221934 5.59514111 97.1221934 16.7127886 108.251326 16.7127886 108.251326 21.3939033 97.1221934 21.3939033 97.1221934 32.5951422 93.9224881 32.5951422"></polygon>
                    <polygon id="X-Copy-11" fill="#424649" transform="translate(19.103868, 94.708045) rotate(-315.000000) translate(-19.103868, -94.708045) " points="16.7330001 108.208045 16.7330001 97.0068066 5.60386742 97.0068066 5.60386742 92.3256918 16.7330001 92.3256918 16.7330001 81.2080443 21.4747358 81.2080443 21.4747358 92.3256918 32.6038685 92.3256918 32.6038685 97.0068066 21.4747358 97.0068066 21.4747358 108.208045 18.2750305 108.208045"></polygon>
                    <path d="M55.3847458,101.717358 C59.1180621,101.717358 62.1429191,98.6938827 62.1429191,94.9662058 C62.1429191,91.238529 59.1180621,88.2150538 55.3847458,88.2150538 C51.6514294,88.2150538 48.6265724,91.238529 48.6265724,94.9662058 C48.6265724,98.6938827 51.6514294,101.717358 55.3847458,101.717358 Z M55.3847458,106.218126 C49.167642,106.218126 44.1276836,101.18047 44.1276836,94.9662058 C44.1276836,88.7519419 49.167642,83.7142857 55.3847458,83.7142857 C61.6018495,83.7142857 66.6418079,88.7519419 66.6418079,94.9662058 C66.6418079,101.18047 61.6018495,106.218126 55.3847458,106.218126 Z" id="O-Copy-11" fill="#424649" fill-rule="nonzero"></path>
                    <path d="M19.3621469,26.1044547 C23.0954633,26.1044547 26.1203202,23.0809794 26.1203202,19.3533026 C26.1203202,15.6256258 23.0954633,12.6021505 19.3621469,12.6021505 C15.6288305,12.6021505 12.6039736,15.6256258 12.6039736,19.3533026 C12.6039736,23.0809794 15.6288305,26.1044547 19.3621469,26.1044547 Z M19.3621469,30.6052227 C13.1450431,30.6052227 8.10508475,25.5675665 8.10508475,19.3533026 C8.10508475,13.1390387 13.1450431,8.10138249 19.3621469,8.10138249 C25.5792506,8.10138249 30.619209,13.1390387 30.619209,19.3533026 C30.619209,25.5675665 25.5792506,30.6052227 19.3621469,30.6052227 Z" id="O-Copy-10" fill="#424649" fill-rule="nonzero"></path>
                    <path d="M95.0096045,101.717358 C98.7429209,101.717358 101.767778,98.6938827 101.767778,94.9662058 C101.767778,91.238529 98.7429209,88.2150538 95.0096045,88.2150538 C91.2762882,88.2150538 88.2514312,91.238529 88.2514312,94.9662058 C88.2514312,98.6938827 91.2762882,101.717358 95.0096045,101.717358 Z M95.0096045,106.218126 C88.7925008,106.218126 83.7525424,101.18047 83.7525424,94.9662058 C83.7525424,88.7519419 88.7925008,83.7142857 95.0096045,83.7142857 C101.226708,83.7142857 106.266667,88.7519419 106.266667,94.9662058 C106.266667,101.18047 101.226708,106.218126 95.0096045,106.218126 Z" id="O-Copy-9" fill="#424649" fill-rule="nonzero"></path>
                </g>
                <g id="Group-11-Copy" transform="translate(450.282486, 212.436252)">
                    <g id="Group-Copy-9" transform="translate(0.000000, 2.700461)" stroke="#D0D4D9" stroke-width="3.60000014">
                        <path d="M36.9231638,0.450076805 L36.9231638,108.46851" id="Line"></path>
                        <path d="M73.8463277,0.450076805 L73.8463277,108.46851" id="Line-Copy"></path>
                        <path d="M54.9344633,-18.453149 L54.9344633,90.4654378" id="Line" transform="translate(54.934463, 36.006144) rotate(90.000000) translate(-54.934463, -36.006144) "></path>
                        <path d="M54.9344633,18.453149 L54.9344633,127.371736" id="Line-Copy" transform="translate(54.934463, 72.912442) rotate(90.000000) translate(-54.934463, -72.912442) "></path>
                    </g>
                    <polygon id="X-Copy-23" fill="#424649" transform="translate(19.103868, 56.901593) rotate(-315.000000) translate(-19.103868, -56.901593) " points="16.7330001 70.4015938 16.7330001 59.200355 5.60386742 59.200355 5.60386742 54.5192402 16.7330001 54.5192402 16.7330001 43.4015927 21.4747358 43.4015927 21.4747358 54.5192402 32.6038685 54.5192402 32.6038685 59.200355 21.4747358 59.200355 21.4747358 70.4015938 18.2750305 70.4015938"></polygon>
                    <polygon id="X-Copy-24" fill="#424649" transform="translate(94.751326, 56.901593) rotate(-315.000000) translate(-94.751326, -56.901593) " points="92.3804577 70.4015938 92.3804577 59.200355 81.251325 59.200355 81.251325 54.5192402 92.3804577 54.5192402 92.3804577 43.4015927 97.1221934 43.4015927 97.1221934 54.5192402 108.251326 54.5192402 108.251326 59.200355 97.1221934 59.200355 97.1221934 70.4015938 93.9224881 70.4015938"></polygon>
                    <polygon id="X-Copy-25" fill="#424649" transform="translate(94.751326, 19.095142) rotate(-315.000000) translate(-94.751326, -19.095142) " points="92.3804577 32.5951422 92.3804577 21.3939033 81.251325 21.3939033 81.251325 16.7127886 92.3804577 16.7127886 92.3804577 5.59514111 97.1221934 5.59514111 97.1221934 16.7127886 108.251326 16.7127886 108.251326 21.3939033 97.1221934 21.3939033 97.1221934 32.5951422 93.9224881 32.5951422"></polygon>
                    <polygon id="X-Copy-26" fill="#424649" transform="translate(19.103868, 94.708045) rotate(-315.000000) translate(-19.103868, -94.708045) " points="16.7330001 108.208045 16.7330001 97.0068066 5.60386742 97.0068066 5.60386742 92.3256918 16.7330001 92.3256918 16.7330001 81.2080443 21.4747358 81.2080443 21.4747358 92.3256918 32.6038685 92.3256918 32.6038685 97.0068066 21.4747358 97.0068066 21.4747358 108.208045 18.2750305 108.208045"></polygon>
                    <path d="M55.3847458,101.717358 C59.1180621,101.717358 62.1429191,98.6938827 62.1429191,94.9662058 C62.1429191,91.238529 59.1180621,88.2150538 55.3847458,88.2150538 C51.6514294,88.2150538 48.6265724,91.238529 48.6265724,94.9662058 C48.6265724,98.6938827 51.6514294,101.717358 55.3847458,101.717358 Z M55.3847458,106.218126 C49.167642,106.218126 44.1276836,101.18047 44.1276836,94.9662058 C44.1276836,88.7519419 49.167642,83.7142857 55.3847458,83.7142857 C61.6018495,83.7142857 66.6418079,88.7519419 66.6418079,94.9662058 C66.6418079,101.18047 61.6018495,106.218126 55.3847458,106.218126 Z" id="O-Copy-20" fill="#424649" fill-rule="nonzero"></path>
                    <path d="M55.3847458,63.9109063 C59.1180621,63.9109063 62.1429191,60.887431 62.1429191,57.1597542 C62.1429191,53.4320774 59.1180621,50.4086022 55.3847458,50.4086022 C51.6514294,50.4086022 48.6265724,53.4320774 48.6265724,57.1597542 C48.6265724,60.887431 51.6514294,63.9109063 55.3847458,63.9109063 Z M55.3847458,68.4116743 C49.167642,68.4116743 44.1276836,63.3740181 44.1276836,57.1597542 C44.1276836,50.9454903 49.167642,45.9078341 55.3847458,45.9078341 C61.6018495,45.9078341 66.6418079,50.9454903 66.6418079,57.1597542 C66.6418079,63.3740181 61.6018495,68.4116743 55.3847458,68.4116743 Z" id="O-Copy-26" fill="#AB6CDF" fill-rule="nonzero"></path>
                    <path d="M19.3621469,26.1044547 C23.0954633,26.1044547 26.1203202,23.0809794 26.1203202,19.3533026 C26.1203202,15.6256258 23.0954633,12.6021505 19.3621469,12.6021505 C15.6288305,12.6021505 12.6039736,15.6256258 12.6039736,19.3533026 C12.6039736,23.0809794 15.6288305,26.1044547 19.3621469,26.1044547 Z M19.3621469,30.6052227 C13.1450431,30.6052227 8.10508475,25.5675665 8.10508475,19.3533026 C8.10508475,13.1390387 13.1450431,8.10138249 19.3621469,8.10138249 C25.5792506,8.10138249 30.619209,13.1390387 30.619209,19.3533026 C30.619209,25.5675665 25.5792506,30.6052227 19.3621469,30.6052227 Z" id="O-Copy-21" fill="#424649" fill-rule="nonzero"></path>
                    <path d="M95.0096045,101.717358 C98.7429209,101.717358 101.767778,98.6938827 101.767778,94.9662058 C101.767778,91.238529 98.7429209,88.2150538 95.0096045,88.2150538 C91.2762882,88.2150538 88.2514312,91.238529 88.2514312,94.9662058 C88.2514312,98.6938827 91.2762882,101.717358 95.0096045,101.717358 Z M95.0096045,106.218126 C88.7925008,106.218126 83.7525424,101.18047 83.7525424,94.9662058 C83.7525424,88.7519419 88.7925008,83.7142857 95.0096045,83.7142857 C101.226708,83.7142857 106.266667,88.7519419 106.266667,94.9662058 C106.266667,101.18047 101.226708,106.218126 95.0096045,106.218126 Z" id="O-Copy-22" fill="#424649" fill-rule="nonzero"></path>
                </g>
                <g id="Group-12-Copy" transform="translate(681.727684, 212.436252)">
                    <g id="Group-Copy-10" transform="translate(0.000000, 2.700461)" stroke="#D0D4D9" stroke-width="3.60000014">
                        <path d="M36.9231638,0.450076805 L36.9231638,108.46851" id="Line"></path>
                        <path d="M73.8463277,0.450076805 L73.8463277,108.46851" id="Line-Copy"></path>
                        <path d="M54.9344633,-18.453149 L54.9344633,90.4654378" id="Line" transform="translate(54.934463, 36.006144) rotate(90.000000) translate(-54.934463, -36.006144) "></path>
                        <path d="M54.9344633,18.453149 L54.9344633,127.371736" id="Line-Copy" transform="translate(54.934463, 72.912442) rotate(90.000000) translate(-54.934463, -72.912442) "></path>
                    </g>
                    <polygon id="X-Copy-27" fill="#424649" transform="translate(19.103868, 56.901593) rotate(-315.000000) translate(-19.103868, -56.901593) " points="16.7330001 70.4015938 16.7330001 59.200355 5.60386742 59.200355 5.60386742 54.5192402 16.7330001 54.5192402 16.7330001 43.4015927 21.4747358 43.4015927 21.4747358 54.5192402 32.6038685 54.5192402 32.6038685 59.200355 21.4747358 59.200355 21.4747358 70.4015938 18.2750305 70.4015938"></polygon>
                    <polygon id="X-Copy-28" fill="#424649" transform="translate(94.751326, 56.901593) rotate(-315.000000) translate(-94.751326, -56.901593) " points="92.3804577 70.4015938 92.3804577 59.200355 81.251325 59.200355 81.251325 54.5192402 92.3804577 54.5192402 92.3804577 43.4015927 97.1221934 43.4015927 97.1221934 54.5192402 108.251326 54.5192402 108.251326 59.200355 97.1221934 59.200355 97.1221934 70.4015938 93.9224881 70.4015938"></polygon>
                    <polygon id="X-Copy-29" fill="#424649" transform="translate(95.651891, 19.095142) rotate(-315.000000) translate(-95.651891, -19.095142) " points="93.2810227 32.5951422 93.2810227 21.3939033 82.15189 21.3939033 82.15189 16.7127886 93.2810227 16.7127886 93.2810227 5.59514111 98.0227584 5.59514111 98.0227584 16.7127886 109.151891 16.7127886 109.151891 21.3939033 98.0227584 21.3939033 98.0227584 32.5951422 94.8230531 32.5951422"></polygon>
                    <polygon id="X-Copy-30" fill="#424649" transform="translate(19.103868, 94.708045) rotate(-315.000000) translate(-19.103868, -94.708045) " points="16.7330001 108.208045 16.7330001 97.0068066 5.60386742 97.0068066 5.60386742 92.3256918 16.7330001 92.3256918 16.7330001 81.2080443 21.4747358 81.2080443 21.4747358 92.3256918 32.6038685 92.3256918 32.6038685 97.0068066 21.4747358 97.0068066 21.4747358 108.208045 18.2750305 108.208045"></polygon>
                    <path d="M55.3847458,101.717358 C59.1180621,101.717358 62.1429191,98.6938827 62.1429191,94.9662058 C62.1429191,91.238529 59.1180621,88.2150538 55.3847458,88.2150538 C51.6514294,88.2150538 48.6265724,91.238529 48.6265724,94.9662058 C48.6265724,98.6938827 51.6514294,101.717358 55.3847458,101.717358 Z M55.3847458,106.218126 C49.167642,106.218126 44.1276836,101.18047 44.1276836,94.9662058 C44.1276836,88.7519419 49.167642,83.7142857 55.3847458,83.7142857 C61.6018495,83.7142857 66.6418079,88.7519419 66.6418079,94.9662058 C66.6418079,101.18047 61.6018495,106.218126 55.3847458,106.218126 Z" id="O-Copy-23" fill="#424649" fill-rule="nonzero"></path>
                    <path d="M55.3847458,26.1044547 C59.1180621,26.1044547 62.1429191,23.0809794 62.1429191,19.3533026 C62.1429191,15.6256258 59.1180621,12.6021505 55.3847458,12.6021505 C51.6514294,12.6021505 48.6265724,15.6256258 48.6265724,19.3533026 C48.6265724,23.0809794 51.6514294,26.1044547 55.3847458,26.1044547 Z M55.3847458,30.6052227 C49.167642,30.6052227 44.1276836,25.5675665 44.1276836,19.3533026 C44.1276836,13.1390387 49.167642,8.10138249 55.3847458,8.10138249 C61.6018495,8.10138249 66.6418079,13.1390387 66.6418079,19.3533026 C66.6418079,25.5675665 61.6018495,30.6052227 55.3847458,30.6052227 Z" id="O-Copy-27" fill="#AB6CDF" fill-rule="nonzero"></path>
                    <path d="M19.3621469,26.1044547 C23.0954633,26.1044547 26.1203202,23.0809794 26.1203202,19.3533026 C26.1203202,15.6256258 23.0954633,12.6021505 19.3621469,12.6021505 C15.6288305,12.6021505 12.6039736,15.6256258 12.6039736,19.3533026 C12.6039736,23.0809794 15.6288305,26.1044547 19.3621469,26.1044547 Z M19.3621469,30.6052227 C13.1450431,30.6052227 8.10508475,25.5675665 8.10508475,19.3533026 C8.10508475,13.1390387 13.1450431,8.10138249 19.3621469,8.10138249 C25.5792506,8.10138249 30.619209,13.1390387 30.619209,19.3533026 C30.619209,25.5675665 25.5792506,30.6052227 19.3621469,30.6052227 Z" id="O-Copy-24" fill="#424649" fill-rule="nonzero"></path>
                    <path d="M95.0096045,101.717358 C98.7429209,101.717358 101.767778,98.6938827 101.767778,94.9662058 C101.767778,91.238529 98.7429209,88.2150538 95.0096045,88.2150538 C91.2762882,88.2150538 88.2514312,91.238529 88.2514312,94.9662058 C88.2514312,98.6938827 91.2762882,101.717358 95.0096045,101.717358 Z M95.0096045,106.218126 C88.7925008,106.218126 83.7525424,101.18047 83.7525424,94.9662058 C83.7525424,88.7519419 88.7925008,83.7142857 95.0096045,83.7142857 C101.226708,83.7142857 106.266667,88.7519419 106.266667,94.9662058 C106.266667,101.18047 101.226708,106.218126 95.0096045,106.218126 Z" id="O-Copy-25" fill="#424649" fill-rule="nonzero"></path>
                </g>
                <g id="Group-13-Copy" transform="translate(681.727684, 424.872504)">
                    <g id="Group-Copy-11" transform="translate(0.000000, 2.700461)" stroke="#D0D4D9" stroke-width="3.60000014">
                        <path d="M36.9231638,0.450076805 L36.9231638,108.46851" id="Line"></path>
                        <path d="M73.8463277,0.450076805 L73.8463277,108.46851" id="Line-Copy"></path>
                        <path d="M54.9344633,-18.453149 L54.9344633,90.4654378" id="Line" transform="translate(54.934463, 36.006144) rotate(90.000000) translate(-54.934463, -36.006144) "></path>
                        <path d="M54.9344633,18.453149 L54.9344633,127.371736" id="Line-Copy" transform="translate(54.934463, 72.912442) rotate(90.000000) translate(-54.934463, -72.912442) "></path>
                    </g>
                    <polygon id="X-Copy-31" fill="#424649" transform="translate(19.103868, 56.901593) rotate(-315.000000) translate(-19.103868, -56.901593) " points="16.7330001 70.4015938 16.7330001 59.200355 5.60386742 59.200355 5.60386742 54.5192402 16.7330001 54.5192402 16.7330001 43.4015927 21.4747358 43.4015927 21.4747358 54.5192402 32.6038685 54.5192402 32.6038685 59.200355 21.4747358 59.200355 21.4747358 70.4015938 18.2750305 70.4015938"></polygon>
                    <polygon id="X-Copy-35" fill="#2ECD72" transform="translate(55.126467, 56.901593) rotate(-315.000000) translate(-55.126467, -56.901593) " points="52.755599 70.4015938 52.755599 59.200355 41.6264663 59.200355 41.6264663 54.5192402 52.755599 54.5192402 52.755599 43.4015927 57.4973347 43.4015927 57.4973347 54.5192402 68.6264674 54.5192402 68.6264674 59.200355 57.4973347 59.200355 57.4973347 70.4015938 54.2976294 70.4015938"></polygon>
                    <polygon id="X-Copy-32" fill="#424649" transform="translate(94.751326, 56.901593) rotate(-315.000000) translate(-94.751326, -56.901593) " points="92.3804577 70.4015938 92.3804577 59.200355 81.251325 59.200355 81.251325 54.5192402 92.3804577 54.5192402 92.3804577 43.4015927 97.1221934 43.4015927 97.1221934 54.5192402 108.251326 54.5192402 108.251326 59.200355 97.1221934 59.200355 97.1221934 70.4015938 93.9224881 70.4015938"></polygon>
                    <polygon id="X-Copy-33" fill="#424649" transform="translate(95.651891, 19.095142) rotate(-315.000000) translate(-95.651891, -19.095142) " points="93.2810227 32.5951422 93.2810227 21.3939033 82.15189 21.3939033 82.15189 16.7127886 93.2810227 16.7127886 93.2810227 5.59514111 98.0227584 5.59514111 98.0227584 16.7127886 109.151891 16.7127886 109.151891 21.3939033 98.0227584 21.3939033 98.0227584 32.5951422 94.8230531 32.5951422"></polygon>
                    <polygon id="X-Copy-34" fill="#424649" transform="translate(19.103868, 94.708045) rotate(-315.000000) translate(-19.103868, -94.708045) " points="16.7330001 108.208045 16.7330001 97.0068066 5.60386742 97.0068066 5.60386742 92.3256918 16.7330001 92.3256918 16.7330001 81.2080443 21.4747358 81.2080443 21.4747358 92.3256918 32.6038685 92.3256918 32.6038685 97.0068066 21.4747358 97.0068066 21.4747358 108.208045 18.2750305 108.208045"></polygon>
                    <path d="M55.3847458,101.717358 C59.1180621,101.717358 62.1429191,98.6938827 62.1429191,94.9662058 C62.1429191,91.238529 59.1180621,88.2150538 55.3847458,88.2150538 C51.6514294,88.2150538 48.6265724,91.238529 48.6265724,94.9662058 C48.6265724,98.6938827 51.6514294,101.717358 55.3847458,101.717358 Z M55.3847458,106.218126 C49.167642,106.218126 44.1276836,101.18047 44.1276836,94.9662058 C44.1276836,88.7519419 49.167642,83.7142857 55.3847458,83.7142857 C61.6018495,83.7142857 66.6418079,88.7519419 66.6418079,94.9662058 C66.6418079,101.18047 61.6018495,106.218126 55.3847458,106.218126 Z" id="O-Copy-28" fill="#424649" fill-rule="nonzero"></path>
                    <path d="M55.3847458,26.1044547 C59.1180621,26.1044547 62.1429191,23.0809794 62.1429191,19.3533026 C62.1429191,15.6256258 59.1180621,12.6021505 55.3847458,12.6021505 C51.6514294,12.6021505 48.6265724,15.6256258 48.6265724,19.3533026 C48.6265724,23.0809794 51.6514294,26.1044547 55.3847458,26.1044547 Z M55.3847458,30.6052227 C49.167642,30.6052227 44.1276836,25.5675665 44.1276836,19.3533026 C44.1276836,13.1390387 49.167642,8.10138249 55.3847458,8.10138249 C61.6018495,8.10138249 66.6418079,13.1390387 66.6418079,19.3533026 C66.6418079,25.5675665 61.6018495,30.6052227 55.3847458,30.6052227 Z" id="O-Copy-29" fill="#424649" fill-rule="nonzero"></path>
                    <path d="M19.3621469,26.1044547 C23.0954633,26.1044547 26.1203202,23.0809794 26.1203202,19.3533026 C26.1203202,15.6256258 23.0954633,12.6021505 19.3621469,12.6021505 C15.6288305,12.6021505 12.6039736,15.6256258 12.6039736,19.3533026 C12.6039736,23.0809794 15.6288305,26.1044547 19.3621469,26.1044547 Z M19.3621469,30.6052227 C13.1450431,30.6052227 8.10508475,25.5675665 8.10508475,19.3533026 C8.10508475,13.1390387 13.1450431,8.10138249 19.3621469,8.10138249 C25.5792506,8.10138249 30.619209,13.1390387 30.619209,19.3533026 C30.619209,25.5675665 25.5792506,30.6052227 19.3621469,30.6052227 Z" id="O-Copy-30" fill="#424649" fill-rule="nonzero"></path>
                    <path d="M95.0096045,101.717358 C98.7429209,101.717358 101.767778,98.6938827 101.767778,94.9662058 C101.767778,91.238529 98.7429209,88.2150538 95.0096045,88.2150538 C91.2762882,88.2150538 88.2514312,91.238529 88.2514312,94.9662058 C88.2514312,98.6938827 91.2762882,101.717358 95.0096045,101.717358 Z M95.0096045,106.218126 C88.7925008,106.218126 83.7525424,101.18047 83.7525424,94.9662058 C83.7525424,88.7519419 88.7925008,83.7142857 95.0096045,83.7142857 C101.226708,83.7142857 106.266667,88.7519419 106.266667,94.9662058 C106.266667,101.18047 101.226708,106.218126 95.0096045,106.218126 Z" id="O-Copy-31" fill="#424649" fill-rule="nonzero"></path>
                </g>
                <g id="Group-14-Copy-6" transform="translate(0.303369, 342.958525)">
                    <g id="Rectangle-31-Copy-2" stroke-linecap="square">
                        <use fill="#AB6CDF" fill-rule="evenodd" xlink:href="#path-1"></use>
                        <rect stroke="#FFFFFF" stroke-width="2.88000011" x="-1.44000006" y="-1.44000006" width="115.179084" height="31.6849156" rx="15.8424578"></rect>
                    </g>
                    <path d="M11.7349001,14.4566021 C11.7349001,13.3957968 11.9127384,12.4379663 12.2684201,11.583082 C12.6241019,10.7281977 13.117057,10.001245 13.7473002,9.40220194 C14.3775434,8.80315892 15.1263359,8.34140352 15.9937003,8.01692188 C16.8610647,7.69244025 17.8064153,7.53020186 18.8297804,7.53020186 C19.8656256,7.53020186 20.8203361,7.69244025 21.6939405,8.01692188 C22.5675449,8.34140352 23.3225774,8.80315892 23.9590606,9.40220194 C24.5955438,10.001245 25.0916189,10.7281977 25.4473007,11.583082 C25.8029825,12.4379663 25.9808207,13.3957968 25.9808207,14.4566021 C25.9808207,15.4924474 25.8029825,16.4377979 25.4473007,17.2926823 C25.0916189,18.1475666 24.5955438,18.8838792 23.9590606,19.5016423 C23.3225774,20.1194055 22.5675449,20.5998807 21.6939405,20.9430824 C20.8203361,21.2862841 19.8656256,21.4578824 18.8297804,21.4578824 C17.8064153,21.4578824 16.8610647,21.2862841 15.9937003,20.9430824 C15.1263359,20.5998807 14.3775434,20.1194055 13.7473002,19.5016423 C13.117057,18.8838792 12.6241019,18.1475666 12.2684201,17.2926823 C11.9127384,16.4377979 11.7349001,15.4924474 11.7349001,14.4566021 Z M14.2995402,14.4566021 C14.2995402,15.1679657 14.4087391,15.8200392 14.6271402,16.4128422 C14.8455413,17.0056452 15.1575382,17.5204401 15.5631403,17.9572423 C15.9687423,18.3940445 16.4492175,18.7341211 17.0045803,18.9774823 C17.5599431,19.2208435 18.174577,19.3425223 18.8485004,19.3425223 C19.5224238,19.3425223 20.1401777,19.2208435 20.7017805,18.9774823 C21.2633833,18.7341211 21.7469785,18.3940445 22.1525805,17.9572423 C22.5581826,17.5204401 22.8701795,17.0056452 23.0885806,16.4128422 C23.3069817,15.8200392 23.4161806,15.1679657 23.4161806,14.4566021 C23.4161806,13.7701987 23.3069817,13.133725 23.0885806,12.5471621 C22.8701795,11.9605991 22.5613026,11.4489242 22.1619405,11.012122 C21.7625785,10.5753198 21.2821033,10.2321232 20.7205005,9.98252196 C20.1588977,9.7329207 19.5349039,9.60812195 18.8485004,9.60812195 C18.162097,9.60812195 17.5412231,9.7329207 16.9858603,9.98252196 C16.4304975,10.2321232 15.9531423,10.5753198 15.5537803,11.012122 C15.1544183,11.4489242 14.8455413,11.9605991 14.6271402,12.5471621 C14.4087391,13.133725 14.2995402,13.7701987 14.2995402,14.4566021 Z M30.9833809,12.135322 L33.416981,12.135322 L35.2889811,18.5750023 L35.3264211,18.5750023 L37.2545812,12.135322 L39.6507412,12.135322 L41.5976213,18.5750023 L41.6350613,18.5750023 L43.5445014,12.135322 L45.8845015,12.135322 L42.7769814,21.1209224 L40.4931413,21.1209224 L38.4526612,14.8310022 L38.4152212,14.8310022 L36.3934611,21.1209224 L34.109621,21.1209224 L30.9833809,12.135322 Z M47.0566616,12.135322 L49.3030616,12.135322 L49.3030616,21.1209224 L47.0566616,21.1209224 L47.0566616,12.135322 Z M46.7384215,9.08396192 C46.7384215,8.7220401 46.8725802,8.40692324 47.1409016,8.13860189 C47.4092229,7.87028053 47.7492995,7.73612187 48.1611416,7.73612187 C48.5729837,7.73612187 48.9193002,7.8640406 49.2001016,8.11988189 C49.4809031,8.37572318 49.6213017,8.69707997 49.6213017,9.08396192 C49.6213017,9.47084387 49.4809031,9.79220067 49.2001016,10.048042 C48.9193002,10.3038833 48.5729837,10.431802 48.1611416,10.431802 C47.7492995,10.431802 47.4092229,10.2976433 47.1409016,10.029322 C46.8725802,9.76100061 46.7384215,9.44588375 46.7384215,9.08396192 Z M51.7481817,12.135322 L53.8822618,12.135322 L53.8822618,13.5767621 L53.9197018,13.5767621 C54.1193828,13.1274798 54.4656994,12.7312438 54.9586619,12.3880421 C55.4516244,12.0448403 56.0350585,11.873242 56.7089819,11.873242 C57.2955449,11.873242 57.7978599,11.976201 58.215942,12.182122 C58.6340241,12.3880431 58.9772207,12.6594804 59.245542,12.9964421 C59.5138634,13.3334038 59.7104214,13.7202799 59.8352221,14.1570821 C59.9600227,14.5938843 60.0224221,15.0431599 60.0224221,15.5049222 L60.0224221,21.1209224 L57.776022,21.1209224 L57.776022,16.1414022 C57.776022,15.8793209 57.7573022,15.6047636 57.719862,15.3177222 C57.6824218,15.0306807 57.6013026,14.7717233 57.476502,14.5408421 C57.3517013,14.309961 57.1801031,14.1196429 56.961702,13.9698821 C56.7433008,13.8201214 56.4531437,13.7452421 56.0912219,13.7452421 C55.7293001,13.7452421 55.4173032,13.8170014 55.1552219,13.9605221 C54.8931406,14.1040428 54.6778627,14.288121 54.5093819,14.5127621 C54.340901,14.7374033 54.2129823,14.9963607 54.1256218,15.2896422 C54.0382614,15.5829236 53.9945818,15.8793207 53.9945818,16.1788422 L53.9945818,21.1209224 L51.7481817,21.1209224 L51.7481817,12.135322 Z M67.2785824,14.5314821 C67.0789014,14.2694008 66.8043441,14.0416431 66.4549023,13.8482021 C66.1054606,13.6547611 65.7248244,13.5580421 65.3129823,13.5580421 C64.9510605,13.5580421 64.6203438,13.6329214 64.3208222,13.7826821 C64.0213007,13.9324429 63.8715422,14.1820404 63.8715422,14.5314821 C63.8715422,14.8809239 64.0369006,15.1274014 64.3676223,15.2709222 C64.6983439,15.4144429 65.1819391,15.5610814 65.8184223,15.7108422 C66.155384,15.7857226 66.4954606,15.8855616 66.8386623,16.0103622 C67.1818641,16.1351628 67.493861,16.3005212 67.7746624,16.5064422 C68.0554638,16.7123633 68.2832215,16.9682007 68.4579424,17.2739622 C68.6326633,17.5797238 68.7200224,17.9510001 68.7200224,18.3878023 C68.7200224,18.9369251 68.6170634,19.4018004 68.4111424,19.7824423 C68.2052214,20.1630843 67.9306641,20.4719612 67.5874624,20.7090824 C67.2442606,20.9462036 66.8449046,21.1178019 66.3893823,21.2238824 C65.93386,21.3299629 65.4627447,21.3830024 64.9760223,21.3830024 C64.2771388,21.3830024 63.5969855,21.2550837 62.9355422,20.9992424 C62.2740989,20.7434011 61.7249843,20.3783647 61.2881821,19.9041224 L62.7670622,18.5188423 C63.0166634,18.8433239 63.3411402,19.1116413 63.7405022,19.3238023 C64.1398642,19.5359634 64.5828998,19.6420423 65.0696223,19.6420423 C65.2318631,19.6420423 65.3972214,19.6233225 65.5657023,19.5858823 C65.7341831,19.5484422 65.8901816,19.4891627 66.0337023,19.4080423 C66.177223,19.3269219 66.2926619,19.217723 66.3800223,19.0804423 C66.4673828,18.9431616 66.5110623,18.7746833 66.5110623,18.5750023 C66.5110623,18.2006004 66.339464,17.9322831 65.9962623,17.7700423 C65.6530606,17.6078015 65.1382657,17.4455631 64.4518623,17.2833223 C64.1149006,17.2084419 63.7873038,17.1117228 63.4690622,16.9931622 C63.1508206,16.8746016 62.8669034,16.7186032 62.6173022,16.5251622 C62.3677009,16.3317212 62.1680229,16.0914836 62.0182622,15.8044422 C61.8685014,15.5174007 61.7936221,15.1617243 61.7936221,14.7374021 C61.7936221,14.2381996 61.8965811,13.8076439 62.1025022,13.4457221 C62.3084232,13.0838003 62.5798605,12.7874032 62.9168222,12.5565221 C63.2537839,12.3256409 63.6344201,12.1540426 64.0587422,12.041722 C64.4830644,11.9294015 64.91986,11.873242 65.3691423,11.873242 C66.0181056,11.873242 66.6514593,11.9855609 67.2692224,12.210202 C67.8869855,12.4348432 68.3768206,12.7780398 68.7387424,13.2398021 L67.2785824,14.5314821 Z M78.6646628,17.4705223 L74.1718627,17.4705223 L74.1718627,15.5610822 L78.6646628,15.5610822 L78.6646628,17.4705223 Z M84.3483431,10.600282 L81.727543,12.7530821 L80.4171429,11.199322 L84.5542631,7.86716188 L86.5947432,7.86716188 L86.5947432,21.1209224 L84.3483431,21.1209224 L84.3483431,10.600282 Z M100.646264,14.4940421 C100.646264,15.5673275 100.543305,16.5345179 100.337384,17.3956423 C100.131463,18.2567666 99.8319457,18.9868393 99.4388237,19.5858823 C99.0457017,20.1849254 98.5589865,20.6466808 97.9786636,20.9711624 C97.3983407,21.295644 96.7337873,21.4578824 95.9849835,21.4578824 C95.2361798,21.4578824 94.5685064,21.295644 93.9819435,20.9711624 C93.3953805,20.6466808 92.9024254,20.1849254 92.5030634,19.5858823 C92.1037014,18.9868393 91.8010644,18.2567666 91.5951434,17.3956423 C91.3892223,16.5345179 91.2862633,15.5673275 91.2862633,14.4940421 C91.2862633,13.4207567 91.3892223,12.4535664 91.5951434,11.592442 C91.8010644,10.7313177 92.1037014,10.001245 92.5030634,9.40220194 C92.9024254,8.80315892 93.3953805,8.34140352 93.9819435,8.01692188 C94.5685064,7.69244025 95.2361798,7.53020186 95.9849835,7.53020186 C96.7337873,7.53020186 97.3983407,7.69244025 97.9786636,8.01692188 C98.5589865,8.34140352 99.0457017,8.80315892 99.4388237,9.40220194 C99.8319457,10.001245 100.131463,10.7313177 100.337384,11.592442 C100.543305,12.4535664 100.646264,13.4207567 100.646264,14.4940421 Z M98.3437036,14.4940421 C98.3437036,14.0322798 98.3156239,13.508125 98.2594636,12.9215621 C98.2033033,12.3349991 98.0909845,11.7796447 97.9225036,11.255482 C97.7540228,10.7313194 97.5137852,10.2914038 97.2017836,9.93572196 C96.889782,9.58004017 96.484186,9.40220194 95.9849835,9.40220194 C95.473301,9.40220194 95.0614651,9.58004017 94.7494635,9.93572196 C94.4374619,10.2914038 94.1972243,10.7313194 94.0287435,11.255482 C93.8602626,11.7796447 93.7448238,12.3349991 93.6824234,12.9215621 C93.6200231,13.508125 93.5888234,14.0322798 93.5888234,14.4940421 C93.5888234,14.9558045 93.6200231,15.4799592 93.6824234,16.0665222 C93.7448238,16.6530852 93.8602626,17.2021997 94.0287435,17.7138823 C94.1972243,18.2255648 94.4374619,18.6592405 94.7494635,19.0149223 C95.0614651,19.3706041 95.473301,19.5484423 95.9849835,19.5484423 C96.484186,19.5484423 96.889782,19.3706041 97.2017836,19.0149223 C97.5137852,18.6592405 97.7540228,18.2255648 97.9225036,17.7138823 C98.0909845,17.2021997 98.2033033,16.6530852 98.2594636,16.0665222 C98.3156239,15.4799592 98.3437036,14.9558045 98.3437036,14.4940421 Z" id="O-wins--10" fill="#FFFFFF"></path>
                </g>
                <g id="Group-14-Copy-6" transform="translate(205.328814, 557.195084)">
                    <g id="Rectangle-31-Copy-2" stroke-linecap="square">
                        <use fill="#2ECD72" fill-rule="evenodd" xlink:href="#path-2"></use>
                        <rect stroke="#FFFFFF" stroke-width="2.88000011" x="-1.44000006" y="-1.44000006" width="115.179084" height="31.6849156" rx="15.8424578"></rect>
                    </g>
                    <path d="M14.2340202,14.0447621 L10.1156201,7.86716188 L12.9610602,7.86716188 L15.6941803,12.3974021 L18.3898604,7.86716188 L21.1042605,7.86716188 L17.0607403,14.1009221 L21.8156205,21.1209224 L18.8391404,21.1209224 L15.6005803,15.9167622 L12.4930602,21.1209224 L9.64762004,21.1209224 L14.2340202,14.0447621 Z M25.8447407,12.135322 L28.2783408,12.135322 L30.1503409,18.5750023 L30.1877809,18.5750023 L32.1159409,12.135322 L34.512101,12.135322 L36.4589811,18.5750023 L36.4964211,18.5750023 L38.4058612,12.135322 L40.7458613,12.135322 L37.6383412,21.1209224 L35.3545011,21.1209224 L33.314021,14.8310022 L33.276581,14.8310022 L31.2548209,21.1209224 L28.9709808,21.1209224 L25.8447407,12.135322 Z M41.9180213,12.135322 L44.1644214,12.135322 L44.1644214,21.1209224 L41.9180213,21.1209224 L41.9180213,12.135322 Z M41.5997813,9.08396192 C41.5997813,8.7220401 41.73394,8.40692324 42.0022613,8.13860189 C42.2705827,7.87028053 42.6106593,7.73612187 43.0225014,7.73612187 C43.4343435,7.73612187 43.78066,7.8640406 44.0614614,8.11988189 C44.3422628,8.37572318 44.4826614,8.69707997 44.4826614,9.08396192 C44.4826614,9.47084387 44.3422628,9.79220067 44.0614614,10.048042 C43.78066,10.3038833 43.4343435,10.431802 43.0225014,10.431802 C42.6106593,10.431802 42.2705827,10.2976433 42.0022613,10.029322 C41.73394,9.76100061 41.5997813,9.44588375 41.5997813,9.08396192 Z M46.6095415,12.135322 L48.7436216,12.135322 L48.7436216,13.5767621 L48.7810616,13.5767621 C48.9807426,13.1274798 49.3270592,12.7312438 49.8200217,12.3880421 C50.3129842,12.0448403 50.8964183,11.873242 51.5703417,11.873242 C52.1569047,11.873242 52.6592197,11.976201 53.0773018,12.182122 C53.4953839,12.3880431 53.8385805,12.6594804 54.1069018,12.9964421 C54.3752232,13.3334038 54.5717812,13.7202799 54.6965819,14.1570821 C54.8213825,14.5938843 54.8837819,15.0431599 54.8837819,15.5049222 L54.8837819,21.1209224 L52.6373818,21.1209224 L52.6373818,16.1414022 C52.6373818,15.8793209 52.618662,15.6047636 52.5812218,15.3177222 C52.5437816,15.0306807 52.4626624,14.7717233 52.3378618,14.5408421 C52.2130611,14.309961 52.0414628,14.1196429 51.8230617,13.9698821 C51.6046606,13.8201214 51.3145035,13.7452421 50.9525817,13.7452421 C50.5906599,13.7452421 50.278663,13.8170014 50.0165817,13.9605221 C49.7545004,14.1040428 49.5392225,14.288121 49.3707416,14.5127621 C49.2022608,14.7374033 49.0743421,14.9963607 48.9869816,15.2896422 C48.8996212,15.5829236 48.8559416,15.8793207 48.8559416,16.1788422 L48.8559416,21.1209224 L46.6095415,21.1209224 L46.6095415,12.135322 Z M62.1399422,14.5314821 C61.9402612,14.2694008 61.6657039,14.0416431 61.3162621,13.8482021 C60.9668204,13.6547611 60.5861842,13.5580421 60.1743421,13.5580421 C59.8124203,13.5580421 59.4817036,13.6329214 59.182182,13.7826821 C58.8826605,13.9324429 58.732902,14.1820404 58.732902,14.5314821 C58.732902,14.8809239 58.8982604,15.1274014 59.228982,15.2709222 C59.5597037,15.4144429 60.0432989,15.5610814 60.6797821,15.7108422 C61.0167438,15.7857226 61.3568204,15.8855616 61.7000221,16.0103622 C62.0432239,16.1351628 62.3552208,16.3005212 62.6360222,16.5064422 C62.9168236,16.7123633 63.1445813,16.9682007 63.3193022,17.2739622 C63.4940231,17.5797238 63.5813822,17.9510001 63.5813822,18.3878023 C63.5813822,18.9369251 63.4784232,19.4018004 63.2725022,19.7824423 C63.0665812,20.1630843 62.7920239,20.4719612 62.4488222,20.7090824 C62.1056204,20.9462036 61.7062644,21.1178019 61.2507421,21.2238824 C60.7952198,21.3299629 60.3241045,21.3830024 59.8373821,21.3830024 C59.1384985,21.3830024 58.4583453,21.2550837 57.796902,20.9992424 C57.1354587,20.7434011 56.5863441,20.3783647 56.1495419,19.9041224 L57.628422,18.5188423 C57.8780232,18.8433239 58.2025,19.1116413 58.601862,19.3238023 C59.001224,19.5359634 59.4442596,19.6420423 59.9309821,19.6420423 C60.0932229,19.6420423 60.2585812,19.6233225 60.4270621,19.5858823 C60.5955429,19.5484422 60.7515414,19.4891627 60.8950621,19.4080423 C61.0385828,19.3269219 61.1540217,19.217723 61.2413821,19.0804423 C61.3287426,18.9431616 61.3724221,18.7746833 61.3724221,18.5750023 C61.3724221,18.2006004 61.2008238,17.9322831 60.8576221,17.7700423 C60.5144204,17.6078015 59.9996255,17.4455631 59.3132221,17.2833223 C58.9762604,17.2084419 58.6486636,17.1117228 58.330422,16.9931622 C58.0121804,16.8746016 57.7282632,16.7186032 57.478662,16.5251622 C57.2290607,16.3317212 57.0293827,16.0914836 56.879622,15.8044422 C56.7298612,15.5174007 56.6549819,15.1617243 56.6549819,14.7374021 C56.6549819,14.2381996 56.7579409,13.8076439 56.963862,13.4457221 C57.169783,13.0838003 57.4412203,12.7874032 57.778182,12.5565221 C58.1151437,12.3256409 58.4957799,12.1540426 58.920102,12.041722 C59.3444242,11.9294015 59.7812198,11.873242 60.2305021,11.873242 C60.8794654,11.873242 61.512819,11.9855609 62.1305822,12.210202 C62.7483453,12.4348432 63.2381804,12.7780398 63.6001022,13.2398021 L62.1399422,14.5314821 Z M73.5634626,14.4940421 L73.5634626,10.375642 L75.4729027,10.375642 L75.4729027,14.4940421 L79.5913029,14.4940421 L79.5913029,16.4034822 L75.4729027,16.4034822 L75.4729027,20.5218824 L73.5634626,20.5218824 L73.5634626,16.4034822 L69.4450625,16.4034822 L69.4450625,14.4940421 L73.5634626,14.4940421 Z M85.6868231,10.600282 L83.066023,12.7530821 L81.755623,11.199322 L85.8927431,7.86716188 L87.9332232,7.86716188 L87.9332232,21.1209224 L85.6868231,21.1209224 L85.6868231,10.600282 Z M101.984744,14.4940421 C101.984744,15.5673275 101.881785,16.5345179 101.675864,17.3956423 C101.469943,18.2567666 101.170426,18.9868393 100.777304,19.5858823 C100.384182,20.1849254 99.8974666,20.6466808 99.3171437,20.9711624 C98.7368207,21.295644 98.0722674,21.4578824 97.3234636,21.4578824 C96.5746598,21.4578824 95.9069865,21.295644 95.3204235,20.9711624 C94.7338606,20.6466808 94.2409055,20.1849254 93.8415434,19.5858823 C93.4421814,18.9868393 93.1395444,18.2567666 92.9336234,17.3956423 C92.7277024,16.5345179 92.6247434,15.5673275 92.6247434,14.4940421 C92.6247434,13.4207567 92.7277024,12.4535664 92.9336234,11.592442 C93.1395444,10.7313177 93.4421814,10.001245 93.8415434,9.40220194 C94.2409055,8.80315892 94.7338606,8.34140352 95.3204235,8.01692188 C95.9069865,7.69244025 96.5746598,7.53020186 97.3234636,7.53020186 C98.0722674,7.53020186 98.7368207,7.69244025 99.3171437,8.01692188 C99.8974666,8.34140352 100.384182,8.80315892 100.777304,9.40220194 C101.170426,10.001245 101.469943,10.7313177 101.675864,11.592442 C101.881785,12.4535664 101.984744,13.4207567 101.984744,14.4940421 Z M99.6821837,14.4940421 C99.6821837,14.0322798 99.654104,13.508125 99.5979437,12.9215621 C99.5417834,12.3349991 99.4294645,11.7796447 99.2609837,11.255482 C99.0925028,10.7313194 98.8522652,10.2914038 98.5402636,9.93572196 C98.2282621,9.58004017 97.8226661,9.40220194 97.3234636,9.40220194 C96.811781,9.40220194 96.3999451,9.58004017 96.0879435,9.93572196 C95.775942,10.2914038 95.5357044,10.7313194 95.3672235,11.255482 C95.1987427,11.7796447 95.0833038,12.3349991 95.0209035,12.9215621 C94.9585032,13.508125 94.9273035,14.0322798 94.9273035,14.4940421 C94.9273035,14.9558045 94.9585032,15.4799592 95.0209035,16.0665222 C95.0833038,16.6530852 95.1987427,17.2021997 95.3672235,17.7138823 C95.5357044,18.2255648 95.775942,18.6592405 96.0879435,19.0149223 C96.3999451,19.3706041 96.811781,19.5484423 97.3234636,19.5484423 C97.8226661,19.5484423 98.2282621,19.3706041 98.5402636,19.0149223 C98.8522652,18.6592405 99.0925028,18.2255648 99.2609837,17.7138823 C99.4294645,17.2021997 99.5417834,16.6530852 99.5979437,16.0665222 C99.654104,15.4799592 99.6821837,14.9558045 99.6821837,14.4940421 Z" id="X-wins-+10" fill="#FFFFFF"></path>
                </g>
                <g id="Group-14-Copy-6" transform="translate(451.183051, 342.958525)">
                    <g id="Rectangle-31-Copy-2" stroke-linecap="square">
                        <use fill="#AB6CDF" fill-rule="evenodd" xlink:href="#path-3"></use>
                        <rect stroke="#FFFFFF" stroke-width="2.88000011" x="-1.44000006" y="-1.44000006" width="115.179084" height="31.6849156" rx="15.8424578"></rect>
                    </g>
                    <path d="M11.7349001,14.4566021 C11.7349001,13.3957968 11.9127384,12.4379663 12.2684201,11.583082 C12.6241019,10.7281977 13.117057,10.001245 13.7473002,9.40220194 C14.3775434,8.80315892 15.1263359,8.34140352 15.9937003,8.01692188 C16.8610647,7.69244025 17.8064153,7.53020186 18.8297804,7.53020186 C19.8656256,7.53020186 20.8203361,7.69244025 21.6939405,8.01692188 C22.5675449,8.34140352 23.3225774,8.80315892 23.9590606,9.40220194 C24.5955438,10.001245 25.0916189,10.7281977 25.4473007,11.583082 C25.8029825,12.4379663 25.9808207,13.3957968 25.9808207,14.4566021 C25.9808207,15.4924474 25.8029825,16.4377979 25.4473007,17.2926823 C25.0916189,18.1475666 24.5955438,18.8838792 23.9590606,19.5016423 C23.3225774,20.1194055 22.5675449,20.5998807 21.6939405,20.9430824 C20.8203361,21.2862841 19.8656256,21.4578824 18.8297804,21.4578824 C17.8064153,21.4578824 16.8610647,21.2862841 15.9937003,20.9430824 C15.1263359,20.5998807 14.3775434,20.1194055 13.7473002,19.5016423 C13.117057,18.8838792 12.6241019,18.1475666 12.2684201,17.2926823 C11.9127384,16.4377979 11.7349001,15.4924474 11.7349001,14.4566021 Z M14.2995402,14.4566021 C14.2995402,15.1679657 14.4087391,15.8200392 14.6271402,16.4128422 C14.8455413,17.0056452 15.1575382,17.5204401 15.5631403,17.9572423 C15.9687423,18.3940445 16.4492175,18.7341211 17.0045803,18.9774823 C17.5599431,19.2208435 18.174577,19.3425223 18.8485004,19.3425223 C19.5224238,19.3425223 20.1401777,19.2208435 20.7017805,18.9774823 C21.2633833,18.7341211 21.7469785,18.3940445 22.1525805,17.9572423 C22.5581826,17.5204401 22.8701795,17.0056452 23.0885806,16.4128422 C23.3069817,15.8200392 23.4161806,15.1679657 23.4161806,14.4566021 C23.4161806,13.7701987 23.3069817,13.133725 23.0885806,12.5471621 C22.8701795,11.9605991 22.5613026,11.4489242 22.1619405,11.012122 C21.7625785,10.5753198 21.2821033,10.2321232 20.7205005,9.98252196 C20.1588977,9.7329207 19.5349039,9.60812195 18.8485004,9.60812195 C18.162097,9.60812195 17.5412231,9.7329207 16.9858603,9.98252196 C16.4304975,10.2321232 15.9531423,10.5753198 15.5537803,11.012122 C15.1544183,11.4489242 14.8455413,11.9605991 14.6271402,12.5471621 C14.4087391,13.133725 14.2995402,13.7701987 14.2995402,14.4566021 Z M30.9833809,12.135322 L33.416981,12.135322 L35.2889811,18.5750023 L35.3264211,18.5750023 L37.2545812,12.135322 L39.6507412,12.135322 L41.5976213,18.5750023 L41.6350613,18.5750023 L43.5445014,12.135322 L45.8845015,12.135322 L42.7769814,21.1209224 L40.4931413,21.1209224 L38.4526612,14.8310022 L38.4152212,14.8310022 L36.3934611,21.1209224 L34.109621,21.1209224 L30.9833809,12.135322 Z M47.0566616,12.135322 L49.3030616,12.135322 L49.3030616,21.1209224 L47.0566616,21.1209224 L47.0566616,12.135322 Z M46.7384215,9.08396192 C46.7384215,8.7220401 46.8725802,8.40692324 47.1409016,8.13860189 C47.4092229,7.87028053 47.7492995,7.73612187 48.1611416,7.73612187 C48.5729837,7.73612187 48.9193002,7.8640406 49.2001016,8.11988189 C49.4809031,8.37572318 49.6213017,8.69707997 49.6213017,9.08396192 C49.6213017,9.47084387 49.4809031,9.79220067 49.2001016,10.048042 C48.9193002,10.3038833 48.5729837,10.431802 48.1611416,10.431802 C47.7492995,10.431802 47.4092229,10.2976433 47.1409016,10.029322 C46.8725802,9.76100061 46.7384215,9.44588375 46.7384215,9.08396192 Z M51.7481817,12.135322 L53.8822618,12.135322 L53.8822618,13.5767621 L53.9197018,13.5767621 C54.1193828,13.1274798 54.4656994,12.7312438 54.9586619,12.3880421 C55.4516244,12.0448403 56.0350585,11.873242 56.7089819,11.873242 C57.2955449,11.873242 57.7978599,11.976201 58.215942,12.182122 C58.6340241,12.3880431 58.9772207,12.6594804 59.245542,12.9964421 C59.5138634,13.3334038 59.7104214,13.7202799 59.8352221,14.1570821 C59.9600227,14.5938843 60.0224221,15.0431599 60.0224221,15.5049222 L60.0224221,21.1209224 L57.776022,21.1209224 L57.776022,16.1414022 C57.776022,15.8793209 57.7573022,15.6047636 57.719862,15.3177222 C57.6824218,15.0306807 57.6013026,14.7717233 57.476502,14.5408421 C57.3517013,14.309961 57.1801031,14.1196429 56.961702,13.9698821 C56.7433008,13.8201214 56.4531437,13.7452421 56.0912219,13.7452421 C55.7293001,13.7452421 55.4173032,13.8170014 55.1552219,13.9605221 C54.8931406,14.1040428 54.6778627,14.288121 54.5093819,14.5127621 C54.340901,14.7374033 54.2129823,14.9963607 54.1256218,15.2896422 C54.0382614,15.5829236 53.9945818,15.8793207 53.9945818,16.1788422 L53.9945818,21.1209224 L51.7481817,21.1209224 L51.7481817,12.135322 Z M67.2785824,14.5314821 C67.0789014,14.2694008 66.8043441,14.0416431 66.4549023,13.8482021 C66.1054606,13.6547611 65.7248244,13.5580421 65.3129823,13.5580421 C64.9510605,13.5580421 64.6203438,13.6329214 64.3208222,13.7826821 C64.0213007,13.9324429 63.8715422,14.1820404 63.8715422,14.5314821 C63.8715422,14.8809239 64.0369006,15.1274014 64.3676223,15.2709222 C64.6983439,15.4144429 65.1819391,15.5610814 65.8184223,15.7108422 C66.155384,15.7857226 66.4954606,15.8855616 66.8386623,16.0103622 C67.1818641,16.1351628 67.493861,16.3005212 67.7746624,16.5064422 C68.0554638,16.7123633 68.2832215,16.9682007 68.4579424,17.2739622 C68.6326633,17.5797238 68.7200224,17.9510001 68.7200224,18.3878023 C68.7200224,18.9369251 68.6170634,19.4018004 68.4111424,19.7824423 C68.2052214,20.1630843 67.9306641,20.4719612 67.5874624,20.7090824 C67.2442606,20.9462036 66.8449046,21.1178019 66.3893823,21.2238824 C65.93386,21.3299629 65.4627447,21.3830024 64.9760223,21.3830024 C64.2771388,21.3830024 63.5969855,21.2550837 62.9355422,20.9992424 C62.2740989,20.7434011 61.7249843,20.3783647 61.2881821,19.9041224 L62.7670622,18.5188423 C63.0166634,18.8433239 63.3411402,19.1116413 63.7405022,19.3238023 C64.1398642,19.5359634 64.5828998,19.6420423 65.0696223,19.6420423 C65.2318631,19.6420423 65.3972214,19.6233225 65.5657023,19.5858823 C65.7341831,19.5484422 65.8901816,19.4891627 66.0337023,19.4080423 C66.177223,19.3269219 66.2926619,19.217723 66.3800223,19.0804423 C66.4673828,18.9431616 66.5110623,18.7746833 66.5110623,18.5750023 C66.5110623,18.2006004 66.339464,17.9322831 65.9962623,17.7700423 C65.6530606,17.6078015 65.1382657,17.4455631 64.4518623,17.2833223 C64.1149006,17.2084419 63.7873038,17.1117228 63.4690622,16.9931622 C63.1508206,16.8746016 62.8669034,16.7186032 62.6173022,16.5251622 C62.3677009,16.3317212 62.1680229,16.0914836 62.0182622,15.8044422 C61.8685014,15.5174007 61.7936221,15.1617243 61.7936221,14.7374021 C61.7936221,14.2381996 61.8965811,13.8076439 62.1025022,13.4457221 C62.3084232,13.0838003 62.5798605,12.7874032 62.9168222,12.5565221 C63.2537839,12.3256409 63.6344201,12.1540426 64.0587422,12.041722 C64.4830644,11.9294015 64.91986,11.873242 65.3691423,11.873242 C66.0181056,11.873242 66.6514593,11.9855609 67.2692224,12.210202 C67.8869855,12.4348432 68.3768206,12.7780398 68.7387424,13.2398021 L67.2785824,14.5314821 Z M78.6646628,17.4705223 L74.1718627,17.4705223 L74.1718627,15.5610822 L78.6646628,15.5610822 L78.6646628,17.4705223 Z M84.3483431,10.600282 L81.727543,12.7530821 L80.4171429,11.199322 L84.5542631,7.86716188 L86.5947432,7.86716188 L86.5947432,21.1209224 L84.3483431,21.1209224 L84.3483431,10.600282 Z M100.646264,14.4940421 C100.646264,15.5673275 100.543305,16.5345179 100.337384,17.3956423 C100.131463,18.2567666 99.8319457,18.9868393 99.4388237,19.5858823 C99.0457017,20.1849254 98.5589865,20.6466808 97.9786636,20.9711624 C97.3983407,21.295644 96.7337873,21.4578824 95.9849835,21.4578824 C95.2361798,21.4578824 94.5685064,21.295644 93.9819435,20.9711624 C93.3953805,20.6466808 92.9024254,20.1849254 92.5030634,19.5858823 C92.1037014,18.9868393 91.8010644,18.2567666 91.5951434,17.3956423 C91.3892223,16.5345179 91.2862633,15.5673275 91.2862633,14.4940421 C91.2862633,13.4207567 91.3892223,12.4535664 91.5951434,11.592442 C91.8010644,10.7313177 92.1037014,10.001245 92.5030634,9.40220194 C92.9024254,8.80315892 93.3953805,8.34140352 93.9819435,8.01692188 C94.5685064,7.69244025 95.2361798,7.53020186 95.9849835,7.53020186 C96.7337873,7.53020186 97.3983407,7.69244025 97.9786636,8.01692188 C98.5589865,8.34140352 99.0457017,8.80315892 99.4388237,9.40220194 C99.8319457,10.001245 100.131463,10.7313177 100.337384,11.592442 C100.543305,12.4535664 100.646264,13.4207567 100.646264,14.4940421 Z M98.3437036,14.4940421 C98.3437036,14.0322798 98.3156239,13.508125 98.2594636,12.9215621 C98.2033033,12.3349991 98.0909845,11.7796447 97.9225036,11.255482 C97.7540228,10.7313194 97.5137852,10.2914038 97.2017836,9.93572196 C96.889782,9.58004017 96.484186,9.40220194 95.9849835,9.40220194 C95.473301,9.40220194 95.0614651,9.58004017 94.7494635,9.93572196 C94.4374619,10.2914038 94.1972243,10.7313194 94.0287435,11.255482 C93.8602626,11.7796447 93.7448238,12.3349991 93.6824234,12.9215621 C93.6200231,13.508125 93.5888234,14.0322798 93.5888234,14.4940421 C93.5888234,14.9558045 93.6200231,15.4799592 93.6824234,16.0665222 C93.7448238,16.6530852 93.8602626,17.2021997 94.0287435,17.7138823 C94.1972243,18.2255648 94.4374619,18.6592405 94.7494635,19.0149223 C95.0614651,19.3706041 95.473301,19.5484423 95.9849835,19.5484423 C96.484186,19.5484423 96.889782,19.3706041 97.2017836,19.0149223 C97.5137852,18.6592405 97.7540228,18.2255648 97.9225036,17.7138823 C98.0909845,17.2021997 98.2033033,16.6530852 98.2594636,16.0665222 C98.3156239,15.4799592 98.3437036,14.9558045 98.3437036,14.4940421 Z" id="O-wins--10" fill="#FFFFFF"></path>
                </g>
                <g id="Group-14-Copy-6" transform="translate(683.528814, 557.195084)">
                    <g id="Rectangle-31-Copy-2" stroke-linecap="square">
                        <use fill="#2ECD72" fill-rule="evenodd" xlink:href="#path-4"></use>
                        <rect stroke="#FFFFFF" stroke-width="2.88000011" x="-1.44000006" y="-1.44000006" width="115.179084" height="31.6849156" rx="15.8424578"></rect>
                    </g>
                    <path d="M14.2340202,14.0447621 L10.1156201,7.86716188 L12.9610602,7.86716188 L15.6941803,12.3974021 L18.3898604,7.86716188 L21.1042605,7.86716188 L17.0607403,14.1009221 L21.8156205,21.1209224 L18.8391404,21.1209224 L15.6005803,15.9167622 L12.4930602,21.1209224 L9.64762004,21.1209224 L14.2340202,14.0447621 Z M25.8447407,12.135322 L28.2783408,12.135322 L30.1503409,18.5750023 L30.1877809,18.5750023 L32.1159409,12.135322 L34.512101,12.135322 L36.4589811,18.5750023 L36.4964211,18.5750023 L38.4058612,12.135322 L40.7458613,12.135322 L37.6383412,21.1209224 L35.3545011,21.1209224 L33.314021,14.8310022 L33.276581,14.8310022 L31.2548209,21.1209224 L28.9709808,21.1209224 L25.8447407,12.135322 Z M41.9180213,12.135322 L44.1644214,12.135322 L44.1644214,21.1209224 L41.9180213,21.1209224 L41.9180213,12.135322 Z M41.5997813,9.08396192 C41.5997813,8.7220401 41.73394,8.40692324 42.0022613,8.13860189 C42.2705827,7.87028053 42.6106593,7.73612187 43.0225014,7.73612187 C43.4343435,7.73612187 43.78066,7.8640406 44.0614614,8.11988189 C44.3422628,8.37572318 44.4826614,8.69707997 44.4826614,9.08396192 C44.4826614,9.47084387 44.3422628,9.79220067 44.0614614,10.048042 C43.78066,10.3038833 43.4343435,10.431802 43.0225014,10.431802 C42.6106593,10.431802 42.2705827,10.2976433 42.0022613,10.029322 C41.73394,9.76100061 41.5997813,9.44588375 41.5997813,9.08396192 Z M46.6095415,12.135322 L48.7436216,12.135322 L48.7436216,13.5767621 L48.7810616,13.5767621 C48.9807426,13.1274798 49.3270592,12.7312438 49.8200217,12.3880421 C50.3129842,12.0448403 50.8964183,11.873242 51.5703417,11.873242 C52.1569047,11.873242 52.6592197,11.976201 53.0773018,12.182122 C53.4953839,12.3880431 53.8385805,12.6594804 54.1069018,12.9964421 C54.3752232,13.3334038 54.5717812,13.7202799 54.6965819,14.1570821 C54.8213825,14.5938843 54.8837819,15.0431599 54.8837819,15.5049222 L54.8837819,21.1209224 L52.6373818,21.1209224 L52.6373818,16.1414022 C52.6373818,15.8793209 52.618662,15.6047636 52.5812218,15.3177222 C52.5437816,15.0306807 52.4626624,14.7717233 52.3378618,14.5408421 C52.2130611,14.309961 52.0414628,14.1196429 51.8230617,13.9698821 C51.6046606,13.8201214 51.3145035,13.7452421 50.9525817,13.7452421 C50.5906599,13.7452421 50.278663,13.8170014 50.0165817,13.9605221 C49.7545004,14.1040428 49.5392225,14.288121 49.3707416,14.5127621 C49.2022608,14.7374033 49.0743421,14.9963607 48.9869816,15.2896422 C48.8996212,15.5829236 48.8559416,15.8793207 48.8559416,16.1788422 L48.8559416,21.1209224 L46.6095415,21.1209224 L46.6095415,12.135322 Z M62.1399422,14.5314821 C61.9402612,14.2694008 61.6657039,14.0416431 61.3162621,13.8482021 C60.9668204,13.6547611 60.5861842,13.5580421 60.1743421,13.5580421 C59.8124203,13.5580421 59.4817036,13.6329214 59.182182,13.7826821 C58.8826605,13.9324429 58.732902,14.1820404 58.732902,14.5314821 C58.732902,14.8809239 58.8982604,15.1274014 59.228982,15.2709222 C59.5597037,15.4144429 60.0432989,15.5610814 60.6797821,15.7108422 C61.0167438,15.7857226 61.3568204,15.8855616 61.7000221,16.0103622 C62.0432239,16.1351628 62.3552208,16.3005212 62.6360222,16.5064422 C62.9168236,16.7123633 63.1445813,16.9682007 63.3193022,17.2739622 C63.4940231,17.5797238 63.5813822,17.9510001 63.5813822,18.3878023 C63.5813822,18.9369251 63.4784232,19.4018004 63.2725022,19.7824423 C63.0665812,20.1630843 62.7920239,20.4719612 62.4488222,20.7090824 C62.1056204,20.9462036 61.7062644,21.1178019 61.2507421,21.2238824 C60.7952198,21.3299629 60.3241045,21.3830024 59.8373821,21.3830024 C59.1384985,21.3830024 58.4583453,21.2550837 57.796902,20.9992424 C57.1354587,20.7434011 56.5863441,20.3783647 56.1495419,19.9041224 L57.628422,18.5188423 C57.8780232,18.8433239 58.2025,19.1116413 58.601862,19.3238023 C59.001224,19.5359634 59.4442596,19.6420423 59.9309821,19.6420423 C60.0932229,19.6420423 60.2585812,19.6233225 60.4270621,19.5858823 C60.5955429,19.5484422 60.7515414,19.4891627 60.8950621,19.4080423 C61.0385828,19.3269219 61.1540217,19.217723 61.2413821,19.0804423 C61.3287426,18.9431616 61.3724221,18.7746833 61.3724221,18.5750023 C61.3724221,18.2006004 61.2008238,17.9322831 60.8576221,17.7700423 C60.5144204,17.6078015 59.9996255,17.4455631 59.3132221,17.2833223 C58.9762604,17.2084419 58.6486636,17.1117228 58.330422,16.9931622 C58.0121804,16.8746016 57.7282632,16.7186032 57.478662,16.5251622 C57.2290607,16.3317212 57.0293827,16.0914836 56.879622,15.8044422 C56.7298612,15.5174007 56.6549819,15.1617243 56.6549819,14.7374021 C56.6549819,14.2381996 56.7579409,13.8076439 56.963862,13.4457221 C57.169783,13.0838003 57.4412203,12.7874032 57.778182,12.5565221 C58.1151437,12.3256409 58.4957799,12.1540426 58.920102,12.041722 C59.3444242,11.9294015 59.7812198,11.873242 60.2305021,11.873242 C60.8794654,11.873242 61.512819,11.9855609 62.1305822,12.210202 C62.7483453,12.4348432 63.2381804,12.7780398 63.6001022,13.2398021 L62.1399422,14.5314821 Z M73.5634626,14.4940421 L73.5634626,10.375642 L75.4729027,10.375642 L75.4729027,14.4940421 L79.5913029,14.4940421 L79.5913029,16.4034822 L75.4729027,16.4034822 L75.4729027,20.5218824 L73.5634626,20.5218824 L73.5634626,16.4034822 L69.4450625,16.4034822 L69.4450625,14.4940421 L73.5634626,14.4940421 Z M85.6868231,10.600282 L83.066023,12.7530821 L81.755623,11.199322 L85.8927431,7.86716188 L87.9332232,7.86716188 L87.9332232,21.1209224 L85.6868231,21.1209224 L85.6868231,10.600282 Z M101.984744,14.4940421 C101.984744,15.5673275 101.881785,16.5345179 101.675864,17.3956423 C101.469943,18.2567666 101.170426,18.9868393 100.777304,19.5858823 C100.384182,20.1849254 99.8974666,20.6466808 99.3171437,20.9711624 C98.7368207,21.295644 98.0722674,21.4578824 97.3234636,21.4578824 C96.5746598,21.4578824 95.9069865,21.295644 95.3204235,20.9711624 C94.7338606,20.6466808 94.2409055,20.1849254 93.8415434,19.5858823 C93.4421814,18.9868393 93.1395444,18.2567666 92.9336234,17.3956423 C92.7277024,16.5345179 92.6247434,15.5673275 92.6247434,14.4940421 C92.6247434,13.4207567 92.7277024,12.4535664 92.9336234,11.592442 C93.1395444,10.7313177 93.4421814,10.001245 93.8415434,9.40220194 C94.2409055,8.80315892 94.7338606,8.34140352 95.3204235,8.01692188 C95.9069865,7.69244025 96.5746598,7.53020186 97.3234636,7.53020186 C98.0722674,7.53020186 98.7368207,7.69244025 99.3171437,8.01692188 C99.8974666,8.34140352 100.384182,8.80315892 100.777304,9.40220194 C101.170426,10.001245 101.469943,10.7313177 101.675864,11.592442 C101.881785,12.4535664 101.984744,13.4207567 101.984744,14.4940421 Z M99.6821837,14.4940421 C99.6821837,14.0322798 99.654104,13.508125 99.5979437,12.9215621 C99.5417834,12.3349991 99.4294645,11.7796447 99.2609837,11.255482 C99.0925028,10.7313194 98.8522652,10.2914038 98.5402636,9.93572196 C98.2282621,9.58004017 97.8226661,9.40220194 97.3234636,9.40220194 C96.811781,9.40220194 96.3999451,9.58004017 96.0879435,9.93572196 C95.775942,10.2914038 95.5357044,10.7313194 95.3672235,11.255482 C95.1987427,11.7796447 95.0833038,12.3349991 95.0209035,12.9215621 C94.9585032,13.508125 94.9273035,14.0322798 94.9273035,14.4940421 C94.9273035,14.9558045 94.9585032,15.4799592 95.0209035,16.0665222 C95.0833038,16.6530852 95.1987427,17.2021997 95.3672235,17.7138823 C95.5357044,18.2255648 95.775942,18.6592405 96.0879435,19.0149223 C96.3999451,19.3706041 96.811781,19.5484423 97.3234636,19.5484423 C97.8226661,19.5484423 98.2282621,19.3706041 98.5402636,19.0149223 C98.8522652,18.6592405 99.0925028,18.2255648 99.2609837,17.7138823 C99.4294645,17.2021997 99.5417834,16.6530852 99.5979437,16.0665222 C99.654104,15.4799592 99.6821837,14.9558045 99.6821837,14.4940421 Z" id="X-wins-+10" fill="#FFFFFF"></path>
                </g>
                <path d="M157.59887,136.823349 L214.661589,189.032258" id="Line-2-Copy-11" stroke="#63B5FF" stroke-width="3.60000014" stroke-linecap="square"></path>
                <path d="M622.290395,136.823349 L679.353114,189.032258" id="Line-2-Copy-12" stroke="#63B5FF" stroke-width="3.60000014" stroke-linecap="square"></path>
                <path d="M157.925996,136.823349 L100.863277,189.032258 L157.925996,136.823349 Z" id="Line-2-Copy-14" stroke="#63B5FF" stroke-width="3.60000014" stroke-linecap="square"></path>
                <path d="M622.617521,136.823349 L565.554802,189.032258 L622.617521,136.823349 Z" id="Line-2-Copy-15" stroke="#63B5FF" stroke-width="3.60000014" stroke-linecap="square"></path>
                <path d="M261.409775,347.459293 L261.163842,399.668203 L261.409775,347.459293 Z" id="Line-2-Copy-16" stroke="#63B5FF" stroke-width="3.60000014" stroke-linecap="square"></path>
                <path d="M739.609775,347.459293 L739.363842,399.668203 L739.609775,347.459293 Z" id="Line-2-Copy-17" stroke="#63B5FF" stroke-width="3.60000014" stroke-linecap="square"></path>
                <polyline id="Rectangle-Copy-9" stroke="#63B5FF" stroke-width="3.60000014" stroke-linecap="square" transform="translate(261.227843, 395.231407) rotate(-135.000000) translate(-261.227843, -395.231407) " points="256.725018 399.732175 256.725018 390.730639 256.725018 390.730639 265.730668 390.730639"></polyline>
                <polyline id="Rectangle-Copy-10" stroke="#63B5FF" stroke-width="3.60000014" stroke-linecap="square" transform="translate(739.427843, 395.231407) rotate(-135.000000) translate(-739.427843, -395.231407) " points="734.925018 399.732175 734.925018 390.730639 734.925018 390.730639 743.930668 390.730639"></polyline>
                <polyline id="Rectangle-Copy-12" stroke="#63B5FF" stroke-width="3.60000014" stroke-linecap="square" transform="translate(211.632768, 186.331797) rotate(-180.000000) translate(-211.632768, -186.331797) " points="207.129944 190.832565 207.129944 181.831029 207.129944 181.831029 216.135593 181.831029"></polyline>
                <polyline id="Rectangle-Copy-14" stroke="#63B5FF" stroke-width="3.60000014" stroke-linecap="square" transform="translate(676.324294, 186.331797) rotate(-180.000000) translate(-676.324294, -186.331797) " points="671.821469 190.832565 671.821469 181.831029 671.821469 181.831029 680.827119 181.831029"></polyline>
                <polyline id="Rectangle-Copy-13" stroke="#63B5FF" stroke-width="3.60000014" stroke-linecap="square" transform="translate(103.564972, 186.331797) scale(-1, 1) rotate(-180.000000) translate(-103.564972, -186.331797) " points="99.0621469 190.832565 99.0621469 181.831029 99.0621469 181.831029 108.067797 181.831029"></polyline>
                <polyline id="Rectangle-Copy-15" stroke="#63B5FF" stroke-width="3.60000014" stroke-linecap="square" transform="translate(568.256497, 186.331797) scale(-1, 1) rotate(-180.000000) translate(-568.256497, -186.331797) " points="563.753672 190.832565 563.753672 181.831029 563.753672 181.831029 572.759322 181.831029"></polyline>
            </g>
        </g>
    </g>
</svg>