<?xml version="1.0" encoding="UTF-8"?>
<svg width="1024px" height="683px" viewBox="0 0 1024 683" version="1.1" xmlns="http://www.w3.org/2000/svg" xmlns:xlink="http://www.w3.org/1999/xlink">
    <!-- Generator: Sketch 45.1 (43504) - http://www.bohemiancoding.com/sketch -->
    <title>Artboard@1x</title>
    <desc>Created with Sketch.</desc>
    <defs>
        <rect id="path-1" x="0" y="0" width="1024" height="739.033639"></rect>
    </defs>
    <g id="Page-1" stroke="none" stroke-width="1" fill="none" fill-rule="evenodd">
        <g id="Artboard">
            <g id="Group-8-Copy">
                <mask id="mask-2" fill="white">
                    <use xlink:href="#path-1"></use>
                </mask>
                <use id="Rectangle-11" fill="#FFD633" xlink:href="#path-1"></use>
                <g id="Group-7" opacity="0.149999991" style="mix-blend-mode: multiply;" mask="url(#mask-2)">
                    <g transform="translate(506.257474, 375.794872) rotate(81.000000) translate(-506.257474, -375.794872) translate(59.498471, -241.125382)">
                        <g id="Group-6">
                            <polygon id="+-copy-4" fill="#C3C3C3" transform="translate(270.009885, 33.579204) rotate(-315.000000) translate(-270.009885, -33.579204) " points="265.900089 56.9808663 265.900089 37.5640069 246.608223 37.5640069 246.608223 29.4494985 265.900089 29.4494985 265.900089 10.1775411 274.119681 10.1775411 274.119681 29.4494985 293.411548 29.4494985 293.411548 37.5640069 274.119681 37.5640069 274.119681 56.9808663 268.573132 56.9808663"></polygon>
                            <ellipse id="Oval-3-Copy-3" stroke="#C3C3C3" stroke-width="7.80055419" cx="151.655724" cy="33.5792037" rx="15.6429864" ry="15.6225158"></ellipse>
                        </g>
                        <g id="Group-6-Copy" transform="translate(453.794578, 163.210548) scale(-1, 1) translate(-453.794578, -163.210548) translate(14.071150, 129.631345)">
                            <polygon id="+-copy-2" fill="#C3C3C3" transform="translate(742.232132, 33.579204) rotate(-315.000000) translate(-742.232132, -33.579204) " points="738.122336 56.9808663 738.122336 37.5640069 718.830469 37.5640069 718.830469 29.4494985 738.122336 29.4494985 738.122336 10.1775411 746.341928 10.1775411 746.341928 29.4494985 765.633794 29.4494985 765.633794 37.5640069 746.341928 37.5640069 746.341928 56.9808663 740.795378 56.9808663"></polygon>
                            <polygon id="+-copy-3" fill="#C3C3C3" transform="translate(506.121008, 33.579204) rotate(-315.000000) translate(-506.121008, -33.579204) " points="502.011212 56.9808663 502.011212 37.5640069 482.719346 37.5640069 482.719346 29.4494985 502.011212 29.4494985 502.011212 10.1775411 510.230805 10.1775411 510.230805 29.4494985 529.522671 29.4494985 529.522671 37.5640069 510.230805 37.5640069 510.230805 56.9808663 504.684255 56.9808663"></polygon>
                            <ellipse id="Oval-3-Copy" stroke="#C3C3C3" stroke-width="7.80055419" cx="623.82097" cy="33.5792037" rx="15.6429864" ry="15.6225158"></ellipse>
                            <polygon id="+-copy-4" fill="#C3C3C3" transform="translate(270.009885, 33.579204) rotate(-315.000000) translate(-270.009885, -33.579204) " points="265.900089 56.9808663 265.900089 37.5640069 246.608223 37.5640069 246.608223 29.4494985 265.900089 29.4494985 265.900089 10.1775411 274.119681 10.1775411 274.119681 29.4494985 293.411548 29.4494985 293.411548 37.5640069 274.119681 37.5640069 274.119681 56.9808663 268.573132 56.9808663"></polygon>
                            <ellipse id="Oval-3-Copy-2" stroke="#C3C3C3" stroke-width="7.80055419" cx="387.738347" cy="33.5792037" rx="15.6429864" ry="15.6225158"></ellipse>
                            <polygon id="+-copy-5" fill="#C3C3C3" transform="translate(33.565386, 33.579204) rotate(-315.000000) translate(-33.565386, -33.579204) " points="29.4555903 56.9808663 29.4555903 37.5640069 10.1637238 37.5640069 10.1637238 29.4494985 29.4555903 29.4494985 29.4555903 10.1775411 37.6751825 10.1775411 37.6751825 29.4494985 56.967049 29.4494985 56.967049 37.5640069 37.6751825 37.5640069 37.6751825 56.9808663 32.1286328 56.9808663"></polygon>
                            <ellipse id="Oval-3-Copy-3" stroke="#C3C3C3" stroke-width="7.80055419" cx="151.655724" cy="33.5792037" rx="15.6429864" ry="15.6225158"></ellipse>
                        </g>
                        <g id="Group-6-Copy-2" transform="translate(0.000000, 259.262689)">
                            <polygon id="+-copy-2" fill="#C3C3C3" transform="translate(742.232132, 33.579204) rotate(-315.000000) translate(-742.232132, -33.579204) " points="738.122336 56.9808663 738.122336 37.5640069 718.830469 37.5640069 718.830469 29.4494985 738.122336 29.4494985 738.122336 10.1775411 746.341928 10.1775411 746.341928 29.4494985 765.633794 29.4494985 765.633794 37.5640069 746.341928 37.5640069 746.341928 56.9808663 740.795378 56.9808663"></polygon>
                            <polygon id="+-copy-3" fill="#C3C3C3" transform="translate(506.121008, 33.579204) rotate(-315.000000) translate(-506.121008, -33.579204) " points="502.011212 56.9808663 502.011212 37.5640069 482.719346 37.5640069 482.719346 29.4494985 502.011212 29.4494985 502.011212 10.1775411 510.230805 10.1775411 510.230805 29.4494985 529.522671 29.4494985 529.522671 37.5640069 510.230805 37.5640069 510.230805 56.9808663 504.684255 56.9808663"></polygon>
                            <ellipse id="Oval-3-Copy" stroke="#C3C3C3" stroke-width="7.80055419" cx="623.82097" cy="33.5792037" rx="15.6429864" ry="15.6225158"></ellipse>
                            <polygon id="+-copy-4" fill="#C3C3C3" transform="translate(270.009885, 33.579204) rotate(-315.000000) translate(-270.009885, -33.579204) " points="265.900089 56.9808663 265.900089 37.5640069 246.608223 37.5640069 246.608223 29.4494985 265.900089 29.4494985 265.900089 10.1775411 274.119681 10.1775411 274.119681 29.4494985 293.411548 29.4494985 293.411548 37.5640069 274.119681 37.5640069 274.119681 56.9808663 268.573132 56.9808663"></polygon>
                            <ellipse id="Oval-3-Copy-2" stroke="#C3C3C3" stroke-width="7.80055419" cx="387.738347" cy="33.5792037" rx="15.6429864" ry="15.6225158"></ellipse>
                            <ellipse id="Oval-3-Copy-3" stroke="#C3C3C3" stroke-width="7.80055419" cx="151.655724" cy="33.5792037" rx="15.6429864" ry="15.6225158"></ellipse>
                        </g>
                        <g id="Group-6-Copy-6" transform="translate(0.000000, 777.788067)">
                            <polygon id="+-copy-2" fill="#C3C3C3" transform="translate(742.232132, 33.579204) rotate(-315.000000) translate(-742.232132, -33.579204) " points="738.122336 56.9808663 738.122336 37.5640069 718.830469 37.5640069 718.830469 29.4494985 738.122336 29.4494985 738.122336 10.1775411 746.341928 10.1775411 746.341928 29.4494985 765.633794 29.4494985 765.633794 37.5640069 746.341928 37.5640069 746.341928 56.9808663 740.795378 56.9808663"></polygon>
                            <polygon id="+-copy-3" fill="#C3C3C3" transform="translate(506.121008, 33.579204) rotate(-315.000000) translate(-506.121008, -33.579204) " points="502.011212 56.9808663 502.011212 37.5640069 482.719346 37.5640069 482.719346 29.4494985 502.011212 29.4494985 502.011212 10.1775411 510.230805 10.1775411 510.230805 29.4494985 529.522671 29.4494985 529.522671 37.5640069 510.230805 37.5640069 510.230805 56.9808663 504.684255 56.9808663"></polygon>
                            <ellipse id="Oval-3-Copy" stroke="#C3C3C3" stroke-width="7.80055419" cx="623.82097" cy="33.5792037" rx="15.6429864" ry="15.6225158"></ellipse>
                            <polygon id="+-copy-4" fill="#C3C3C3" transform="translate(270.009885, 33.579204) rotate(-315.000000) translate(-270.009885, -33.579204) " points="265.900089 56.9808663 265.900089 37.5640069 246.608223 37.5640069 246.608223 29.4494985 265.900089 29.4494985 265.900089 10.1775411 274.119681 10.1775411 274.119681 29.4494985 293.411548 29.4494985 293.411548 37.5640069 274.119681 37.5640069 274.119681 56.9808663 268.573132 56.9808663"></polygon>
                            <ellipse id="Oval-3-Copy-2" stroke="#C3C3C3" stroke-width="7.80055419" cx="387.738347" cy="33.5792037" rx="15.6429864" ry="15.6225158"></ellipse>
                            <polygon id="+-copy-5" fill="#C3C3C3" transform="translate(33.565386, 33.579204) rotate(-315.000000) translate(-33.565386, -33.579204) " points="29.4555903 56.9808663 29.4555903 37.5640069 10.1637238 37.5640069 10.1637238 29.4494985 29.4555903 29.4494985 29.4555903 10.1775411 37.6751825 10.1775411 37.6751825 29.4494985 56.967049 29.4494985 56.967049 37.5640069 37.6751825 37.5640069 37.6751825 56.9808663 32.1286328 56.9808663"></polygon>
                            <ellipse id="Oval-3-Copy-3" stroke="#C3C3C3" stroke-width="7.80055419" cx="151.655724" cy="33.5792037" rx="15.6429864" ry="15.6225158"></ellipse>
                        </g>
                        <g id="Group-6-Copy-4" transform="translate(0.000000, 518.525378)">
                            <polygon id="+-copy-2" fill="#C3C3C3" transform="translate(742.232132, 33.579204) rotate(-315.000000) translate(-742.232132, -33.579204) " points="738.122336 56.9808663 738.122336 37.5640069 718.830469 37.5640069 718.830469 29.4494985 738.122336 29.4494985 738.122336 10.1775411 746.341928 10.1775411 746.341928 29.4494985 765.633794 29.4494985 765.633794 37.5640069 746.341928 37.5640069 746.341928 56.9808663 740.795378 56.9808663"></polygon>
                            <polygon id="+-copy-3" fill="#C3C3C3" transform="translate(506.121008, 33.579204) rotate(-315.000000) translate(-506.121008, -33.579204) " points="502.011212 56.9808663 502.011212 37.5640069 482.719346 37.5640069 482.719346 29.4494985 502.011212 29.4494985 502.011212 10.1775411 510.230805 10.1775411 510.230805 29.4494985 529.522671 29.4494985 529.522671 37.5640069 510.230805 37.5640069 510.230805 56.9808663 504.684255 56.9808663"></polygon>
                            <ellipse id="Oval-3-Copy" stroke="#C3C3C3" stroke-width="7.80055419" cx="623.82097" cy="33.5792037" rx="15.6429864" ry="15.6225158"></ellipse>
                            <polygon id="+-copy-4" fill="#C3C3C3" transform="translate(270.009885, 33.579204) rotate(-315.000000) translate(-270.009885, -33.579204) " points="265.900089 56.9808663 265.900089 37.5640069 246.608223 37.5640069 246.608223 29.4494985 265.900089 29.4494985 265.900089 10.1775411 274.119681 10.1775411 274.119681 29.4494985 293.411548 29.4494985 293.411548 37.5640069 274.119681 37.5640069 274.119681 56.9808663 268.573132 56.9808663"></polygon>
                            <ellipse id="Oval-3-Copy-2" stroke="#C3C3C3" stroke-width="7.80055419" cx="387.738347" cy="33.5792037" rx="15.6429864" ry="15.6225158"></ellipse>
                            <ellipse id="Oval-3-Copy-3" stroke="#C3C3C3" stroke-width="7.80055419" cx="151.655724" cy="33.5792037" rx="15.6429864" ry="15.6225158"></ellipse>
                        </g>
                        <g id="Group-6-Copy-7" transform="translate(0.000000, 1037.050756)">
                            <polygon id="+-copy-3" fill="#C3C3C3" transform="translate(506.121008, 33.579204) rotate(-315.000000) translate(-506.121008, -33.579204) " points="502.011212 56.9808663 502.011212 37.5640069 482.719346 37.5640069 482.719346 29.4494985 502.011212 29.4494985 502.011212 10.1775411 510.230805 10.1775411 510.230805 29.4494985 529.522671 29.4494985 529.522671 37.5640069 510.230805 37.5640069 510.230805 56.9808663 504.684255 56.9808663"></polygon>
                            <ellipse id="Oval-3-Copy" stroke="#C3C3C3" stroke-width="7.80055419" cx="623.82097" cy="33.5792037" rx="15.6429864" ry="15.6225158"></ellipse>
                            <polygon id="+-copy-4" fill="#C3C3C3" transform="translate(270.009885, 33.579204) rotate(-315.000000) translate(-270.009885, -33.579204) " points="265.900089 56.9808663 265.900089 37.5640069 246.608223 37.5640069 246.608223 29.4494985 265.900089 29.4494985 265.900089 10.1775411 274.119681 10.1775411 274.119681 29.4494985 293.411548 29.4494985 293.411548 37.5640069 274.119681 37.5640069 274.119681 56.9808663 268.573132 56.9808663"></polygon>
                            <ellipse id="Oval-3-Copy-2" stroke="#C3C3C3" stroke-width="7.80055419" cx="387.738347" cy="33.5792037" rx="15.6429864" ry="15.6225158"></ellipse>
                            <polygon id="+-copy-5" fill="#C3C3C3" transform="translate(33.565386, 33.579204) rotate(-315.000000) translate(-33.565386, -33.579204) " points="29.4555903 56.9808663 29.4555903 37.5640069 10.1637238 37.5640069 10.1637238 29.4494985 29.4555903 29.4494985 29.4555903 10.1775411 37.6751825 10.1775411 37.6751825 29.4494985 56.967049 29.4494985 56.967049 37.5640069 37.6751825 37.5640069 37.6751825 56.9808663 32.1286328 56.9808663"></polygon>
                            <ellipse id="Oval-3-Copy-3" stroke="#C3C3C3" stroke-width="7.80055419" cx="151.655724" cy="33.5792037" rx="15.6429864" ry="15.6225158"></ellipse>
                        </g>
                        <g id="Group-6-Copy-3" transform="translate(453.794578, 422.473237) scale(-1, 1) translate(-453.794578, -422.473237) translate(14.071150, 388.894034)">
                            <polygon id="+-copy-2" fill="#C3C3C3" transform="translate(742.232132, 33.579204) rotate(-315.000000) translate(-742.232132, -33.579204) " points="738.122336 56.9808663 738.122336 37.5640069 718.830469 37.5640069 718.830469 29.4494985 738.122336 29.4494985 738.122336 10.1775411 746.341928 10.1775411 746.341928 29.4494985 765.633794 29.4494985 765.633794 37.5640069 746.341928 37.5640069 746.341928 56.9808663 740.795378 56.9808663"></polygon>
                            <polygon id="+-copy-3" fill="#C3C3C3" transform="translate(506.121008, 33.579204) rotate(-315.000000) translate(-506.121008, -33.579204) " points="502.011212 56.9808663 502.011212 37.5640069 482.719346 37.5640069 482.719346 29.4494985 502.011212 29.4494985 502.011212 10.1775411 510.230805 10.1775411 510.230805 29.4494985 529.522671 29.4494985 529.522671 37.5640069 510.230805 37.5640069 510.230805 56.9808663 504.684255 56.9808663"></polygon>
                            <ellipse id="Oval-3-Copy" stroke="#C3C3C3" stroke-width="7.80055419" cx="623.82097" cy="33.5792037" rx="15.6429864" ry="15.6225158"></ellipse>
                            <polygon id="+-copy-4" fill="#C3C3C3" transform="translate(270.009885, 33.579204) rotate(-315.000000) translate(-270.009885, -33.579204) " points="265.900089 56.9808663 265.900089 37.5640069 246.608223 37.5640069 246.608223 29.4494985 265.900089 29.4494985 265.900089 10.1775411 274.119681 10.1775411 274.119681 29.4494985 293.411548 29.4494985 293.411548 37.5640069 274.119681 37.5640069 274.119681 56.9808663 268.573132 56.9808663"></polygon>
                            <ellipse id="Oval-3-Copy-2" stroke="#C3C3C3" stroke-width="7.80055419" cx="387.738347" cy="33.5792037" rx="15.6429864" ry="15.6225158"></ellipse>
                            <ellipse id="Oval-3-Copy-3" stroke="#C3C3C3" stroke-width="7.80055419" cx="151.655724" cy="33.5792037" rx="15.6429864" ry="15.6225158"></ellipse>
                        </g>
                        <g id="Group-6-Copy-8" transform="translate(453.794578, 940.998615) scale(-1, 1) translate(-453.794578, -940.998615) translate(14.071150, 907.419412)">
                            <polygon id="+-copy-2" fill="#C3C3C3" transform="translate(742.232132, 33.579204) rotate(-315.000000) translate(-742.232132, -33.579204) " points="738.122336 56.9808663 738.122336 37.5640069 718.830469 37.5640069 718.830469 29.4494985 738.122336 29.4494985 738.122336 10.1775411 746.341928 10.1775411 746.341928 29.4494985 765.633794 29.4494985 765.633794 37.5640069 746.341928 37.5640069 746.341928 56.9808663 740.795378 56.9808663"></polygon>
                            <polygon id="+-copy-3" fill="#C3C3C3" transform="translate(506.121008, 33.579204) rotate(-315.000000) translate(-506.121008, -33.579204) " points="502.011212 56.9808663 502.011212 37.5640069 482.719346 37.5640069 482.719346 29.4494985 502.011212 29.4494985 502.011212 10.1775411 510.230805 10.1775411 510.230805 29.4494985 529.522671 29.4494985 529.522671 37.5640069 510.230805 37.5640069 510.230805 56.9808663 504.684255 56.9808663"></polygon>
                            <ellipse id="Oval-3" stroke="#C3C3C3" stroke-width="7.80055419" cx="859.903592" cy="33.5792037" rx="15.6429864" ry="15.6225158"></ellipse>
                            <ellipse id="Oval-3-Copy" stroke="#C3C3C3" stroke-width="7.80055419" cx="623.82097" cy="33.5792037" rx="15.6429864" ry="15.6225158"></ellipse>
                            <polygon id="+-copy-4" fill="#C3C3C3" transform="translate(270.009885, 33.579204) rotate(-315.000000) translate(-270.009885, -33.579204) " points="265.900089 56.9808663 265.900089 37.5640069 246.608223 37.5640069 246.608223 29.4494985 265.900089 29.4494985 265.900089 10.1775411 274.119681 10.1775411 274.119681 29.4494985 293.411548 29.4494985 293.411548 37.5640069 274.119681 37.5640069 274.119681 56.9808663 268.573132 56.9808663"></polygon>
                            <ellipse id="Oval-3-Copy-2" stroke="#C3C3C3" stroke-width="7.80055419" cx="387.738347" cy="33.5792037" rx="15.6429864" ry="15.6225158"></ellipse>
                        </g>
                        <g id="Group-6-Copy-5" transform="translate(453.794578, 681.735926) scale(-1, 1) translate(-453.794578, -681.735926) translate(14.071150, 648.156723)">
                            <polygon id="+-copy-2" fill="#C3C3C3" transform="translate(742.232132, 33.579204) rotate(-315.000000) translate(-742.232132, -33.579204) " points="738.122336 56.9808663 738.122336 37.5640069 718.830469 37.5640069 718.830469 29.4494985 738.122336 29.4494985 738.122336 10.1775411 746.341928 10.1775411 746.341928 29.4494985 765.633794 29.4494985 765.633794 37.5640069 746.341928 37.5640069 746.341928 56.9808663 740.795378 56.9808663"></polygon>
                            <polygon id="+-copy-3" fill="#C3C3C3" transform="translate(506.121008, 33.579204) rotate(-315.000000) translate(-506.121008, -33.579204) " points="502.011212 56.9808663 502.011212 37.5640069 482.719346 37.5640069 482.719346 29.4494985 502.011212 29.4494985 502.011212 10.1775411 510.230805 10.1775411 510.230805 29.4494985 529.522671 29.4494985 529.522671 37.5640069 510.230805 37.5640069 510.230805 56.9808663 504.684255 56.9808663"></polygon>
                            <ellipse id="Oval-3" stroke="#C3C3C3" stroke-width="7.80055419" cx="859.903592" cy="33.5792037" rx="15.6429864" ry="15.6225158"></ellipse>
                            <ellipse id="Oval-3-Copy" stroke="#C3C3C3" stroke-width="7.80055419" cx="623.82097" cy="33.5792037" rx="15.6429864" ry="15.6225158"></ellipse>
                            <polygon id="+-copy-4" fill="#C3C3C3" transform="translate(270.009885, 33.579204) rotate(-315.000000) translate(-270.009885, -33.579204) " points="265.900089 56.9808663 265.900089 37.5640069 246.608223 37.5640069 246.608223 29.4494985 265.900089 29.4494985 265.900089 10.1775411 274.119681 10.1775411 274.119681 29.4494985 293.411548 29.4494985 293.411548 37.5640069 274.119681 37.5640069 274.119681 56.9808663 268.573132 56.9808663"></polygon>
                            <ellipse id="Oval-3-Copy-2" stroke="#C3C3C3" stroke-width="7.80055419" cx="387.738347" cy="33.5792037" rx="15.6429864" ry="15.6225158"></ellipse>
                            <ellipse id="Oval-3-Copy-3" stroke="#C3C3C3" stroke-width="7.80055419" cx="151.655724" cy="33.5792037" rx="15.6429864" ry="15.6225158"></ellipse>
                        </g>
                        <g id="Group-6-Copy-9" transform="translate(453.794578, 1200.261304) scale(-1, 1) translate(-453.794578, -1200.261304) translate(14.071150, 1166.682101)"></g>
                    </g>
                </g>
                <g id="Group-Copy-7" mask="url(#mask-2)">
                    <g transform="translate(352.293578, 76.853211)">
                        <path d="M44.328467,17.5301523 C43.425527,18.4011277 42.3544827,18.8387432 41.1046945,18.8387432 C39.8194414,18.8387432 38.734211,18.388361 37.8461664,17.4897243 C36.9609589,16.5861228 36.520483,15.5208093 36.520483,14.2845634 C36.520483,13.0383877 36.9779821,11.9723649 37.8837593,11.1028081 C38.8023039,10.2247401 39.8690924,9.78783388 41.1046945,9.78783388 C42.2644015,9.78783388 43.3184225,10.2070085 44.2632113,11.0453578 C45.2051629,11.883707 45.6803944,12.9752633 45.6803944,14.3150617 C45.6803944,15.5832245 45.2306977,16.648538 44.328467,17.5301523 Z M45.3080115,47.7596645 L36.7885988,47.7596645 L36.7885988,22.2382423 C36.7885988,22.2382423 37.934829,23.7737974 41.1046945,23.7737974 C44.2660485,23.7737974 45.3080115,22.2382423 45.3080115,22.2382423 L45.3080115,47.7596645 Z M28.6309295,44.6786246 C26.1455393,47.122746 23.1019292,48.3448067 19.5185413,48.3448067 C16.7309888,48.3448067 13.7306462,47.5043297 10.5189319,45.8283405 L10.5189319,36.593732 C13.3965655,39.2669454 16.1110599,40.6081624 18.6602872,40.6081624 C19.9639822,40.6081624 21.0775846,40.1904063 22.0067687,39.3541848 C22.93879,38.5101615 23.3969984,37.4966242 23.3969984,36.3022247 C23.3969984,35.3340803 23.0735572,34.4751624 22.4103609,33.7268896 C21.7322693,32.9821631 20.4661672,32.1275008 18.6120547,31.2026214 C15.991188,29.9046696 13.9909596,28.4669928 12.6149159,26.88108 C11.2161746,25.2909116 10.5189319,23.277313 10.5189319,20.8360287 C10.5189319,17.7308739 11.6112552,15.11582 13.7859716,12.9795188 C15.9670718,10.8524381 18.8454147,9.78712462 22.4373143,9.78712462 C24.9007162,9.78712462 27.4641296,10.4439025 30.1261357,11.7730619 L30.1261357,20.6870834 C27.7641638,18.4188593 25.5078778,17.2833287 23.3459287,17.2833287 C22.2791402,17.2833287 21.3492468,17.604625 20.5626321,18.2493453 C19.7781454,18.8912286 19.3830648,19.6699998 19.3830648,20.5799846 C19.3830648,21.4736564 19.7086339,22.2382423 20.3505512,22.8794163 C20.9747359,23.5227182 22.1358615,24.2248888 23.8310905,24.9731617 C26.6299917,26.2221744 28.7543478,27.6485029 30.1991937,29.2592399 C31.6475861,30.8806159 32.3696544,33.0694025 32.3696544,35.8185072 C32.3696544,39.2790029 31.1248313,42.2359217 28.6309295,44.6786246 Z M48.7020161,0 L8.02503001,0 C3.59048099,0 0,3.59241874 0,8.02389599 L0,48.7001477 C0,53.1351712 3.59048099,56.7247529 8.02503001,56.7247529 L48.7020161,56.7247529 C53.1379837,56.7247529 56.7313019,53.1351712 56.7313019,48.7001477 L56.7313019,8.02389599 C56.7313019,3.59241874 53.1379837,0 48.7020161,0 L48.7020161,0 Z" id="Fill-1" fill="#424649" fill-rule="evenodd"></path>
                        <text id="Small-Improvements" fill="none" font-family="AvenirNext-DemiBold, Avenir Next" font-size="25.5290859" font-weight="500">
                            <tspan x="76.5872576" y="37.3446759" fill="#424649">Small Improvements</tspan>
                        </text>
                    </g>
                </g>
                <text id="TOA-React-and-AI-pla" mask="url(#mask-2)" font-family="AvenirNext-DemiBold, Avenir Next" font-size="37.5779817" font-weight="500" fill="#424649">
                    <tspan x="472.110972" y="327.544343">TOA</tspan>
                    <tspan x="551.889028" y="327.544343" font-family="AvenirNext-Medium, Avenir Next" font-weight="400"></tspan>
                    <tspan x="241.720367" y="379.544343" font-family="AvenirNext-Medium, Avenir Next" font-weight="400">React and AI playing TicTacToe</tspan>
                </text>
                <text id="July-13th-2017-–-Ber" mask="url(#mask-2)" font-family="AvenirNext-DemiBold, Avenir Next" font-size="21.9204893" font-weight="500" fill="#424649">
                    <tspan x="396.391339" y="613.48318">July 13th 2017 – Berlin</tspan>
                </text>
            </g>
        </g>
    </g>
</svg>