<?xml version="1.0" encoding="UTF-8"?>
<svg width="1024px" height="593px" viewBox="0 0 1024 593" version="1.1" xmlns="http://www.w3.org/2000/svg" xmlns:xlink="http://www.w3.org/1999/xlink">
    <!-- Generator: Sketch 45.1 (43504) - http://www.bohemiancoding.com/sketch -->
    <title>Artboard Copy 4@1x</title>
    <desc>Created with Sketch.</desc>
    <defs>
        <rect id="path-1" x="0" y="0" width="34.7356892" height="35.2000008" rx="17.3678446"></rect>
        <rect id="path-2" x="0" y="0" width="34.7356892" height="35.2000008" rx="2.20000005"></rect>
        <rect id="path-3" x="0" y="0" width="34.7356892" height="35.2000008" rx="2.20000005"></rect>
        <rect id="path-4" x="0" y="0" width="34.7356892" height="35.2000008" rx="17.3678446"></rect>
        <rect id="path-5" x="0" y="0" width="34.7356892" height="35.2000008" rx="17.3678446"></rect>
        <rect id="path-6" x="0" y="0" width="34.7356892" height="35.2000008" rx="17.3678446"></rect>
        <rect id="path-7" x="0" y="0" width="34.7356892" height="35.2000008" rx="2.20000005"></rect>
        <rect id="path-8" x="0" y="0" width="34.7356892" height="35.2000008" rx="17.3678446"></rect>
        <rect id="path-9" x="0" y="0" width="34.7356892" height="35.2000008" rx="17.3678446"></rect>
        <rect id="path-10" x="0" y="0" width="34.7356892" height="35.2000008" rx="17.3678446"></rect>
        <rect id="path-11" x="0" y="0" width="34.7356892" height="35.2000008" rx="17.3678446"></rect>
        <rect id="path-12" x="0" y="0" width="34.7356892" height="35.2000008" rx="17.3678446"></rect>
        <rect id="path-13" x="0" y="0" width="34.7356892" height="35.2000008" rx="17.3678446"></rect>
    </defs>
    <g id="Page-1" stroke="none" stroke-width="1" fill="none" fill-rule="evenodd">
        <g id="Artboard-Copy-4">
            <g id="Group" transform="translate(80.000000, 76.000000)">
                <path d="M438.208731,53.3687903 L742.500016,204.390418" id="Line-2-Copy-21" stroke="#C3C3C3" stroke-width="2.20000005"></path>
                <path d="M134.200003,205.700004 L438.208731,53.3687903" id="Line-2-Copy-26" stroke="#424649" stroke-width="2.20000005"></path>
                <path d="M438.90001,52.0592038 L437.800009,203.080831 L438.90001,52.0592038 Z" id="Line-2-Copy-22" stroke="#424649" stroke-width="2.20000005" stroke-linecap="square"></path>
                <path d="M118.800003,239.800005 L199.499574,390.854246" id="Line-2-Copy-9" stroke="#424649" stroke-width="2.20000005" stroke-linecap="square"></path>
                <path d="M119.199572,239.800005 L38.5000008,390.854246 L119.199572,239.800005 Z" id="Line-2-Copy-10" stroke="#424649" stroke-width="2.20000005" stroke-linecap="square"></path>
                <path d="M119.100399,240.900005 L118.800003,391.954246 L119.100399,240.900005 Z" id="Line-2-Copy-13" stroke="#424649" stroke-width="2.20000005" stroke-linecap="square"></path>
                <path d="M438.90001,239.800005 L519.599581,390.854246" id="Line-2-Copy-18" stroke="#FF333A" stroke-width="2.20000005" opacity="0.300000012"></path>
                <path d="M439.299579,239.800005 L358.600008,390.854246 L439.299579,239.800005 Z" id="Line-2-Copy-19" stroke="#424649" stroke-width="2.20000005" stroke-linecap="square"></path>
                <path d="M439.200406,240.900005 L438.90001,391.954246" id="Line-2-Copy-20" stroke="#FF333A" stroke-width="2.20000005" opacity="0.300000012"></path>
                <path d="M759.000016,239.800005 L839.699587,390.854246" id="Line-2-Copy-23" stroke="#C3C3C3" stroke-width="2.20000005" stroke-linecap="square"></path>
                <path d="M759.399586,239.800005 L678.700015,390.854246 L759.399586,239.800005 Z" id="Line-2-Copy-24" stroke="#C3C3C3" stroke-width="2.20000005" stroke-linecap="square"></path>
                <path d="M759.300413,240.900005 L759.000016,391.954246 L759.300413,240.900005 Z" id="Line-2-Copy-25" stroke="#C3C3C3" stroke-width="2.20000005" stroke-linecap="square"></path>
                <g id="Group-14-Copy-19" transform="translate(421.300009, 16.500000)" stroke-linecap="square">
                    <g id="Rectangle-31-Copy-2">
                        <use fill="#FFFFFF" fill-rule="evenodd" xlink:href="#path-1"></use>
                        <rect stroke="#424649" stroke-width="2.20000005" x="-1.10000002" y="-1.10000002" width="36.9356892" height="37.4000008" rx="18.4678446"></rect>
                    </g>
                </g>
                <g id="Group-14-Copy-20" transform="translate(421.300009, 204.600004)">
                    <g id="Rectangle-31-Copy-2" stroke-linecap="square">
                        <use fill="#FFCC00" fill-rule="evenodd" xlink:href="#path-2"></use>
                        <rect stroke="#424649" stroke-width="2.20000005" x="-1.10000002" y="-1.10000002" width="36.9356892" height="37.4000008" rx="2.20000005"></rect>
                    </g>
                    <path d="M12.8473522,23.4019996 L18.2527523,18.0955995 C18.6883545,17.6731973 19.034851,17.2475016 19.2922523,16.8184994 C19.5496536,16.3894973 19.6783523,15.8978022 19.6783523,15.3433994 C19.6783523,14.6833961 19.4638545,14.1587013 19.0348523,13.7692994 C18.6058501,13.3798974 18.0745554,13.1851993 17.4409523,13.1851993 C16.7677489,13.1851993 16.2265543,13.4128971 15.8173522,13.8682994 C15.4081502,14.3237016 15.1573527,14.894596 15.0649522,15.5809994 L12.7483522,15.2245994 C12.8143525,14.6437965 12.9793508,14.1092018 13.2433522,13.6207994 C13.5073535,13.1323969 13.8439501,12.7100011 14.2531522,12.3535993 C14.6623542,11.9971975 15.1408495,11.7167003 15.6886522,11.5120993 C16.236455,11.3074983 16.833749,11.2051993 17.4805523,11.2051993 C18.0877553,11.2051993 18.6718495,11.2909984 19.2328523,11.4625993 C19.7938551,11.6342002 20.2921501,11.8948976 20.7277523,12.2446993 C21.1633545,12.5945011 21.5098511,13.0234968 21.7672524,13.5316994 C22.0246537,14.0399019 22.1533524,14.630596 22.1533524,15.3037994 C22.1533524,15.7526016 22.093953,16.1716975 21.9751524,16.5610994 C21.8563518,16.9505014 21.6946534,17.3167977 21.4900524,17.6599994 C21.2854513,18.0032012 21.0478537,18.3298979 20.7772523,18.6400995 C20.506651,18.950301 20.2129539,19.250598 19.8961523,19.5409995 L15.8569522,23.4019996 L22.1731524,23.4019996 L22.1731524,25.5799996 L12.8473522,25.5799996 L12.8473522,23.4019996 Z" id="2" fill="#424649"></path>
                </g>
                <g id="Group-14-Copy-21" transform="translate(741.400016, 204.600004)" stroke-linecap="square">
                    <g id="Rectangle-31-Copy-2">
                        <use fill="#FFFFFF" fill-rule="evenodd" xlink:href="#path-3"></use>
                        <rect stroke="#C3C3C3" stroke-width="2.20000005" x="-1.10000002" y="-1.10000002" width="36.9356892" height="37.4000008" rx="2.20000005"></rect>
                    </g>
                </g>
                <g id="Group-14-Copy-22" transform="translate(740.300016, 387.200008)">
                    <g id="Rectangle-31-Copy-2" stroke-linecap="square">
                        <use fill="#FFFFFF" fill-rule="evenodd" xlink:href="#path-4"></use>
                        <rect stroke="#C3C3C3" stroke-width="2.20000005" x="-1.10000002" y="-1.10000002" width="36.9356892" height="37.4000008" rx="18.4678446"></rect>
                    </g>
                    <path d="M21.4801524,13.6999994 L15.7579522,13.6999994 L15.6193522,16.7293994 C15.8437534,16.6633991 16.1110507,16.6171996 16.4212522,16.5907994 C16.7314538,16.5643993 17.011951,16.5511994 17.2627523,16.5511994 C17.9491557,16.5511994 18.5860494,16.6501984 19.1734523,16.8481994 C19.7608553,17.0462004 20.2723501,17.3332976 20.7079523,17.7094994 C21.1435545,18.0857013 21.4834511,18.5476967 21.7276524,19.0954995 C21.9718536,19.6433022 22.0939524,20.2735959 22.0939524,20.9863995 C22.0939524,21.7652034 21.9586537,22.4614965 21.6880524,23.0752996 C21.417451,23.6891026 21.0511547,24.2071975 20.5891523,24.6295996 C20.12715,25.0520017 19.5859554,25.3753985 18.9655523,25.5997996 C18.3451492,25.8242007 17.6851558,25.9363996 16.9855523,25.9363996 C15.8107464,25.9363996 14.8207562,25.6625024 14.0155522,25.1146996 C13.2103481,24.5668969 12.622954,23.8178043 12.2533522,22.8673996 L14.4115522,22.0753995 C14.6095532,22.6298023 14.9395499,23.0752979 15.4015522,23.4118996 C15.8635545,23.7485013 16.4113491,23.9167996 17.0449523,23.9167996 C17.401354,23.9167996 17.7379507,23.8574002 18.0547523,23.7385996 C18.3715539,23.619799 18.6487511,23.4482007 18.8863523,23.2237996 C19.1239535,22.9993984 19.3120516,22.7189012 19.4506523,22.3822995 C19.589253,22.0456979 19.6585523,21.6662016 19.6585523,21.2437995 C19.6585523,20.7025968 19.5661532,20.2538013 19.3813523,19.8973995 C19.1965514,19.5409977 18.9556538,19.2539006 18.6586523,19.0360995 C18.3616508,18.8182984 18.0283541,18.6664999 17.6587523,18.5806995 C17.2891504,18.494899 16.9129542,18.4519995 16.5301522,18.4519995 C16.2661509,18.4519995 15.9856537,18.4717993 15.6886522,18.5113995 C15.3916507,18.5509997 15.1012536,18.6070991 14.8174522,18.6796995 C14.5336508,18.7522998 14.2564535,18.834799 13.9858522,18.9271995 C13.7152508,19.0195999 13.4743532,19.1185989 13.2631522,19.2241995 L13.5007522,11.5615993 L21.4801524,11.5615993 L21.4801524,13.6999994 Z" id="5" fill="#919191"></path>
                </g>
                <g id="Group-14-Copy-23" transform="translate(828.300018, 387.200008)">
                    <g id="Rectangle-31-Copy-2" stroke-linecap="square">
                        <use fill="#FFFFFF" fill-rule="evenodd" xlink:href="#path-5"></use>
                        <rect stroke="#C3C3C3" stroke-width="2.20000005" x="-1.10000002" y="-1.10000002" width="36.9356892" height="37.4000008" rx="18.4678446"></rect>
                    </g>
                    <path d="M12.8473522,23.4019996 L18.2527523,18.0955995 C18.6883545,17.6731973 19.034851,17.2475016 19.2922523,16.8184994 C19.5496536,16.3894973 19.6783523,15.8978022 19.6783523,15.3433994 C19.6783523,14.6833961 19.4638545,14.1587013 19.0348523,13.7692994 C18.6058501,13.3798974 18.0745554,13.1851993 17.4409523,13.1851993 C16.7677489,13.1851993 16.2265543,13.4128971 15.8173522,13.8682994 C15.4081502,14.3237016 15.1573527,14.894596 15.0649522,15.5809994 L12.7483522,15.2245994 C12.8143525,14.6437965 12.9793508,14.1092018 13.2433522,13.6207994 C13.5073535,13.1323969 13.8439501,12.7100011 14.2531522,12.3535993 C14.6623542,11.9971975 15.1408495,11.7167003 15.6886522,11.5120993 C16.236455,11.3074983 16.833749,11.2051993 17.4805523,11.2051993 C18.0877553,11.2051993 18.6718495,11.2909984 19.2328523,11.4625993 C19.7938551,11.6342002 20.2921501,11.8948976 20.7277523,12.2446993 C21.1633545,12.5945011 21.5098511,13.0234968 21.7672524,13.5316994 C22.0246537,14.0399019 22.1533524,14.630596 22.1533524,15.3037994 C22.1533524,15.7526016 22.093953,16.1716975 21.9751524,16.5610994 C21.8563518,16.9505014 21.6946534,17.3167977 21.4900524,17.6599994 C21.2854513,18.0032012 21.0478537,18.3298979 20.7772523,18.6400995 C20.506651,18.950301 20.2129539,19.250598 19.8961523,19.5409995 L15.8569522,23.4019996 L22.1731524,23.4019996 L22.1731524,25.5799996 L12.8473522,25.5799996 L12.8473522,23.4019996 Z" id="2" fill="#919191"></path>
                </g>
                <g id="Group-14-Copy-24" transform="translate(652.300014, 387.200008)">
                    <g id="Rectangle-31-Copy-2" stroke-linecap="square">
                        <use fill="#FFFFFF" fill-rule="evenodd" xlink:href="#path-6"></use>
                        <rect stroke="#C3C3C3" stroke-width="2.20000005" x="-1.10000002" y="-1.10000002" width="36.9356892" height="37.4000008" rx="18.4678446"></rect>
                    </g>
                    <path d="M11.1186598,14.4523994 L8.34665975,16.7293994 L6.96065972,15.0859994 L11.3364598,11.5615993 L13.4946599,11.5615993 L13.4946599,25.5799996 L11.1186598,25.5799996 L11.1186598,14.4523994 Z M24.2582447,22.6693996 L17.7836446,22.6693996 L17.7836446,20.5705995 L23.7434447,11.5615993 L26.5946448,11.5615993 L26.5946448,20.6299995 L28.5548448,20.6299995 L28.5548448,22.6693996 L26.5946448,22.6693996 L26.5946448,25.5799996 L24.2582447,25.5799996 L24.2582447,22.6693996 Z M24.2582447,14.3533994 L24.2186447,14.3533994 L20.2388446,20.6299995 L24.2582447,20.6299995 L24.2582447,14.3533994 Z" id="14" fill="#919191"></path>
                </g>
                <g id="Group-14-Copy-25" transform="translate(102.300002, 204.600004)" stroke-linecap="square">
                    <g id="Rectangle-31-Copy-2">
                        <use fill="#FFFFFF" fill-rule="evenodd" xlink:href="#path-7"></use>
                        <rect stroke="#424649" stroke-width="2.20000005" x="-1.10000002" y="-1.10000002" width="36.9356892" height="37.4000008" rx="2.20000005"></rect>
                    </g>
                </g>
                <g id="Group-14-Copy-26" transform="translate(102.300002, 387.200008)">
                    <g id="Rectangle-31-Copy-2" stroke-linecap="square">
                        <use fill="#FFFFFF" fill-rule="evenodd" xlink:href="#path-8"></use>
                        <rect stroke="#424649" stroke-width="2.20000005" x="-1.10000002" y="-1.10000002" width="36.9356892" height="37.4000008" rx="18.4678446"></rect>
                    </g>
                    <path d="M11.1186598,14.4523994 L8.34665975,16.7293994 L6.96065972,15.0859994 L11.3364598,11.5615993 L13.4946599,11.5615993 L13.4946599,25.5799996 L11.1186598,25.5799996 L11.1186598,14.4523994 Z M18.7340446,23.4019996 L24.1394447,18.0955995 C24.5750469,17.6731973 24.9215435,17.2475016 25.1789447,16.8184994 C25.436346,16.3894973 25.5650448,15.8978022 25.5650448,15.3433994 C25.5650448,14.6833961 25.3505469,14.1587013 24.9215447,13.7692994 C24.4925426,13.3798974 23.9612479,13.1851993 23.3276447,13.1851993 C22.6544413,13.1851993 22.1132467,13.4128971 21.7040447,13.8682994 C21.2948426,14.3237016 21.0440451,14.894596 20.9516447,15.5809994 L18.6350446,15.2245994 C18.7010449,14.6437965 18.8660433,14.1092018 19.1300446,13.6207994 C19.3940459,13.1323969 19.7306426,12.7100011 20.1398446,12.3535993 C20.5490467,11.9971975 21.0275419,11.7167003 21.5753447,11.5120993 C22.1231474,11.3074983 22.7204415,11.2051993 23.3672447,11.2051993 C23.9744478,11.2051993 24.5585419,11.2909984 25.1195447,11.4625993 C25.6805476,11.6342002 26.1788426,11.8948976 26.6144448,12.2446993 C27.050047,12.5945011 27.3965435,13.0234968 27.6539448,13.5316994 C27.9113461,14.0399019 28.0400448,14.630596 28.0400448,15.3037994 C28.0400448,15.7526016 27.9806454,16.1716975 27.8618448,16.5610994 C27.7430442,16.9505014 27.5813458,17.3167977 27.3767448,17.6599994 C27.1721438,18.0032012 26.9345461,18.3298979 26.6639448,18.6400995 C26.3933434,18.950301 26.0996464,19.250598 25.7828448,19.5409995 L21.7436447,23.4019996 L28.0598448,23.4019996 L28.0598448,25.5799996 L18.7340446,25.5799996 L18.7340446,23.4019996 Z" id="12" fill="#424649"></path>
                </g>
                <g id="Group-14-Copy-27" transform="translate(190.300004, 387.200008)">
                    <g id="Rectangle-31-Copy-2" stroke-linecap="square">
                        <use fill="#FFFFFF" fill-rule="evenodd" xlink:href="#path-9"></use>
                        <rect stroke="#424649" stroke-width="2.20000005" x="-1.10000002" y="-1.10000002" width="36.9356892" height="37.4000008" rx="18.4678446"></rect>
                    </g>
                    <path d="M17.5201523,11.2051993 C18.1273553,11.2051993 18.7015496,11.2909984 19.2427523,11.4625993 C19.783955,11.6342002 20.2558503,11.8849977 20.6584523,12.2149993 C21.0610544,12.545001 21.3778512,12.944297 21.6088524,13.4128994 C21.8398535,13.8815017 21.9553524,14.4127964 21.9553524,15.0067994 C21.9553524,15.8252035 21.7507544,16.5049967 21.3415523,17.0461994 C20.9323503,17.5874021 20.4109555,17.9635984 19.7773523,18.1747995 L19.7773523,18.2143995 C20.1469542,18.3067999 20.4901507,18.4552984 20.8069523,18.6598995 C21.1237539,18.8645005 21.4009512,19.115298 21.6385524,19.4122995 C21.8761535,19.709301 22.0642517,20.0425976 22.2028524,20.4121995 C22.3414531,20.7818014 22.4107524,21.1843973 22.4107524,21.6199995 C22.4107524,22.319603 22.2820537,22.9366969 22.0246524,23.4712996 C21.7672511,24.0059023 21.4174546,24.4579977 20.9752523,24.8275996 C20.5330501,25.1972015 20.0149553,25.4743987 19.4209523,25.6591996 C18.8269493,25.8440005 18.1933556,25.9363996 17.5201523,25.9363996 C16.8469489,25.9363996 16.2133552,25.8440005 15.6193522,25.6591996 C15.0253492,25.4743987 14.5072544,25.1972015 14.0650522,24.8275996 C13.62285,24.4579977 13.2730535,24.0059023 13.0156522,23.4712996 C12.7582509,22.9366969 12.6295522,22.319603 12.6295522,21.6199995 C12.6295522,21.1711973 12.7021514,20.7554014 12.8473522,20.3725995 C12.9925529,19.9897976 13.187251,19.6532009 13.4314522,19.3627995 C13.6756534,19.072398 13.9561506,18.8315004 14.2729522,18.6400995 C14.5897538,18.4486985 14.9197505,18.3067999 15.2629522,18.2143995 L15.2629522,18.1747995 C14.629349,17.9503983 14.1079542,17.5874019 13.6987522,17.0857994 C13.2895501,16.5841969 13.0849522,15.9242035 13.0849522,15.1057994 C13.0849522,14.5117964 13.200451,13.9739018 13.4314522,13.4920994 C13.6624533,13.0102969 13.9792502,12.601101 14.3818522,12.2644993 C14.7844542,11.9278976 15.2530495,11.6672002 15.7876522,11.4823993 C16.3222549,11.2975984 16.8997492,11.2051993 17.5201523,11.2051993 Z M17.5201523,13.1653993 C16.9261493,13.1653993 16.4410541,13.3435976 16.0648522,13.6999994 C15.6886503,14.0564011 15.5005522,14.5381963 15.5005522,15.1453994 C15.5005522,15.7130022 15.6820504,16.1947974 16.0450522,16.5907994 C16.4080541,16.9868014 16.8997492,17.1847994 17.5201523,17.1847994 C17.7973537,17.1847994 18.061351,17.132 18.3121523,17.0263994 C18.5629535,16.9207989 18.7807514,16.7756003 18.9655523,16.5907994 C19.1503532,16.4059985 19.2955518,16.1882007 19.4011523,15.9373994 C19.5067528,15.6865981 19.5595523,15.4226008 19.5595523,15.1453994 C19.5595523,14.8417979 19.5034529,14.5679006 19.3912523,14.3236994 C19.2790517,14.0794981 19.1272533,13.8716002 18.9358523,13.6999994 C18.7444513,13.5283985 18.5266535,13.3963998 18.2824523,13.3039993 C18.0382511,13.2115989 17.7841536,13.1653993 17.5201523,13.1653993 Z M17.5201523,19.2043995 C17.1769505,19.2043995 16.8568537,19.2637989 16.5598522,19.3825995 C16.2628508,19.5014001 16.0054533,19.6630985 15.7876522,19.8676995 C15.5698511,20.0723005 15.3982528,20.323098 15.2728522,20.6200995 C15.1474516,20.917101 15.0847522,21.2437977 15.0847522,21.6001995 C15.0847522,22.3394032 15.3157499,22.9135975 15.7777522,23.3227996 C16.2397545,23.7320016 16.8205488,23.9365996 17.5201523,23.9365996 C18.2065557,23.9365996 18.78075,23.7320016 19.2427523,23.3227996 C19.7047546,22.9135975 19.9357523,22.3394032 19.9357523,21.6001995 C19.9357523,21.2569978 19.8730529,20.936901 19.7476523,20.6398995 C19.6222517,20.342898 19.4506534,20.0888006 19.2328523,19.8775995 C19.0150512,19.6663984 18.7576538,19.5014001 18.4606523,19.3825995 C18.1636508,19.2637989 17.8501539,19.2043995 17.5201523,19.2043995 Z" id="8" fill="#424649"></path>
                </g>
                <g id="Group-14-Copy-28" transform="translate(14.300000, 387.200008)">
                    <g id="Rectangle-31-Copy-2" stroke-linecap="square">
                        <use fill="#FFFFFF" fill-rule="evenodd" xlink:href="#path-10"></use>
                        <rect stroke="#424649" stroke-width="2.20000005" x="-1.10000002" y="-1.10000002" width="36.9356892" height="37.4000008" rx="18.4678446"></rect>
                    </g>
                    <path d="M15.6787522,17.3233994 L16.3123522,17.3233994 C16.668754,17.3233994 17.0218505,17.2936997 17.3716523,17.2342994 C17.721454,17.1748991 18.0415508,17.0660002 18.3319523,16.9075994 C18.6223537,16.7491986 18.8566514,16.5347008 19.0348523,16.2640994 C19.2130532,15.9934981 19.3021523,15.6404016 19.3021523,15.2047994 C19.3021523,14.8879978 19.2427529,14.6042006 19.1239523,14.3533994 C19.0051517,14.1025981 18.8434533,13.8914002 18.6388523,13.7197994 C18.4342513,13.5481985 18.1966536,13.4161998 17.9260523,13.3237993 C17.6554509,13.2313989 17.3749537,13.1851993 17.0845523,13.1851993 C16.5037493,13.1851993 16.0219541,13.3501977 15.6391522,13.6801994 C15.2563503,14.010201 14.9923529,14.4457967 14.8471522,14.9869994 L12.6097522,14.4127994 C12.7285528,13.937597 12.9298507,13.5053013 13.2136522,13.1158993 C13.4974536,12.7264974 13.8406502,12.3899007 14.2432522,12.1060993 C14.6458542,11.8222979 15.0979497,11.6012001 15.5995522,11.4427993 C16.1011547,11.2843985 16.6291495,11.2051993 17.1835523,11.2051993 C17.7907553,11.2051993 18.3682495,11.2876985 18.9160523,11.4526993 C19.463855,11.6177001 19.9456502,11.8618977 20.3614523,12.1852993 C20.7772544,12.5087009 21.1039512,12.907997 21.3415523,13.3831993 C21.5791535,13.8584017 21.6979524,14.4127962 21.6979524,15.0463994 C21.6979524,15.7988032 21.4702546,16.4686965 21.0148523,17.0560994 C20.5594501,17.6435024 19.9489561,18.0295985 19.1833523,18.2143995 L19.1833523,18.2539995 C20.0413566,18.4256003 20.7376497,18.8116965 21.2722523,19.4122995 C21.806855,20.0129025 22.0741524,20.7487952 22.0741524,21.6199995 C22.0741524,22.3460032 21.9322538,22.9795969 21.6484524,23.5207996 C21.3646509,24.0620023 20.9884547,24.5107978 20.5198523,24.8671996 C20.05125,25.2236014 19.5265552,25.4908987 18.9457523,25.6690996 C18.3649494,25.8473005 17.7775552,25.9363996 17.1835523,25.9363996 C16.5895493,25.9363996 16.0285549,25.8737002 15.5005522,25.7482996 C14.9725496,25.622899 14.4874544,25.4282009 14.0452522,25.1641996 C13.60305,24.9001983 13.2136539,24.5570017 12.8770522,24.1345996 C12.5404505,23.7121975 12.2797531,23.2106025 12.0949521,22.6297995 L14.3125522,21.9367995 C14.4841531,22.4912023 14.8042499,22.9597976 15.2728522,23.3425996 C15.7414546,23.7254015 16.3519485,23.9167996 17.1043523,23.9167996 C17.4079538,23.9167996 17.7148507,23.8739 18.0250523,23.7880996 C18.3352538,23.7022991 18.6124511,23.5670005 18.8566523,23.3821996 C19.1008535,23.1973986 19.2988515,22.959801 19.4506523,22.6693996 C19.6024531,22.3789981 19.6783523,22.0226016 19.6783523,21.6001995 C19.6783523,21.1513973 19.5694534,20.7719011 19.3516523,20.4616995 C19.1338512,20.1514979 18.8599539,19.9073004 18.5299523,19.7290995 C18.1999506,19.5508986 17.8336543,19.4221999 17.4310523,19.3429995 C17.0284502,19.2637991 16.6423541,19.2241995 16.2727522,19.2241995 L15.6787522,19.2241995 L15.6787522,17.3233994 Z" id="3" fill="#424649"></path>
                </g>
                <g id="Group-14-Copy-29" transform="translate(421.300009, 387.200008)">
                    <g id="Rectangle-31-Copy-2" stroke-linecap="square">
                        <use fill="#FFFFFF" fill-rule="evenodd" xlink:href="#path-11"></use>
                        <rect stroke="#FF333A" stroke-width="2.20000005" x="-1.10000002" y="-1.10000002" width="36.9356892" height="37.4000008" rx="18.4678446"></rect>
                    </g>
                    <path d="M18.3715523,22.6693996 L11.8969521,22.6693996 L11.8969521,20.5705995 L17.8567523,11.5615993 L20.7079523,11.5615993 L20.7079523,20.6299995 L22.6681524,20.6299995 L22.6681524,22.6693996 L20.7079523,22.6693996 L20.7079523,25.5799996 L18.3715523,25.5799996 L18.3715523,22.6693996 Z M18.3715523,14.3533994 L18.3319523,14.3533994 L14.3521522,20.6299995 L18.3715523,20.6299995 L18.3715523,14.3533994 Z" id="4" fill="#FF333A"></path>
                </g>
                <g id="Group-14-Copy-30" transform="translate(509.300011, 387.200008)">
                    <g id="Rectangle-31-Copy-2" stroke-linecap="square">
                        <use fill="#FFFFFF" fill-rule="evenodd" xlink:href="#path-12"></use>
                        <rect stroke="#FF333A" stroke-width="2.20000005" x="-1.10000002" y="-1.10000002" width="36.9356892" height="37.4000008" rx="18.4678446"></rect>
                    </g>
                    <path d="M20.2129523,11.5615993 L16.6291522,16.7491994 L16.6489522,16.7689994 C16.8337532,16.689799 17.0680508,16.6303996 17.3518523,16.5907994 C17.6356537,16.5511992 17.8963511,16.5313994 18.1339523,16.5313994 C18.7543554,16.5313994 19.3351496,16.6468983 19.8763523,16.8778994 C20.417555,17.1089006 20.8927503,17.4256974 21.3019523,17.8282994 C21.7111544,18.2309015 22.0312512,18.7060967 22.2622524,19.2538995 C22.4932535,19.8017022 22.6087524,20.3923963 22.6087524,21.0259995 C22.6087524,21.7652032 22.4767537,22.4383965 22.2127524,23.0455996 C21.948751,23.6528026 21.5890546,24.1708974 21.1336523,24.5998996 C20.6782501,25.0289017 20.1370555,25.3588985 19.5100523,25.5898996 C18.8830492,25.8209008 18.2131558,25.9363996 17.5003523,25.9363996 C16.7611486,25.9363996 16.0813553,25.8143008 15.4609522,25.5700996 C14.8405491,25.3258984 14.2993545,24.9860018 13.8373522,24.5503996 C13.3753499,24.1147974 13.0156535,23.6033025 12.7582522,23.0158996 C12.5008509,22.4284966 12.3721522,21.7982029 12.3721522,21.1249995 C12.3721522,20.7289975 12.4051518,20.3561012 12.4711522,20.0062995 C12.5371525,19.6564977 12.6328515,19.3199011 12.7582522,18.9964995 C12.8836528,18.6730978 13.0354513,18.3464011 13.2136522,18.0163994 C13.3918531,17.6863978 13.5931511,17.3432012 13.8175522,16.9867994 L17.3221523,11.5615993 L20.2129523,11.5615993 Z M14.7877522,21.1843995 C14.7877522,21.5540014 14.8504516,21.9037979 14.9758522,22.2337995 C15.1012528,22.5638012 15.282751,22.8541983 15.5203522,23.1049996 C15.7579534,23.3558008 16.0417506,23.5537988 16.3717522,23.6989996 C16.7017539,23.8442003 17.0713502,23.9167996 17.4805523,23.9167996 C18.2857563,23.9167996 18.9358498,23.6627021 19.4308523,23.1544996 C19.9258548,22.646297 20.1733523,21.9764037 20.1733523,21.1447995 C20.1733523,20.7487975 20.1106529,20.3825012 19.9852523,20.0458995 C19.8598517,19.7092978 19.6783535,19.4222007 19.4407523,19.1845995 C19.2031511,18.9469983 18.9226539,18.7589002 18.5992523,18.6202995 C18.2758507,18.4816988 17.9161543,18.4123995 17.5201523,18.4123995 C17.1241503,18.4123995 16.7578539,18.4783988 16.4212522,18.6103995 C16.0846506,18.7424001 15.7942534,18.9304982 15.5500522,19.1746995 C15.305851,19.4189007 15.1177529,19.7125978 14.9857522,20.0557995 C14.8537515,20.3990012 14.7877522,20.7751975 14.7877522,21.1843995 Z" id="6" fill="#FF333A"></path>
                </g>
                <g id="Group-14-Copy-31" transform="translate(333.300007, 387.200008)">
                    <g id="Rectangle-31-Copy-2" stroke-linecap="square">
                        <use fill="#FFFFFF" fill-rule="evenodd" xlink:href="#path-13"></use>
                        <rect stroke="#424649" stroke-width="2.20000005" x="-1.10000002" y="-1.10000002" width="36.9356892" height="37.4000008" rx="18.4678446"></rect>
                    </g>
                    <path d="M12.8473522,23.4019996 L18.2527523,18.0955995 C18.6883545,17.6731973 19.034851,17.2475016 19.2922523,16.8184994 C19.5496536,16.3894973 19.6783523,15.8978022 19.6783523,15.3433994 C19.6783523,14.6833961 19.4638545,14.1587013 19.0348523,13.7692994 C18.6058501,13.3798974 18.0745554,13.1851993 17.4409523,13.1851993 C16.7677489,13.1851993 16.2265543,13.4128971 15.8173522,13.8682994 C15.4081502,14.3237016 15.1573527,14.894596 15.0649522,15.5809994 L12.7483522,15.2245994 C12.8143525,14.6437965 12.9793508,14.1092018 13.2433522,13.6207994 C13.5073535,13.1323969 13.8439501,12.7100011 14.2531522,12.3535993 C14.6623542,11.9971975 15.1408495,11.7167003 15.6886522,11.5120993 C16.236455,11.3074983 16.833749,11.2051993 17.4805523,11.2051993 C18.0877553,11.2051993 18.6718495,11.2909984 19.2328523,11.4625993 C19.7938551,11.6342002 20.2921501,11.8948976 20.7277523,12.2446993 C21.1633545,12.5945011 21.5098511,13.0234968 21.7672524,13.5316994 C22.0246537,14.0399019 22.1533524,14.630596 22.1533524,15.3037994 C22.1533524,15.7526016 22.093953,16.1716975 21.9751524,16.5610994 C21.8563518,16.9505014 21.6946534,17.3167977 21.4900524,17.6599994 C21.2854513,18.0032012 21.0478537,18.3298979 20.7772523,18.6400995 C20.506651,18.950301 20.2129539,19.250598 19.8961523,19.5409995 L15.8569522,23.4019996 L22.1731524,23.4019996 L22.1731524,25.5799996 L12.8473522,25.5799996 L12.8473522,23.4019996 Z" id="2" fill="#424649"></path>
                </g>
                <polygon id="X-Copy-38" fill="#424649" transform="translate(439.017271, 324.617269) rotate(-315.000000) translate(-439.017271, -324.617269) " points="437.085453 335.617269 437.085453 326.490334 428.017271 326.490334 428.017271 322.676092 437.085453 322.676092 437.085453 313.617269 440.94909 313.617269 440.94909 322.676092 450.017272 322.676092 450.017272 326.490334 440.94909 326.490334 440.94909 335.617269 438.341922 335.617269"></polygon>
                <polygon id="X-Copy-39" fill="#424649" transform="translate(479.717272, 324.617269) rotate(-315.000000) translate(-479.717272, -324.617269) " points="477.785454 335.617269 477.785454 326.490334 468.717272 326.490334 468.717272 322.676092 477.785454 322.676092 477.785454 313.617269 481.649091 313.617269 481.649091 322.676092 490.717273 322.676092 490.717273 326.490334 481.649091 326.490334 481.649091 335.617269 479.041923 335.617269"></polygon>
                <text id="α=3-β=1000-v=3" font-family="AvenirNext-Medium, Avenir Next" font-size="15.4000003" font-weight="400" line-spacing="19.8000004" letter-spacing="-0.236923068" fill="#424649">
                    <tspan x="330.000007" y="15">α=3</tspan>
                    <tspan x="330.000007" y="34.8000004">β=1000</tspan>
                    <tspan x="330.000007" y="54.6000009">v=3</tspan>
                </text>
                <text id="α=3-β=1000-v=2-copy" font-family="AvenirNext-Medium, Avenir Next" font-size="15.4000003" font-weight="400" line-spacing="19.8000004" letter-spacing="-0.236923068" fill="#424649">
                    <tspan x="330.000007" y="207.500004">α=3</tspan>
                    <tspan x="330.000007" y="227.300005">β=1000</tspan>
                    <tspan x="330.000007" y="247.100005">v=2</tspan>
                </text>
                <text id="α=-1000-β=3-v=3-copy" font-family="AvenirNext-Medium, Avenir Next" font-size="15.4000003" font-weight="400" line-spacing="19.8000004" letter-spacing="-0.236923068" fill="#424649">
                    <tspan x="0" y="207.500004">α=-1000</tspan>
                    <tspan x="0" y="227.300005">β=3</tspan>
                    <tspan x="0" y="247.100005">v=3</tspan>
                </text>
            </g>
        </g>
    </g>
</svg>