<?xml version="1.0" encoding="UTF-8"?>
<svg width="1024px" height="683px" viewBox="0 0 1024 683" version="1.1" xmlns="http://www.w3.org/2000/svg" xmlns:xlink="http://www.w3.org/1999/xlink">
    <!-- Generator: Sketch 45.1 (43504) - http://www.bohemiancoding.com/sketch -->
    <title>Artboard Copy@1x</title>
    <desc>Created with Sketch.</desc>
    <defs></defs>
    <g id="Page-1" stroke="none" stroke-width="1" fill="none" fill-rule="evenodd">
        <g id="Artboard-Copy">
            <g id="Group" transform="translate(52.000000, 99.000000)">
                <circle id="Oval" fill="#F4F4F4" cx="242.956931" cy="242.956931" r="242.811419"></circle>
                <path d="M192.538398,47.7075997 L195.023598,47.7075997 L201.977597,63.8499995 L198.694398,63.8499995 L197.189598,60.1563995 L190.189998,60.1563995 L188.730798,63.8499995 L185.515998,63.8499995 L192.538398,47.7075997 Z M196.186398,57.6939996 L193.701198,51.1275996 L191.170398,57.6939996 L196.186398,57.6939996 Z M226.799197,63.0063995 C225.978393,63.4016015 225.077802,63.7093984 224.097397,63.9297995 C223.116992,64.1502006 221.988404,64.2603995 220.711597,64.2603995 C219.404391,64.2603995 218.211203,64.0514016 217.131997,63.6333995 C216.052792,63.2153974 215.125601,62.6302033 214.350397,61.8777995 C213.575193,61.1253958 212.970999,60.2286047 212.537797,59.1873995 C212.104595,58.1461944 211.887997,56.9948059 211.887997,55.7331996 C211.887997,54.4411931 212.112195,53.2746048 212.560597,52.2333996 C213.009,51.1921944 213.624593,50.3068033 214.407397,49.5771997 C215.190201,48.847596 216.113592,48.2852017 217.177597,47.8899997 C218.241603,47.4947977 219.396791,47.2971997 220.643197,47.2971997 C221.935204,47.2971997 223.116992,47.4833978 224.188597,47.8557997 C225.260203,48.2282015 226.122794,48.7183966 226.776397,49.3263997 L224.792797,51.4695996 C224.382395,51.0135974 223.808601,50.6260012 223.071397,50.3067997 C222.334194,49.9875981 221.532402,49.8279997 220.665997,49.8279997 C219.814793,49.8279997 219.043401,49.9799981 218.351797,50.2839997 C217.660194,50.5880012 217.0712,51.005997 216.584797,51.5379996 C216.098395,52.0700023 215.722199,52.6931961 215.456197,53.4075996 C215.190196,54.1220032 215.057197,54.8971954 215.057197,55.7331996 C215.057197,56.5996039 215.190196,57.393796 215.456197,58.1157996 C215.722199,58.8378032 216.102195,59.4647969 216.596197,59.9967995 C217.0902,60.5288022 217.690594,60.942998 218.397397,61.2393995 C219.104201,61.535801 219.905993,61.6839995 220.802797,61.6839995 C222.034003,61.6839995 223.105593,61.4940014 224.017597,61.1139995 L224.017597,57.0099996 L220.620397,57.0099996 L220.620397,54.6387996 L226.799197,54.6387996 L226.799197,63.0063995 Z M239.787597,47.7075997 L250.480797,47.7075997 L250.480797,50.2155997 L242.660397,50.2155997 L242.660397,54.3195996 L250.070397,54.3195996 L250.070397,56.7363996 L242.660397,56.7363996 L242.660397,61.2963995 L250.891197,61.2963995 L250.891197,63.8499995 L239.787597,63.8499995 L239.787597,47.7075997 Z M263.195597,47.7075997 L267.003197,47.7075997 L274.504397,59.7915995 L274.549997,59.7915995 L274.549997,47.7075997 L277.422797,47.7075997 L277.422797,63.8499995 L273.774797,63.8499995 L266.113997,51.3783996 L266.068397,51.3783996 L266.068397,63.8499995 L263.195597,63.8499995 L263.195597,47.7075997 Z M293.739996,50.2155997 L288.792396,50.2155997 L288.792396,47.7075997 L301.560396,47.7075997 L301.560396,50.2155997 L296.612796,50.2155997 L296.612796,63.8499995 L293.739996,63.8499995 L293.739996,50.2155997 Z" id="AGENT" fill="#424649"></path>
                <rect id="Rectangle-2" fill="#FFD633" x="635.549992" y="81.699999" width="284.999996" height="322.999996" rx="9.49999988"></rect>
                <path d="M712.397391,234.857597 L723.090591,234.857597 L723.090591,237.365597 L715.270191,237.365597 L715.270191,241.469597 L722.680191,241.469597 L722.680191,243.886397 L715.270191,243.886397 L715.270191,248.446397 L723.500991,248.446397 L723.500991,250.999997 L712.397391,250.999997 L712.397391,234.857597 Z M726.168591,240.055997 L728.767791,240.055997 L728.767791,241.811597 L728.813391,241.811597 C729.056592,241.264395 729.478388,240.781799 730.078791,240.363797 C730.679194,239.945795 731.389787,239.736797 732.210591,239.736797 C732.924994,239.736797 733.536788,239.862196 734.045991,240.112997 C734.555193,240.363799 734.973189,240.694395 735.299991,241.104797 C735.626792,241.515199 735.86619,241.986395 736.018191,242.518397 C736.170192,243.0504 736.246191,243.597594 736.246191,244.159997 L736.246191,250.999997 L733.510191,250.999997 L733.510191,244.935197 C733.510191,244.615996 733.487391,244.281599 733.441791,243.931997 C733.396191,243.582395 733.297392,243.266999 733.145391,242.985797 C732.99339,242.704596 732.784392,242.472798 732.518391,242.290397 C732.252389,242.107996 731.898993,242.016797 731.458191,242.016797 C731.017389,242.016797 730.637392,242.104196 730.318191,242.278997 C729.998989,242.453798 729.736792,242.677996 729.531591,242.951597 C729.32639,243.225199 729.170591,243.540595 729.064191,243.897797 C728.95779,244.254999 728.904591,244.615995 728.904591,244.980797 L728.904591,250.999997 L726.168591,250.999997 L726.168591,240.055997 Z M737.796591,240.055997 L740.783391,240.055997 L743.656191,248.035997 L743.701791,248.035997 L746.597391,240.055997 L749.492991,240.055997 L745.138191,250.999997 L742.219791,250.999997 L737.796591,240.055997 Z M751.180191,240.055997 L753.916191,240.055997 L753.916191,250.999997 L751.180191,250.999997 L751.180191,240.055997 Z M750.792591,236.339597 C750.792591,235.898795 750.955989,235.514999 751.282791,235.188197 C751.609592,234.861396 752.023788,234.697997 752.525391,234.697997 C753.026993,234.697997 753.448789,234.853796 753.790791,235.165397 C754.132792,235.476999 754.303791,235.868395 754.303791,236.339597 C754.303791,236.8108 754.132792,237.202196 753.790791,237.513797 C753.448789,237.825399 753.026993,237.981197 752.525391,237.981197 C752.023788,237.981197 751.609592,237.817799 751.282791,237.490997 C750.955989,237.164196 750.792591,236.7804 750.792591,236.339597 Z M757.24499,240.055997 L759.86699,240.055997 L759.86699,241.879997 L759.91259,241.879997 C760.216592,241.241594 760.642188,240.724799 761.18939,240.329597 C761.736593,239.934395 762.374987,239.736797 763.10459,239.736797 C763.210991,239.736797 763.32499,239.740597 763.44659,239.748197 C763.568191,239.755797 763.67459,239.774797 763.76579,239.805197 L763.76579,242.313197 C763.58339,242.267597 763.427591,242.237197 763.29839,242.221997 C763.16919,242.206797 763.043791,242.199197 762.92219,242.199197 C762.298987,242.199197 761.797392,242.313196 761.41739,242.541197 C761.037389,242.769198 760.740992,243.042796 760.52819,243.361997 C760.315389,243.681199 760.170991,244.007996 760.09499,244.342397 C760.01899,244.676799 759.98099,244.942796 759.98099,245.140397 L759.98099,250.999997 L757.24499,250.999997 L757.24499,240.055997 Z M764.90579,245.482397 C764.90579,244.615993 765.061589,243.829401 765.37319,243.122597 C765.684792,242.415794 766.106588,241.8116 766.63859,241.309997 C767.170593,240.808395 767.801387,240.420799 768.53099,240.147197 C769.260594,239.873596 770.035786,239.736797 770.85659,239.736797 C771.677394,239.736797 772.452587,239.873596 773.18219,240.147197 C773.911794,240.420799 774.542588,240.808395 775.07459,241.309997 C775.606593,241.8116 776.028389,242.415794 776.33999,243.122597 C776.651592,243.829401 776.80739,244.615993 776.80739,245.482397 C776.80739,246.348802 776.651592,247.139194 776.33999,247.853597 C776.028389,248.568001 775.606593,249.179795 775.07459,249.688997 C774.542588,250.1982 773.911794,250.597196 773.18219,250.885997 C772.452587,251.174799 771.677394,251.319197 770.85659,251.319197 C770.035786,251.319197 769.260594,251.174799 768.53099,250.885997 C767.801387,250.597196 767.170593,250.1982 766.63859,249.688997 C766.106588,249.179795 765.684792,248.568001 765.37319,247.853597 C765.061589,247.139194 764.90579,246.348802 764.90579,245.482397 Z M767.68739,245.482397 C767.68739,245.907999 767.75199,246.333595 767.88119,246.759197 C768.010391,247.184799 768.204189,247.564796 768.46259,247.899197 C768.720992,248.233599 769.047788,248.507196 769.44299,248.719997 C769.838192,248.932798 770.309388,249.039197 770.85659,249.039197 C771.403793,249.039197 771.874988,248.932798 772.27019,248.719997 C772.665392,248.507196 772.992189,248.233599 773.25059,247.899197 C773.508992,247.564796 773.70279,247.184799 773.83199,246.759197 C773.961191,246.333595 774.02579,245.907999 774.02579,245.482397 C774.02579,245.056795 773.961191,244.634999 773.83199,244.216997 C773.70279,243.798995 773.508992,243.422799 773.25059,243.088397 C772.992189,242.753996 772.665392,242.484198 772.27019,242.278997 C771.874988,242.073796 771.403793,241.971197 770.85659,241.971197 C770.309388,241.971197 769.838192,242.073796 769.44299,242.278997 C769.047788,242.484198 768.720992,242.753996 768.46259,243.088397 C768.204189,243.422799 768.010391,243.798995 767.88119,244.216997 C767.75199,244.634999 767.68739,245.056795 767.68739,245.482397 Z M779.45219,240.055997 L782.05139,240.055997 L782.05139,241.811597 L782.09699,241.811597 C782.340191,241.264395 782.761987,240.781799 783.36239,240.363797 C783.962793,239.945795 784.673386,239.736797 785.49419,239.736797 C786.208594,239.736797 786.820388,239.862196 787.32959,240.112997 C787.838793,240.363799 788.256788,240.694395 788.58359,241.104797 C788.910392,241.515199 789.149789,241.986395 789.30179,242.518397 C789.453791,243.0504 789.52979,243.597594 789.52979,244.159997 L789.52979,250.999997 L786.79379,250.999997 L786.79379,244.935197 C786.79379,244.615996 786.77099,244.281599 786.72539,243.931997 C786.67979,243.582395 786.580991,243.266999 786.42899,242.985797 C786.276989,242.704596 786.067991,242.472798 785.80199,242.290397 C785.535989,242.107996 785.182592,242.016797 784.74179,242.016797 C784.300988,242.016797 783.920992,242.104196 783.60179,242.278997 C783.282589,242.453798 783.020391,242.677996 782.81519,242.951597 C782.609989,243.225199 782.454191,243.540595 782.34779,243.897797 C782.24139,244.254999 782.18819,244.615995 782.18819,244.980797 L782.18819,250.999997 L779.45219,250.999997 L779.45219,240.055997 Z M805.78619,239.736797 C806.500593,239.736797 807.112387,239.862196 807.62159,240.112997 C808.130792,240.363799 808.548788,240.694395 808.87559,241.104797 C809.202391,241.515199 809.441789,241.986395 809.59379,242.518397 C809.745791,243.0504 809.82179,243.597594 809.82179,244.159997 L809.82179,250.999997 L807.08579,250.999997 L807.08579,244.935197 C807.08579,244.615996 807.06299,244.281599 807.01739,243.931997 C806.97179,243.582395 806.872991,243.266999 806.72099,242.985797 C806.568989,242.704596 806.359991,242.472798 806.09399,242.290397 C805.827989,242.107996 805.474592,242.016797 805.03379,242.016797 C804.608188,242.016797 804.243391,242.107996 803.93939,242.290397 C803.635388,242.472798 803.384591,242.708396 803.18699,242.997197 C802.989389,243.285999 802.84499,243.608995 802.75379,243.966197 C802.662589,244.323399 802.61699,244.676795 802.61699,245.026397 L802.61699,250.999997 L799.88099,250.999997 L799.88099,244.387997 C799.88099,243.703994 799.717592,243.137799 799.39079,242.689397 C799.063988,242.240995 798.550993,242.016797 797.85179,242.016797 C797.441388,242.016797 797.084192,242.104196 796.78019,242.278997 C796.476188,242.453798 796.229191,242.677996 796.03919,242.951597 C795.849189,243.225199 795.704791,243.540595 795.60599,243.897797 C795.50719,244.254999 795.45779,244.615995 795.45779,244.980797 L795.45779,250.999997 L792.72179,250.999997 L792.72179,240.055997 L795.32099,240.055997 L795.32099,241.811597 L795.36659,241.811597 C795.488191,241.537996 795.651589,241.279598 795.85679,241.036397 C796.061991,240.793196 796.305189,240.572798 796.58639,240.375197 C796.867591,240.177596 797.190588,240.021798 797.55539,239.907797 C797.920192,239.793797 798.322988,239.736797 798.76379,239.736797 C799.614994,239.736797 800.321787,239.926795 800.88419,240.306797 C801.446593,240.686799 801.879788,241.188394 802.18379,241.811597 C802.548592,241.142794 803.034987,240.629799 803.64299,240.272597 C804.250993,239.915395 804.965386,239.736797 805.78619,239.736797 Z M820.72019,244.433597 C820.72019,244.083995 820.67079,243.749599 820.57199,243.430397 C820.473189,243.111196 820.317391,242.829998 820.10459,242.586797 C819.891789,242.343596 819.621991,242.149798 819.29519,242.005397 C818.968388,241.860997 818.584592,241.788797 818.14379,241.788797 C817.322986,241.788797 816.627593,242.035795 816.05759,242.529797 C815.487587,243.0238 815.17219,243.658393 815.11139,244.433597 L820.72019,244.433597 Z M823.45619,245.664797 L823.45619,246.029597 C823.45619,246.151198 823.44859,246.272797 823.43339,246.394397 L815.11139,246.394397 C815.14179,246.789599 815.244389,247.150596 815.41919,247.477397 C815.593991,247.804199 815.825788,248.085396 816.11459,248.320997 C816.403391,248.556598 816.730188,248.742796 817.09499,248.879597 C817.459792,249.016398 817.839788,249.084797 818.23499,249.084797 C818.918993,249.084797 819.496587,248.959398 819.96779,248.708597 C820.438992,248.457796 820.826588,248.111999 821.13059,247.671197 L822.95459,249.130397 C821.875384,250.589604 820.3098,251.319197 818.25779,251.319197 C817.406585,251.319197 816.623793,251.186198 815.90939,250.920197 C815.194986,250.654196 814.575592,250.278 814.05119,249.791597 C813.526787,249.305195 813.116391,248.708601 812.81999,248.001797 C812.523588,247.294994 812.37539,246.493202 812.37539,245.596397 C812.37539,244.714793 812.523588,243.913001 812.81999,243.190997 C813.116391,242.468994 813.522987,241.8534 814.03979,241.344197 C814.556592,240.834995 815.168386,240.439799 815.87519,240.158597 C816.581993,239.877396 817.345786,239.736797 818.16659,239.736797 C818.926594,239.736797 819.629586,239.862196 820.27559,240.112997 C820.921593,240.363799 821.480187,240.736195 821.95139,241.230197 C822.422592,241.7242 822.791188,242.339794 823.05719,243.076997 C823.323191,243.814201 823.45619,244.676792 823.45619,245.664797 Z M826.10099,240.055997 L828.70019,240.055997 L828.70019,241.811597 L828.74579,241.811597 C828.988991,241.264395 829.410787,240.781799 830.01119,240.363797 C830.611593,239.945795 831.322185,239.736797 832.14299,239.736797 C832.857393,239.736797 833.469187,239.862196 833.97839,240.112997 C834.487592,240.363799 834.905588,240.694395 835.23239,241.104797 C835.559191,241.515199 835.798589,241.986395 835.95059,242.518397 C836.10259,243.0504 836.17859,243.597594 836.17859,244.159997 L836.17859,250.999997 L833.44259,250.999997 L833.44259,244.935197 C833.44259,244.615996 833.41979,244.281599 833.37419,243.931997 C833.328589,243.582395 833.22979,243.266999 833.07779,242.985797 C832.925789,242.704596 832.716791,242.472798 832.45079,242.290397 C832.184788,242.107996 831.831392,242.016797 831.39059,242.016797 C830.949787,242.016797 830.569791,242.104196 830.25059,242.278997 C829.931388,242.453798 829.669191,242.677996 829.46399,242.951597 C829.258789,243.225199 829.10299,243.540595 828.99659,243.897797 C828.890189,244.254999 828.83699,244.615995 828.83699,244.980797 L828.83699,250.999997 L826.10099,250.999997 L826.10099,240.055997 Z M837.797389,242.244797 L837.797389,240.055997 L839.712589,240.055997 L839.712589,236.886797 L842.402989,236.886797 L842.402989,240.055997 L845.138989,240.055997 L845.138989,242.244797 L842.402989,242.244797 L842.402989,247.329197 C842.402989,247.8156 842.490389,248.218396 842.665189,248.537597 C842.83999,248.856799 843.231386,249.016397 843.839389,249.016397 C844.02179,249.016397 844.219388,248.997397 844.432189,248.959397 C844.64499,248.921397 844.834989,248.864398 845.002189,248.788397 L845.093389,250.931597 C844.850188,251.022798 844.561391,251.094997 844.226989,251.148197 C843.892588,251.201397 843.573391,251.227997 843.269389,251.227997 C842.539786,251.227997 841.946992,251.125398 841.490989,250.920197 C841.034987,250.714996 840.673991,250.433799 840.407989,250.076597 C840.141988,249.719395 839.95959,249.308999 839.860789,248.845397 C839.761989,248.381795 839.712589,247.884 839.712589,247.351997 L839.712589,242.244797 L837.797389,242.244797 Z" id="Environment" fill="#424649"></path>
                <g id="Group-16" transform="translate(125.399998, 100.699999)">
                    <rect id="Rectangle-3" stroke="#424649" stroke-width="2.84999996" stroke-linecap="square" x="0" y="0" width="235.599997" height="54.1499993"></rect>
                    <path d="M50.0383994,21.632 C49.7343979,21.236798 49.3050022,20.9062014 48.7501994,20.6402 C48.1953966,20.3741987 47.6368022,20.2412 47.0743994,20.2412 C46.7399977,20.2412 46.4056011,20.2829996 46.0711994,20.3666 C45.7367978,20.4502004 45.4328008,20.5793992 45.1591994,20.7542 C44.8855981,20.9290009 44.6614003,21.1569986 44.4865994,21.4382 C44.3117986,21.7194014 44.2243994,22.057598 44.2243994,22.4528 C44.2243994,22.8176018 44.3003987,23.1291987 44.4523994,23.3876 C44.6044002,23.6460013 44.8133981,23.8663991 45.0793994,24.0488 C45.3454008,24.2312009 45.6683975,24.3907993 46.0483994,24.5276 C46.4284013,24.6644007 46.8463971,24.8011993 47.3023994,24.938 C47.819202,25.1052008 48.3549966,25.2951989 48.9097994,25.508 C49.4646022,25.720801 49.9737971,26.0019982 50.4373994,26.3516 C50.9010017,26.7012017 51.2809979,27.1419973 51.5773994,27.6739999 C51.8738008,28.2060026 52.0219993,28.867196 52.0219993,29.6575999 C52.0219993,30.5240042 51.8624009,31.2801967 51.5431994,31.9261999 C51.2239978,32.5722031 50.798402,33.1079977 50.2663994,33.5335999 C49.7343967,33.959202 49.111203,34.2783988 48.3967994,34.4911999 C47.6823958,34.7040009 46.9300034,34.8103999 46.1395994,34.8103999 C45.0907942,34.8103999 44.0648045,34.6166018 43.0615995,34.2289999 C42.0583945,33.8413979 41.2376027,33.2676037 40.5991995,32.5075999 L42.6511995,30.5923999 C43.0464014,31.1396026 43.5745961,31.5727983 44.2357994,31.8919999 C44.8970027,32.2112015 45.5467962,32.3707999 46.1851994,32.3707999 C46.5196011,32.3707999 46.8615977,32.3290003 47.2111994,32.2453999 C47.5608012,32.1617995 47.876198,32.0212009 48.1573994,31.8235999 C48.4386008,31.6259989 48.6665985,31.3790014 48.8413994,31.0825999 C49.0162003,30.7861984 49.1035994,30.4176021 49.1035994,29.9767999 C49.1035994,29.5511978 49.0048004,29.1978013 48.8071994,28.9165999 C48.6095984,28.6353985 48.3436011,28.392201 48.0091994,28.1869999 C47.6747977,27.9817989 47.2796017,27.8032007 46.8235994,27.6511999 L45.3871994,27.1723999 C44.900797,27.0203992 44.4144019,26.838001 43.9279994,26.6252 C43.441597,26.4123989 43.0046014,26.1312017 42.6169995,25.7816 C42.2293975,25.4319982 41.9140007,25.0026025 41.6707995,24.4934 C41.4275983,23.9841974 41.3059995,23.3496038 41.3059995,22.5896 C41.3059995,21.7687959 41.4769978,21.062003 41.8189995,20.4692 C42.1610012,19.8763971 42.6093967,19.386202 43.1641995,18.9986001 C43.7190022,18.6109981 44.3497959,18.322201 45.0565994,18.1322001 C45.763403,17.9421991 46.4815958,17.8472001 47.2111994,17.8472001 C48.0320035,17.8472001 48.8641952,17.9915986 49.7077994,18.2804001 C50.5514036,18.5692015 51.2847962,19.0023972 51.9079993,19.58 L50.0383994,21.632 Z M53.1847993,25.6448 L53.1847993,23.456 L55.0999993,23.456 L55.0999993,20.2868 L57.7903993,20.2868 L57.7903993,23.456 L60.5263992,23.456 L60.5263992,25.6448 L57.7903993,25.6448 L57.7903993,30.7291999 C57.7903993,31.2156023 57.8777984,31.6183983 58.0525993,31.9375999 C58.2274001,32.2568015 58.6187962,32.4163999 59.2267993,32.4163999 C59.4092002,32.4163999 59.6067982,32.3974001 59.8195992,32.3593999 C60.0324003,32.3213997 60.2223984,32.2644003 60.3895992,32.1883999 L60.4807992,34.3315999 C60.237598,34.4228003 59.9488009,34.4949996 59.6143993,34.5481999 C59.2799976,34.6014001 58.9608008,34.6279999 58.6567993,34.6279999 C57.9271956,34.6279999 57.3344016,34.5254009 56.8783993,34.3201999 C56.422397,34.1149988 56.0614006,33.8338017 55.7953993,33.4765999 C55.529398,33.1193981 55.3469998,32.7090022 55.2481993,32.2453999 C55.1493988,31.7817976 55.0999993,31.2840026 55.0999993,30.7519999 L55.0999993,25.6448 L53.1847993,25.6448 Z M69.3043991,33.0091999 L69.2359991,33.0091999 C68.9623978,33.4956023 68.5216022,33.8945983 67.9135991,34.2061999 C67.3055961,34.5178014 66.614003,34.6735999 65.8387992,34.6735999 C65.397997,34.6735999 64.9382016,34.6166004 64.4593992,34.5025999 C63.9805968,34.3885993 63.5398012,34.1986012 63.1369992,33.9325999 C62.7341972,33.6665985 62.3998005,33.317002 62.1337992,32.8837999 C61.8677979,32.4505977 61.7347992,31.9148031 61.7347992,31.2763999 C61.7347992,30.4555958 61.9665969,29.8020023 62.4301992,29.3155999 C62.8938015,28.8291975 63.4903956,28.4568012 64.2199992,28.1983999 C64.9496028,27.9399986 65.7589947,27.7690004 66.6481992,27.6853999 C67.5374036,27.6017995 68.4075949,27.5599999 69.2587991,27.5599999 L69.2587991,27.2863999 C69.2587991,26.6023965 69.0118016,26.0970016 68.5177991,25.7702 C68.0237967,25.4433983 67.4348026,25.28 66.7507992,25.28 C66.1731963,25.28 65.6184018,25.4015988 65.0863992,25.6448 C64.5543965,25.8880012 64.1136009,26.1843982 63.7639992,26.534 L62.3503992,24.8696 C62.9736023,24.2919971 63.6917951,23.8588014 64.5049992,23.57 C65.3182032,23.2811986 66.142795,23.1368 66.9787992,23.1368 C67.951604,23.1368 68.753396,23.2735986 69.3841991,23.5472 C70.0150023,23.8208014 70.5127973,24.1779978 70.8775991,24.6188 C71.2424009,25.0596022 71.4969984,25.5535972 71.6413991,26.1008 C71.7857998,26.6480027 71.8579991,27.1951972 71.8579991,27.7423999 L71.8579991,34.3999999 L69.3043991,34.3999999 L69.3043991,33.0091999 Z M69.2587991,29.4067999 L68.6431991,29.4067999 C68.2023969,29.4067999 67.7388016,29.4257997 67.2523992,29.4637999 C66.7659967,29.5018001 66.3176012,29.5853993 65.9071992,29.7145999 C65.4967971,29.8438006 65.1548006,30.0261987 64.8811992,30.2617999 C64.6075978,30.4974011 64.4707992,30.8203978 64.4707992,31.2307999 C64.4707992,31.4892012 64.5277986,31.705799 64.6417992,31.8805999 C64.7557998,32.0554008 64.9039983,32.1959994 65.0863992,32.3023999 C65.2688001,32.4088004 65.473998,32.4847997 65.7019992,32.5303999 C65.9300003,32.5760001 66.157998,32.5987999 66.3859992,32.5987999 C67.3284039,32.5987999 68.0427967,32.3480024 68.5291991,31.8463999 C69.0156016,31.3447974 69.2587991,30.6608042 69.2587991,29.7943999 L69.2587991,29.4067999 Z M73.4767991,25.6448 L73.4767991,23.456 L75.3919991,23.456 L75.3919991,20.2868 L78.082399,20.2868 L78.082399,23.456 L80.818399,23.456 L80.818399,25.6448 L78.082399,25.6448 L78.082399,30.7291999 C78.082399,31.2156023 78.1697981,31.6183983 78.344599,31.9375999 C78.5193999,32.2568015 78.910796,32.4163999 79.518799,32.4163999 C79.7011999,32.4163999 79.8987979,32.3974001 80.111599,32.3593999 C80.3244001,32.3213997 80.5143982,32.2644003 80.681599,32.1883999 L80.772799,34.3315999 C80.5295978,34.4228003 80.2408007,34.4949996 79.906399,34.5481999 C79.5719973,34.6014001 79.2528005,34.6279999 78.948799,34.6279999 C78.2191954,34.6279999 77.6264013,34.5254009 77.170399,34.3201999 C76.7143968,34.1149988 76.3534004,33.8338017 76.087399,33.4765999 C75.8213977,33.1193981 75.6389995,32.7090022 75.5401991,32.2453999 C75.4413986,31.7817976 75.3919991,31.2840026 75.3919991,30.7519999 L75.3919991,25.6448 L73.4767991,25.6448 Z M90.5083989,27.8335999 C90.5083989,27.4839982 90.4589994,27.1496015 90.3601989,26.8304 C90.2613984,26.5111984 90.1055999,26.2300012 89.8927989,25.9868 C89.6799978,25.7435987 89.4102005,25.5498007 89.0833989,25.4054 C88.7565973,25.2609992 88.3728011,25.1888 87.9319989,25.1888 C87.1111948,25.1888 86.4158018,25.4357975 85.8457989,25.9298 C85.2757961,26.4238024 84.9603992,27.0583961 84.8995989,27.8335999 L90.5083989,27.8335999 Z M93.2443988,29.0647999 L93.2443988,29.4295999 C93.2443988,29.5512005 93.2367989,29.6727993 93.2215988,29.7943999 L84.8995989,29.7943999 C84.9299991,30.1896019 85.0325981,30.5505983 85.2073989,30.8773999 C85.3821998,31.2042015 85.6139975,31.4853987 85.9027989,31.7209999 C86.1916004,31.9566011 86.5183971,32.1427992 86.8831989,32.2795999 C87.2480007,32.4164006 87.6279969,32.4847999 88.0231989,32.4847999 C88.7072023,32.4847999 89.2847965,32.3594011 89.7559989,32.1085999 C90.2272012,31.8577986 90.6147973,31.5120021 90.9187989,31.0711999 L92.7427988,32.5303999 C91.6635935,33.9896072 90.0980091,34.7191999 88.0459989,34.7191999 C87.1947946,34.7191999 86.4120025,34.5862012 85.6975989,34.3201999 C84.9831954,34.0541985 84.3638016,33.6780023 83.8393989,33.1915999 C83.3149963,32.7051974 82.9046004,32.1086034 82.608199,31.4017999 C82.3117975,30.6949964 82.163599,29.8932044 82.163599,28.9963999 C82.163599,28.1147955 82.3117975,27.3130036 82.608199,26.591 C82.9046004,25.8689964 83.3111964,25.2534025 83.8279989,24.7442 C84.3448015,24.2349974 84.9565954,23.8398014 85.6633989,23.5586 C86.3702025,23.2773986 87.1339948,23.1368 87.9547989,23.1368 C88.7148027,23.1368 89.4177956,23.2621987 90.0637989,23.513 C90.7098021,23.7638012 91.2683965,24.1361975 91.7395988,24.6302 C92.2108012,25.1242024 92.5793975,25.7397963 92.8453988,26.477 C93.1114002,27.2142036 93.2443988,28.076795 93.2443988,29.0647999 Z M101.634799,35.4943998 L99.7423987,34.8103999 L106.855999,17.1176001 L108.748399,17.8472001 L101.634799,35.4943998 Z M116.295199,18.2576001 L121.903998,18.2576001 C122.664002,18.2576001 123.401195,18.3373993 124.115598,18.4970001 C124.830002,18.6566009 125.464596,18.9187982 126.019398,19.2836 C126.574201,19.6484019 127.018797,20.1271971 127.353198,20.72 C127.6876,21.312803 127.854798,22.0347958 127.854798,22.886 C127.854798,24.0564058 127.524202,25.0101963 126.862998,25.7474 C126.201795,26.4846036 125.301204,26.9823987 124.161198,27.2407999 L128.470398,34.3999999 L125.004798,34.3999999 L121.265598,27.5599999 L119.167999,27.5599999 L119.167999,34.3999999 L116.295199,34.3999999 L116.295199,18.2576001 Z M121.516398,25.2116 C121.926801,25.2116 122.337196,25.1812003 122.747598,25.1204 C123.158001,25.0595997 123.526597,24.9456008 123.853398,24.7784 C124.1802,24.6111991 124.449997,24.3718015 124.662798,24.0602 C124.875599,23.7485984 124.981998,23.3496024 124.981998,22.8632 C124.981998,22.4223978 124.883199,22.0614014 124.685598,21.7802 C124.487997,21.4989986 124.2372,21.2748009 123.933198,21.1076 C123.629197,20.9403992 123.2834,20.8264003 122.895798,20.7656 C122.508197,20.7047997 122.132,20.6744 121.767198,20.6744 L119.167999,20.6744 L119.167999,25.2116 L121.516398,25.2116 Z M138.205998,27.8335999 C138.205998,27.4839982 138.156599,27.1496015 138.057798,26.8304 C137.958998,26.5111984 137.803199,26.2300012 137.590398,25.9868 C137.377597,25.7435987 137.1078,25.5498007 136.780998,25.4054 C136.454197,25.2609992 136.0704,25.1888 135.629598,25.1888 C134.808794,25.1888 134.113401,25.4357975 133.543398,25.9298 C132.973395,26.4238024 132.657999,27.0583961 132.597198,27.8335999 L138.205998,27.8335999 Z M140.941998,29.0647999 L140.941998,29.4295999 C140.941998,29.5512005 140.934398,29.6727993 140.919198,29.7943999 L132.597198,29.7943999 C132.627598,30.1896019 132.730197,30.5505983 132.904998,30.8773999 C133.079799,31.2042015 133.311597,31.4853987 133.600398,31.7209999 C133.8892,31.9566011 134.215996,32.1427992 134.580798,32.2795999 C134.9456,32.4164006 135.325596,32.4847999 135.720798,32.4847999 C136.404802,32.4847999 136.982396,32.3594011 137.453598,32.1085999 C137.924801,31.8577986 138.312397,31.5120021 138.616398,31.0711999 L140.440398,32.5303999 C139.361193,33.9896072 137.795609,34.7191999 135.743598,34.7191999 C134.892394,34.7191999 134.109602,34.5862012 133.395198,34.3201999 C132.680795,34.0541985 132.061401,33.6780023 131.536998,33.1915999 C131.012596,32.7051974 130.6022,32.1086034 130.305798,31.4017999 C130.009397,30.6949964 129.861198,29.8932044 129.861198,28.9963999 C129.861198,28.1147955 130.009397,27.3130036 130.305798,26.591 C130.6022,25.8689964 131.008796,25.2534025 131.525598,24.7442 C132.042401,24.2349974 132.654195,23.8398014 133.360998,23.5586 C134.067802,23.2773986 134.831594,23.1368 135.652398,23.1368 C136.412402,23.1368 137.115395,23.2621987 137.761398,23.513 C138.407401,23.7638012 138.965996,24.1361975 139.437198,24.6302 C139.908401,25.1242024 140.276997,25.7397963 140.542998,26.477 C140.809,27.2142036 140.941998,28.076795 140.941998,29.0647999 Z M142.036398,23.456 L145.000398,23.456 L147.280398,31.2991999 L147.325998,31.2991999 L149.674398,23.456 L152.592798,23.456 L154.963998,31.2991999 L155.009598,31.2991999 L157.335198,23.456 L160.185198,23.456 L156.400398,34.3999999 L153.618798,34.3999999 L151.133598,26.7392 L151.087998,26.7392 L148.625598,34.3999999 L145.843998,34.3999999 L142.036398,23.456 Z M168.712398,33.0091999 L168.643998,33.0091999 C168.370397,33.4956023 167.929601,33.8945983 167.321598,34.2061999 C166.713595,34.5178014 166.022002,34.6735999 165.246798,34.6735999 C164.805996,34.6735999 164.3462,34.6166004 163.867398,34.5025999 C163.388596,34.3885993 162.9478,34.1986012 162.544998,33.9325999 C162.142196,33.6665985 161.807799,33.317002 161.541798,32.8837999 C161.275797,32.4505977 161.142798,31.9148031 161.142798,31.2763999 C161.142798,30.4555958 161.374596,29.8020023 161.838198,29.3155999 C162.3018,28.8291975 162.898394,28.4568012 163.627998,28.1983999 C164.357602,27.9399986 165.166993,27.7690004 166.056198,27.6853999 C166.945402,27.6017995 167.815594,27.5599999 168.666798,27.5599999 L168.666798,27.2863999 C168.666798,26.6023965 168.4198,26.0970016 167.925798,25.7702 C167.431795,25.4433983 166.842801,25.28 166.158798,25.28 C165.581195,25.28 165.026401,25.4015988 164.494398,25.6448 C163.962395,25.8880012 163.5216,26.1843982 163.171998,26.534 L161.758398,24.8696 C162.381601,24.2919971 163.099794,23.8588014 163.912998,23.57 C164.726202,23.2811986 165.550794,23.1368 166.386798,23.1368 C167.359603,23.1368 168.161395,23.2735986 168.792198,23.5472 C169.423001,23.8208014 169.920796,24.1779978 170.285598,24.6188 C170.6504,25.0596022 170.904997,25.5535972 171.049398,26.1008 C171.193799,26.6480027 171.265998,27.1951972 171.265998,27.7423999 L171.265998,34.3999999 L168.712398,34.3999999 L168.712398,33.0091999 Z M168.666798,29.4067999 L168.051198,29.4067999 C167.610396,29.4067999 167.1468,29.4257997 166.660398,29.4637999 C166.173995,29.5018001 165.7256,29.5853993 165.315198,29.7145999 C164.904796,29.8438006 164.562799,30.0261987 164.289198,30.2617999 C164.015597,30.4974011 163.878798,30.8203978 163.878798,31.2307999 C163.878798,31.4892012 163.935797,31.705799 164.049798,31.8805999 C164.163799,32.0554008 164.311997,32.1959994 164.494398,32.3023999 C164.676799,32.4088004 164.881997,32.4847997 165.109998,32.5303999 C165.337999,32.5760001 165.565997,32.5987999 165.793998,32.5987999 C166.736403,32.5987999 167.450795,32.3480024 167.937198,31.8463999 C168.4236,31.3447974 168.666798,30.6608042 168.666798,29.7943999 L168.666798,29.4067999 Z M174.457998,23.456 L177.079998,23.456 L177.079998,25.28 L177.125598,25.28 C177.429599,24.6415968 177.855195,24.124802 178.402398,23.7296 C178.9496,23.334398 179.587994,23.1368 180.317598,23.1368 C180.423998,23.1368 180.537997,23.1406 180.659598,23.1482 C180.781198,23.1558 180.887597,23.1747998 180.978798,23.2052 L180.978798,25.7132 C180.796397,25.6675997 180.640598,25.6372 180.511398,25.622 C180.382197,25.6067999 180.256798,25.5992 180.135198,25.5992 C179.511995,25.5992 179.0104,25.7131988 178.630398,25.9412 C178.250396,26.1692011 177.953999,26.4427984 177.741198,26.762 C177.528397,27.0812015 177.383998,27.4079983 177.307998,27.7423999 C177.231997,28.0768016 177.193998,28.3427989 177.193998,28.5403999 L177.193998,34.3999999 L174.457998,34.3999999 L174.457998,23.456 Z M193.883598,34.3999999 L191.284398,34.3999999 L191.284398,32.7583999 L191.238798,32.7583999 C190.858796,33.3968031 190.330601,33.8831982 189.654198,34.2175999 C188.977794,34.5520015 188.252002,34.7191999 187.476798,34.7191999 C186.640793,34.7191999 185.892201,34.5634014 185.230998,34.2517999 C184.569794,33.9401983 184.0074,33.5222025 183.543798,32.9977999 C183.080195,32.4733973 182.722999,31.8578034 182.472198,31.1509999 C182.221396,30.4441964 182.095998,29.6880039 182.095998,28.8823999 C182.095998,28.0767959 182.225196,27.3244034 182.483598,26.6252 C182.741999,25.9259965 183.106795,25.3180026 183.577998,24.8012 C184.0492,24.2843974 184.611594,23.8778015 185.265198,23.5814 C185.918801,23.2849985 186.633194,23.1368 187.408398,23.1368 C187.91,23.1368 188.358396,23.1937994 188.753598,23.3078 C189.1488,23.4218006 189.494596,23.5623992 189.790998,23.7296 C190.087399,23.8968008 190.341997,24.079199 190.554798,24.2768 C190.767599,24.474401 190.942397,24.6643991 191.079198,24.8468 L191.147598,24.8468 L191.147598,17.1632001 L193.883598,17.1632001 L193.883598,34.3999999 Z M184.877598,28.8823999 C184.877598,29.308002 184.942197,29.7335978 185.071398,30.1591999 C185.200598,30.584802 185.394396,30.9647982 185.652798,31.2991999 C185.911199,31.6336016 186.237996,31.9071988 186.633198,32.1199999 C187.0284,32.3328009 187.491995,32.4391999 188.023998,32.4391999 C188.5256,32.4391999 188.973996,32.3366009 189.369198,32.1313999 C189.7644,31.9261989 190.102596,31.6564016 190.383798,31.3219999 C190.664999,30.9875982 190.877797,30.611402 191.022198,30.1933999 C191.166598,29.7753978 191.238798,29.353602 191.238798,28.9279999 C191.238798,28.5023978 191.166598,28.0768021 191.022198,27.6511999 C190.877797,27.2255978 190.664999,26.8456016 190.383798,26.5112 C190.102596,26.1767983 189.7644,25.903201 189.369198,25.6904 C188.973996,25.4775989 188.5256,25.3712 188.023998,25.3712 C187.491995,25.3712 187.0284,25.4737989 186.633198,25.679 C186.237996,25.884201 185.911199,26.1539983 185.652798,26.4884 C185.394396,26.8228016 185.200598,27.1989979 185.071398,27.6169999 C184.942197,28.035002 184.877598,28.4567978 184.877598,28.8823999 Z" id="State-/-Reward" fill="#424649"></path>
                </g>
                <g id="Group-17" transform="translate(125.399998, 183.349998)">
                    <rect id="Rectangle-3-Copy" stroke="#424649" stroke-width="2.84999996" stroke-linecap="square" x="0" y="0" width="235.599997" height="120.649998"></rect>
                    <path d="M80.723399,19.2076 L85.2149989,19.2076 L89.4101989,30.6759999 L89.4785989,30.6759999 L93.6281988,19.2076 L98.1425988,19.2076 L98.1425988,35.3499998 L95.2925988,35.3499998 L95.2925988,22.3768 L95.2469988,22.3768 L90.3449989,35.3499998 L88.3385989,35.3499998 L83.504999,22.3768 L83.459399,22.3768 L83.459399,35.3499998 L80.723399,35.3499998 L80.723399,19.2076 Z M100.924199,29.8323999 C100.924199,28.9659956 101.079997,28.1794035 101.391599,27.4725999 C101.7032,26.7657964 102.124996,26.1616025 102.656999,25.66 C103.189001,25.1583975 103.819795,24.7708013 104.549399,24.4972 C105.279002,24.2235986 106.054195,24.0868 106.874999,24.0868 C107.695803,24.0868 108.470995,24.2235986 109.200599,24.4972 C109.930202,24.7708013 110.560996,25.1583975 111.092999,25.66 C111.625001,26.1616025 112.046797,26.7657964 112.358399,27.4725999 C112.67,28.1794035 112.825799,28.9659956 112.825799,29.8323999 C112.825799,30.6988042 112.67,31.4891963 112.358399,32.2035999 C112.046797,32.9180034 111.625001,33.5297973 111.092999,34.0389999 C110.560996,34.5482024 109.930202,34.9471984 109.200599,35.2359998 C108.470995,35.5248013 107.695803,35.6691998 106.874999,35.6691998 C106.054195,35.6691998 105.279002,35.5248013 104.549399,35.2359998 C103.819795,34.9471984 103.189001,34.5482024 102.656999,34.0389999 C102.124996,33.5297973 101.7032,32.9180034 101.391599,32.2035999 C101.079997,31.4891963 100.924199,30.6988042 100.924199,29.8323999 Z M103.705799,29.8323999 C103.705799,30.258002 103.770398,30.6835978 103.899599,31.1091999 C104.028799,31.534802 104.222597,31.9147982 104.480999,32.2491999 C104.7394,32.5836016 105.066197,32.8571988 105.461399,33.0699999 C105.856601,33.2828009 106.327796,33.3891999 106.874999,33.3891999 C107.422201,33.3891999 107.893397,33.2828009 108.288599,33.0699999 C108.683801,32.8571988 109.010597,32.5836016 109.268999,32.2491999 C109.5274,31.9147982 109.721198,31.534802 109.850399,31.1091999 C109.979599,30.6835978 110.044199,30.258002 110.044199,29.8323999 C110.044199,29.4067978 109.979599,28.985002 109.850399,28.5669999 C109.721198,28.1489978 109.5274,27.7728016 109.268999,27.4383999 C109.010597,27.1039983 108.683801,26.834201 108.288599,26.629 C107.893397,26.4237989 107.422201,26.3212 106.874999,26.3212 C106.327796,26.3212 105.856601,26.4237989 105.461399,26.629 C105.066197,26.834201 104.7394,27.1039983 104.480999,27.4383999 C104.222597,27.7728016 104.028799,28.1489978 103.899599,28.5669999 C103.770398,28.985002 103.705799,29.4067978 103.705799,29.8323999 Z M126.596998,35.3499998 L123.997798,35.3499998 L123.997798,33.7083999 L123.952198,33.7083999 C123.572197,34.346803 123.044002,34.8331982 122.367598,35.1675998 C121.691195,35.5020015 120.965402,35.6691998 120.190198,35.6691998 C119.354194,35.6691998 118.605602,35.5134014 117.944399,35.2017998 C117.283195,34.8901983 116.720801,34.4722025 116.257199,33.9477999 C115.793596,33.4233972 115.4364,32.8078034 115.185599,32.1009999 C114.934797,31.3941964 114.809399,30.6380039 114.809399,29.8323999 C114.809399,29.0267959 114.938597,28.2744034 115.196999,27.5751999 C115.4554,26.8759965 115.820196,26.2680025 116.291399,25.7512 C116.762601,25.2343974 117.324995,24.8278015 117.978599,24.5314 C118.632202,24.2349985 119.346595,24.0868 120.121798,24.0868 C120.623401,24.0868 121.071797,24.1437994 121.466998,24.2578 C121.8622,24.3718006 122.207997,24.5123991 122.504398,24.6796 C122.8008,24.8468008 123.055397,25.029199 123.268198,25.2268 C123.481,25.424401 123.655798,25.6143991 123.792598,25.7968 L123.860998,25.7968 L123.860998,18.1132001 L126.596998,18.1132001 L126.596998,35.3499998 Z M117.590999,29.8323999 C117.590999,30.258002 117.655598,30.6835978 117.784799,31.1091999 C117.913999,31.534802 118.107797,31.9147982 118.366199,32.2491999 C118.6246,32.5836016 118.951397,32.8571988 119.346599,33.0699999 C119.7418,33.2828009 120.205396,33.3891999 120.737398,33.3891999 C121.239001,33.3891999 121.687396,33.2866009 122.082598,33.0813999 C122.4778,32.8761989 122.815997,32.6064016 123.097198,32.2719999 C123.3784,31.9375982 123.591198,31.561402 123.735598,31.1433999 C123.879999,30.7253978 123.952198,30.303602 123.952198,29.8779999 C123.952198,29.4523978 123.879999,29.0268021 123.735598,28.6011999 C123.591198,28.1755978 123.3784,27.7956016 123.097198,27.4611999 C122.815997,27.1267983 122.4778,26.853201 122.082598,26.6404 C121.687396,26.4275989 121.239001,26.3212 120.737398,26.3212 C120.205396,26.3212 119.7418,26.4237989 119.346599,26.629 C118.951397,26.834201 118.6246,27.1039983 118.366199,27.4383999 C118.107797,27.7728016 117.913999,28.1489978 117.784799,28.5669999 C117.655598,28.985002 117.590999,29.4067978 117.590999,29.8323999 Z M137.632198,28.7835999 C137.632198,28.4339982 137.582799,28.0996015 137.483998,27.7803999 C137.385198,27.4611983 137.229399,27.1800012 137.016598,26.9368 C136.803797,26.6935987 136.534,26.4998007 136.207198,26.3554 C135.880397,26.2109992 135.496601,26.1388 135.055798,26.1388 C134.234994,26.1388 133.539601,26.3857975 132.969598,26.8798 C132.399595,27.3738024 132.084199,28.0083961 132.023398,28.7835999 L137.632198,28.7835999 Z M140.368198,30.0147999 L140.368198,30.3795999 C140.368198,30.5012005 140.360598,30.6227993 140.345398,30.7443999 L132.023398,30.7443999 C132.053798,31.1396019 132.156397,31.5005983 132.331198,31.8273999 C132.505999,32.1542015 132.737797,32.4353987 133.026598,32.6709999 C133.3154,32.9066011 133.642196,33.0927992 134.006998,33.2295999 C134.3718,33.3664006 134.751796,33.4347999 135.146998,33.4347999 C135.831002,33.4347999 136.408596,33.3094011 136.879798,33.0585999 C137.351001,32.8077986 137.738597,32.4620021 138.042598,32.0211999 L139.866598,33.4803999 C138.787393,34.9396071 137.221809,35.6691998 135.169798,35.6691998 C134.318594,35.6691998 133.535802,35.5362012 132.821398,35.2701998 C132.106995,35.0041985 131.487601,34.6280023 130.963198,34.1415999 C130.438796,33.6551974 130.0284,33.0586034 129.731998,32.3517999 C129.435597,31.6449964 129.287398,30.8432044 129.287398,29.9463999 C129.287398,29.0647955 129.435597,28.2630035 129.731998,27.5409999 C130.0284,26.8189963 130.434996,26.2034025 130.951798,25.6942 C131.468601,25.1849974 132.080395,24.7898014 132.787198,24.5086 C133.494002,24.2273986 134.257794,24.0868 135.078598,24.0868 C135.838602,24.0868 136.541595,24.2121987 137.187598,24.463 C137.833602,24.7138012 138.392196,25.0861975 138.863398,25.5802 C139.334601,26.0742024 139.703197,26.6897963 139.969198,27.4269999 C140.2352,28.1642036 140.368198,29.026795 140.368198,30.0147999 Z M143.058598,18.1132001 L145.794598,18.1132001 L145.794598,35.3499998 L143.058598,35.3499998 L143.058598,18.1132001 Z M155.119798,27.3243999 C154.876597,27.0051984 154.5422,26.7278011 154.116598,26.4922 C153.690996,26.2565988 153.227401,26.1388 152.725798,26.1388 C152.284996,26.1388 151.8822,26.229999 151.517398,26.4124 C151.152596,26.5948009 150.970198,26.8987978 150.970198,27.3243999 C150.970198,27.7500021 151.171596,28.0501991 151.574398,28.2249999 C151.9772,28.3998008 152.566194,28.578399 153.341398,28.7607999 C153.7518,28.8520004 154.165996,28.9735992 154.583998,29.1255999 C155.002,29.2776007 155.381996,29.4789987 155.723998,29.7297999 C156.066,29.9806012 156.343397,30.292198 156.556198,30.6645999 C156.768999,31.0370018 156.875398,31.4891972 156.875398,32.0211999 C156.875398,32.6900032 156.749999,33.2561976 156.499198,33.7197999 C156.248397,34.1834022 155.914,34.5595984 155.495998,34.8483999 C155.077996,35.1372013 154.591601,35.3461992 154.036798,35.4753998 C153.481995,35.6046005 152.908201,35.6691998 152.315398,35.6691998 C151.464194,35.6691998 150.635802,35.5134014 149.830198,35.2017998 C149.024594,34.8901983 148.355801,34.4456027 147.823798,33.8679999 L149.624998,32.1807999 C149.929,32.5760019 150.324196,32.9027986 150.810598,33.1611999 C151.297001,33.4196012 151.836595,33.5487999 152.429398,33.5487999 C152.626999,33.5487999 152.828397,33.5260001 153.033598,33.4803999 C153.238799,33.4347996 153.428797,33.3626004 153.603598,33.2637999 C153.778399,33.1649994 153.918998,33.0320007 154.025398,32.8647999 C154.131799,32.697599 154.184998,32.4924011 154.184998,32.2491999 C154.184998,31.7931976 153.976,31.4664009 153.557998,31.2687999 C153.139996,31.0711989 152.513002,30.8736009 151.676998,30.6759999 C151.266596,30.5847994 150.8676,30.4670006 150.479998,30.3225999 C150.092396,30.1781992 149.7466,29.9882011 149.442598,29.7525999 C149.138597,29.5169987 148.895399,29.2244017 148.712998,28.8747999 C148.530597,28.5251982 148.439398,28.0920025 148.439398,27.5751999 C148.439398,26.9671969 148.564797,26.4428022 148.815598,26.002 C149.066399,25.5611978 149.396996,25.2002014 149.807398,24.919 C150.2178,24.6377986 150.681396,24.4288007 151.198198,24.292 C151.715001,24.1551993 152.246995,24.0868 152.794198,24.0868 C153.584602,24.0868 154.355994,24.2235986 155.108398,24.4972 C155.860802,24.7708013 156.457396,25.1887972 156.898198,25.7512 L155.119798,27.3243999 Z" id="Models" fill="#424649"></path>
                </g>
                <g id="Group-19" transform="translate(169.099998, 234.649997)">
                    <path d="M16.3478004,28.0128392 L62.1216416,4.05970848" id="Line-3" stroke="#424649" stroke-width="0.949999988" stroke-linecap="square"></path>
                    <path d="M124.710363,20.1593537 L79.8706821,4.45238276" id="Line-3-Copy-5" stroke="#424649" stroke-width="0.949999988" stroke-linecap="square"></path>
                    <path d="M124.710363,20.1593537 L79.8706821,27.6201649" id="Line-3-Copy-6" stroke="#424649" stroke-width="0.949999988" stroke-linecap="square"></path>
                    <path d="M124.710363,20.1593537 L79.8706821,39.4003931" id="Line-3-Copy-6" stroke="#424649" stroke-width="0.949999988" stroke-linecap="square"></path>
                    <path d="M124.710363,34.2956276 L79.8706821,51.1806214" id="Line-3-Copy-7" stroke="#424649" stroke-width="0.949999988" stroke-linecap="square"></path>
                    <path d="M124.710363,34.2956276 L80.8048421,15.4472624" id="Line-3-Copy-8" stroke="#424649" stroke-width="0.949999988" stroke-linecap="square"></path>
                    <path d="M123.776203,20.552028 L80.8048421,15.4472624" id="Line-3-Copy-9" stroke="#424649" stroke-width="0.949999988" stroke-linecap="square"></path>
                    <path d="M16.3478004,28.0128392 L62.1216416,15.4472624" id="Line-3-Copy" stroke="#424649" stroke-width="0.949999988" stroke-linecap="square"></path>
                    <path d="M16.3478004,28.0128392 L62.1216416,27.2274906" id="Line-3-Copy-2" stroke="#424649" stroke-width="0.949999988" stroke-linecap="square"></path>
                    <path d="M16.3478004,28.0128392 L62.1216416,39.4003931" id="Line-3-Copy-3" stroke="#424649" stroke-width="0.949999988" stroke-linecap="square"></path>
                    <path d="M16.3478004,28.0128392 L62.1216416,51.1806214" id="Line-3-Copy-4" stroke="#424649" stroke-width="0.949999988" stroke-linecap="square"></path>
                    <rect id="Rectangle-4" fill="#424649" x="0" y="21.9897593" width="18.6832005" height="11.6534854"></rect>
                    <rect id="Rectangle-4-Copy-6" fill="#424649" x="120.506643" y="14.1362739" width="18.6832005" height="11.6534854"></rect>
                    <rect id="Rectangle-4-Copy-7" fill="#424649" x="120.506643" y="28.665222" width="18.6832005" height="11.6534854"></rect>
                    <rect id="Rectangle-4-Copy" fill="#424649" x="56.9837615" y="23.5604564" width="26.4220355" height="7.72674269"></rect>
                    <rect id="Rectangle-4-Copy-2" fill="#424649" x="56.9837615" y="35.3406847" width="26.4220355" height="7.72674269"></rect>
                    <rect id="Rectangle-4-Copy-4" fill="#424649" x="56.9837615" y="11.7802282" width="26.4220355" height="7.72674269"></rect>
                    <rect id="Rectangle-4-Copy-5" fill="#424649" x="56.9837615" y="0" width="26.4220355" height="7.72674269"></rect>
                    <rect id="Rectangle-4-Copy-3" fill="#424649" x="56.9837615" y="47.1209129" width="26.4220355" height="7.72674269"></rect>
                </g>
                <path d="M418.01662,150.476998 C418.01662,149.669494 418.151993,148.940377 418.422745,148.289623 C418.693496,147.63887 419.068742,147.085501 419.548495,146.629498 C420.028247,146.173496 420.598241,145.822 421.258495,145.574998 C421.918748,145.327997 422.638366,145.204498 423.41737,145.204498 C424.205874,145.204498 424.932616,145.327997 425.59762,145.574998 C426.262623,145.822 426.837367,146.173496 427.32187,146.629498 C427.806372,147.085501 428.183993,147.63887 428.454745,148.289623 C428.725496,148.940377 428.86087,149.669494 428.86087,150.476998 C428.86087,151.265502 428.725496,151.98512 428.454745,152.635873 C428.183993,153.286627 427.806372,153.847121 427.32187,154.317373 C426.837367,154.787626 426.262623,155.153372 425.59762,155.414623 C424.932616,155.675875 424.205874,155.806498 423.41737,155.806498 C422.638366,155.806498 421.918748,155.675875 421.258495,155.414623 C420.598241,155.153372 420.028247,154.787626 419.548495,154.317373 C419.068742,153.847121 418.693496,153.286627 418.422745,152.635873 C418.151993,151.98512 418.01662,151.265502 418.01662,150.476998 Z M419.96887,150.476998 C419.96887,151.018501 420.051994,151.514871 420.218245,151.966123 C420.384496,152.417376 420.621993,152.809247 420.930745,153.141748 C421.239496,153.47425 421.605243,153.733122 422.027995,153.918373 C422.450747,154.103624 422.918617,154.196248 423.43162,154.196248 C423.944622,154.196248 424.414868,154.103624 424.84237,153.918373 C425.269872,153.733122 425.637993,153.47425 425.946745,153.141748 C426.255496,152.809247 426.492994,152.417376 426.659245,151.966123 C426.825495,151.514871 426.90862,151.018501 426.90862,150.476998 C426.90862,149.954496 426.825495,149.470001 426.659245,149.023498 C426.492994,148.576996 426.257871,148.1875 425.95387,147.854998 C425.649868,147.522497 425.284122,147.261249 424.85662,147.071248 C424.429118,146.881247 423.954122,146.786248 423.43162,146.786248 C422.909117,146.786248 422.436497,146.881247 422.013745,147.071248 C421.590993,147.261249 421.227621,147.522497 420.92362,147.854998 C420.619618,148.1875 420.384496,148.576996 420.218245,149.023498 C420.051994,149.470001 419.96887,149.954496 419.96887,150.476998 Z M435.34937,145.460998 L439.282369,145.460998 C439.662371,145.460998 440.037618,145.506123 440.408119,145.596373 C440.778621,145.686624 441.108743,145.833872 441.398494,146.038123 C441.688246,146.242374 441.923369,146.505997 442.103869,146.828998 C442.28437,147.152 442.374619,147.541496 442.374619,147.997498 C442.374619,148.567501 442.213121,149.037746 441.890119,149.408248 C441.567118,149.77875 441.144372,150.044747 440.621869,150.206248 L440.621869,150.234748 C441.258373,150.320249 441.780867,150.567246 442.189369,150.975748 C442.597871,151.38425 442.802119,151.930495 442.802119,152.614498 C442.802119,153.165501 442.692871,153.628621 442.474369,154.003873 C442.255868,154.379125 441.968496,154.680747 441.612244,154.908748 C441.255993,155.136749 440.847497,155.300623 440.386744,155.400373 C439.925992,155.500124 439.458122,155.549998 438.983119,155.549998 L435.34937,155.549998 L435.34937,145.460998 Z M437.14487,149.564998 L438.740869,149.564998 C439.339372,149.564998 439.795368,149.446249 440.108869,149.208748 C440.422371,148.971247 440.579119,148.634 440.579119,148.196998 C440.579119,147.740996 440.417621,147.417999 440.094619,147.227998 C439.771618,147.037997 439.268123,146.942998 438.584119,146.942998 L437.14487,146.942998 L437.14487,149.564998 Z M437.14487,154.039498 L438.755119,154.039498 C438.983121,154.039498 439.230118,154.022873 439.496119,153.989623 C439.762121,153.956373 440.006743,153.887499 440.229994,153.782998 C440.453246,153.678498 440.638494,153.526499 440.785744,153.326998 C440.932995,153.127497 441.006619,152.8615 441.006619,152.528998 C441.006619,151.996996 440.826121,151.626499 440.465119,151.417498 C440.104118,151.208497 439.557873,151.103998 438.826369,151.103998 L437.14487,151.103998 L437.14487,154.039498 Z M454.463369,147.569998 C454.273368,147.322997 454.004996,147.116374 453.658244,146.950123 C453.311493,146.783873 452.962371,146.700748 452.610869,146.700748 C452.401868,146.700748 452.19287,146.726873 451.983869,146.779123 C451.774868,146.831374 451.58487,146.912123 451.413869,147.021373 C451.242868,147.130624 451.102745,147.273122 450.993494,147.448873 C450.884244,147.624624 450.829619,147.835997 450.829619,148.082998 C450.829619,148.310999 450.877119,148.505748 450.972119,148.667248 C451.06712,148.828749 451.197744,148.966498 451.363994,149.080498 C451.530245,149.194499 451.732118,149.294248 451.969619,149.379748 C452.207121,149.465249 452.468368,149.550748 452.753369,149.636248 C453.076371,149.740749 453.411243,149.859498 453.757994,149.992498 C454.104746,150.125499 454.422993,150.301247 454.712744,150.519748 C455.002496,150.738249 455.239993,151.013747 455.425244,151.346248 C455.610495,151.67875 455.703119,152.091996 455.703119,152.585998 C455.703119,153.127501 455.60337,153.600121 455.403869,154.003873 C455.204368,154.407625 454.938371,154.742497 454.605869,155.008498 C454.273368,155.2745 453.883872,155.473998 453.437369,155.606998 C452.990867,155.739999 452.520622,155.806498 452.026619,155.806498 C451.371116,155.806498 450.729872,155.685374 450.102869,155.443123 C449.475866,155.200872 448.962871,154.842251 448.563869,154.367248 L449.846369,153.170248 C450.093371,153.51225 450.423492,153.782997 450.836744,153.982498 C451.249996,154.181999 451.656117,154.281748 452.055119,154.281748 C452.26412,154.281748 452.477868,154.255624 452.696369,154.203373 C452.91487,154.151123 453.111993,154.063249 453.287744,153.939748 C453.463495,153.816248 453.605994,153.661874 453.715244,153.476623 C453.824495,153.291372 453.879119,153.061 453.879119,152.785498 C453.879119,152.519497 453.81737,152.298624 453.693869,152.122873 C453.570369,151.947122 453.40412,151.795124 453.195119,151.666873 C452.986118,151.538623 452.739121,151.426999 452.454119,151.331998 L451.556369,151.032748 C451.252368,150.937748 450.948371,150.823749 450.644369,150.690748 C450.340368,150.557748 450.067246,150.381999 449.824994,150.163498 C449.582743,149.944997 449.38562,149.676625 449.233619,149.358373 C449.081619,149.040122 449.005619,148.643501 449.005619,148.168498 C449.005619,147.655496 449.112493,147.21375 449.326244,146.843248 C449.539995,146.472746 449.820243,146.166375 450.166994,145.924123 C450.513746,145.681872 450.907992,145.501374 451.349744,145.382623 C451.791497,145.263873 452.240367,145.204498 452.696369,145.204498 C453.209372,145.204498 453.729492,145.294747 454.256744,145.475248 C454.783997,145.655749 455.242367,145.926497 455.631869,146.287498 L454.463369,147.569998 Z M462.248619,145.460998 L468.931869,145.460998 L468.931869,147.028498 L464.044119,147.028498 L464.044119,149.593498 L468.675369,149.593498 L468.675369,151.103998 L464.044119,151.103998 L464.044119,153.953998 L469.188369,153.953998 L469.188369,155.549998 L462.248619,155.549998 L462.248619,145.460998 Z M475.691119,145.460998 L479.196619,145.460998 C479.671621,145.460998 480.132367,145.510873 480.578869,145.610623 C481.025371,145.710374 481.421992,145.874247 481.768744,146.102248 C482.115496,146.330249 482.393368,146.629496 482.602369,146.999998 C482.81137,147.3705 482.915869,147.821746 482.915869,148.353748 C482.915869,149.085252 482.709246,149.681371 482.295994,150.142123 C481.882742,150.602876 481.319873,150.913997 480.607369,151.075498 L483.300619,155.549998 L481.134619,155.549998 L478.797619,151.274998 L477.486619,151.274998 L477.486619,155.549998 L475.691119,155.549998 L475.691119,145.460998 Z M478.954369,149.807248 C479.21087,149.807248 479.467368,149.788248 479.723869,149.750248 C479.98037,149.712248 480.210743,149.640999 480.414994,149.536498 C480.619245,149.431998 480.787868,149.282374 480.920869,149.087623 C481.05387,148.892872 481.120369,148.6435 481.120369,148.339498 C481.120369,148.063997 481.05862,147.838374 480.935119,147.662623 C480.811618,147.486872 480.65487,147.346749 480.464869,147.242248 C480.274868,147.137748 480.058745,147.066499 479.816494,147.028498 C479.574243,146.990498 479.33912,146.971498 479.111119,146.971498 L477.486619,146.971498 L477.486619,149.807248 L478.954369,149.807248 Z M487.979369,145.460998 L489.988619,145.460998 L492.767369,153.227248 L492.824369,153.227248 L495.631619,145.460998 L497.569619,145.460998 L493.522619,155.549998 L491.969369,155.549998 L487.979369,145.460998 Z M506.024619,145.460998 L507.577869,145.460998 L511.924119,155.549998 L509.872119,155.549998 L508.931619,153.241498 L504.556869,153.241498 L503.644869,155.549998 L501.635619,155.549998 L506.024619,145.460998 Z M508.304619,151.702498 L506.751369,147.598498 L505.169619,151.702498 L508.304619,151.702498 Z M518.854368,147.028498 L515.762119,147.028498 L515.762119,145.460998 L523.742118,145.460998 L523.742118,147.028498 L520.649868,147.028498 L520.649868,155.549998 L518.854368,155.549998 L518.854368,147.028498 Z M529.660618,145.460998 L531.456118,145.460998 L531.456118,155.549998 L529.660618,155.549998 L529.660618,145.460998 Z M537.944618,150.476998 C537.944618,149.669494 538.079992,148.940377 538.350743,148.289623 C538.621495,147.63887 538.996741,147.085501 539.476493,146.629498 C539.956246,146.173496 540.52624,145.822 541.186493,145.574998 C541.846747,145.327997 542.566364,145.204498 543.345368,145.204498 C544.133872,145.204498 544.860615,145.327997 545.525618,145.574998 C546.190621,145.822 546.765366,146.173496 547.249868,146.629498 C547.734371,147.085501 548.111992,147.63887 548.382743,148.289623 C548.653494,148.940377 548.788868,149.669494 548.788868,150.476998 C548.788868,151.265502 548.653494,151.98512 548.382743,152.635873 C548.111992,153.286627 547.734371,153.847121 547.249868,154.317373 C546.765366,154.787626 546.190621,155.153372 545.525618,155.414623 C544.860615,155.675875 544.133872,155.806498 543.345368,155.806498 C542.566364,155.806498 541.846747,155.675875 541.186493,155.414623 C540.52624,155.153372 539.956246,154.787626 539.476493,154.317373 C538.996741,153.847121 538.621495,153.286627 538.350743,152.635873 C538.079992,151.98512 537.944618,151.265502 537.944618,150.476998 Z M539.896868,150.476998 C539.896868,151.018501 539.979992,151.514871 540.146243,151.966123 C540.312494,152.417376 540.549992,152.809247 540.858743,153.141748 C541.167495,153.47425 541.533241,153.733122 541.955993,153.918373 C542.378745,154.103624 542.846616,154.196248 543.359618,154.196248 C543.872621,154.196248 544.342866,154.103624 544.770368,153.918373 C545.19787,153.733122 545.565992,153.47425 545.874743,153.141748 C546.183495,152.809247 546.420992,152.417376 546.587243,151.966123 C546.753494,151.514871 546.836618,151.018501 546.836618,150.476998 C546.836618,149.954496 546.753494,149.470001 546.587243,149.023498 C546.420992,148.576996 546.18587,148.1875 545.881868,147.854998 C545.577867,147.522497 545.21212,147.261249 544.784618,147.071248 C544.357116,146.881247 543.882121,146.786248 543.359618,146.786248 C542.837116,146.786248 542.364495,146.881247 541.941743,147.071248 C541.518991,147.261249 541.15562,147.522497 540.851618,147.854998 C540.547617,148.1875 540.312494,148.576996 540.146243,149.023498 C539.979992,149.470001 539.896868,149.954496 539.896868,150.476998 Z M555.277368,145.460998 L557.657118,145.460998 L562.345368,153.013498 L562.373868,153.013498 L562.373868,145.460998 L564.169368,145.460998 L564.169368,155.549998 L561.889368,155.549998 L557.101368,147.755248 L557.072868,147.755248 L557.072868,155.549998 L555.277368,155.549998 L555.277368,145.460998 Z M576.286618,147.569998 C576.096617,147.322997 575.828245,147.116374 575.481493,146.950123 C575.134741,146.783873 574.78562,146.700748 574.434118,146.700748 C574.225117,146.700748 574.016119,146.726873 573.807118,146.779123 C573.598117,146.831374 573.408119,146.912123 573.237118,147.021373 C573.066117,147.130624 572.925993,147.273122 572.816743,147.448873 C572.707492,147.624624 572.652868,147.835997 572.652868,148.082998 C572.652868,148.310999 572.700367,148.505748 572.795368,148.667248 C572.890368,148.828749 573.020992,148.966498 573.187243,149.080498 C573.353494,149.194499 573.555367,149.294248 573.792868,149.379748 C574.030369,149.465249 574.291616,149.550748 574.576618,149.636248 C574.899619,149.740749 575.234491,149.859498 575.581243,149.992498 C575.927995,150.125499 576.246241,150.301247 576.535993,150.519748 C576.825744,150.738249 577.063242,151.013747 577.248493,151.346248 C577.433744,151.67875 577.526368,152.091996 577.526368,152.585998 C577.526368,153.127501 577.426619,153.600121 577.227118,154.003873 C577.027617,154.407625 576.761619,154.742497 576.429118,155.008498 C576.096616,155.2745 575.70712,155.473998 575.260618,155.606998 C574.814116,155.739999 574.34387,155.806498 573.849868,155.806498 C573.194365,155.806498 572.553121,155.685374 571.926118,155.443123 C571.299115,155.200872 570.78612,154.842251 570.387118,154.367248 L571.669618,153.170248 C571.916619,153.51225 572.246741,153.782997 572.659993,153.982498 C573.073245,154.181999 573.479366,154.281748 573.878368,154.281748 C574.087369,154.281748 574.301117,154.255624 574.519618,154.203373 C574.738119,154.151123 574.935242,154.063249 575.110993,153.939748 C575.286744,153.816248 575.429242,153.661874 575.538493,153.476623 C575.647743,153.291372 575.702368,153.061 575.702368,152.785498 C575.702368,152.519497 575.640618,152.298624 575.517118,152.122873 C575.393617,151.947122 575.227369,151.795124 575.018368,151.666873 C574.809367,151.538623 574.562369,151.426999 574.277368,151.331998 L573.379618,151.032748 C573.075616,150.937748 572.771619,150.823749 572.467618,150.690748 C572.163616,150.557748 571.890494,150.381999 571.648243,150.163498 C571.405992,149.944997 571.208869,149.676625 571.056868,149.358373 C570.904867,149.040122 570.828868,148.643501 570.828868,148.168498 C570.828868,147.655496 570.935742,147.21375 571.149493,146.843248 C571.363244,146.472746 571.643491,146.166375 571.990243,145.924123 C572.336995,145.681872 572.731241,145.501374 573.172993,145.382623 C573.614745,145.263873 574.063616,145.204498 574.519618,145.204498 C575.03262,145.204498 575.55274,145.294747 576.079993,145.475248 C576.607245,145.655749 577.065616,145.926497 577.455118,146.287498 L576.286618,147.569998 Z" id="OBSERVATIONS" fill="#4495D8"></path>
                <path d="M453.879119,374.410995 L455.432369,374.410995 L459.778619,384.499995 L457.726619,384.499995 L456.786119,382.191495 L452.411369,382.191495 L451.499369,384.499995 L449.490119,384.499995 L453.879119,374.410995 Z M456.159119,380.652495 L454.605869,376.548495 L453.024119,380.652495 L456.159119,380.652495 Z M472.551369,376.776495 C472.285368,376.415494 471.938621,376.151871 471.511119,375.98562 C471.083617,375.81937 470.665621,375.736245 470.257119,375.736245 C469.734616,375.736245 469.259621,375.831245 468.832119,376.021245 C468.404617,376.211246 468.036496,376.472494 467.727744,376.804995 C467.418993,377.137497 467.181495,377.526993 467.015244,377.973495 C466.848993,378.419998 466.765869,378.904493 466.765869,379.426995 C466.765869,379.977998 466.846618,380.481493 467.008119,380.937495 C467.16962,381.393498 467.399993,381.785369 467.699244,382.11312 C467.998496,382.440872 468.357117,382.694994 468.775119,382.875495 C469.193121,383.055996 469.663366,383.146245 470.185869,383.146245 C470.727372,383.146245 471.207117,383.039371 471.625119,382.82562 C472.043121,382.611869 472.380368,382.329247 472.636869,381.977745 L474.076119,382.989495 C473.629617,383.549998 473.083372,383.984619 472.437369,384.29337 C471.791366,384.602122 471.036123,384.756495 470.171619,384.756495 C469.383115,384.756495 468.658747,384.625872 467.998494,384.36462 C467.338241,384.103369 466.770622,383.737623 466.295619,383.26737 C465.820617,382.797118 465.45012,382.236624 465.184119,381.58587 C464.918118,380.935117 464.785119,380.215499 464.785119,379.426995 C464.785119,378.619491 464.925243,377.890374 465.205494,377.23962 C465.485746,376.588867 465.870492,376.035498 466.359744,375.579495 C466.848997,375.123493 467.426116,374.771997 468.091119,374.524995 C468.756122,374.277994 469.478115,374.154495 470.257119,374.154495 C470.580121,374.154495 470.917367,374.18537 471.268869,374.24712 C471.620371,374.308871 471.957617,374.40387 472.280619,374.53212 C472.603621,374.660371 472.907618,374.819495 473.192619,375.009495 C473.47762,375.199496 473.719868,375.427494 473.919369,375.693495 L472.551369,376.776495 Z M481.889869,375.978495 L478.797619,375.978495 L478.797619,374.410995 L486.777619,374.410995 L486.777619,375.978495 L483.685369,375.978495 L483.685369,384.499995 L481.889869,384.499995 L481.889869,375.978495 Z M492.696119,374.410995 L494.491619,374.410995 L494.491619,384.499995 L492.696119,384.499995 L492.696119,374.410995 Z M500.980119,379.426995 C500.980119,378.619491 501.115492,377.890374 501.386244,377.23962 C501.656995,376.588867 502.032241,376.035498 502.511994,375.579495 C502.991746,375.123493 503.56174,374.771997 504.221994,374.524995 C504.882247,374.277994 505.601865,374.154495 506.380869,374.154495 C507.169373,374.154495 507.896115,374.277994 508.561119,374.524995 C509.226122,374.771997 509.800866,375.123493 510.285369,375.579495 C510.769871,376.035498 511.147492,376.588867 511.418244,377.23962 C511.688995,377.890374 511.824369,378.619491 511.824369,379.426995 C511.824369,380.215499 511.688995,380.935117 511.418244,381.58587 C511.147492,382.236624 510.769871,382.797118 510.285369,383.26737 C509.800866,383.737623 509.226122,384.103369 508.561119,384.36462 C507.896115,384.625872 507.169373,384.756495 506.380869,384.756495 C505.601865,384.756495 504.882247,384.625872 504.221994,384.36462 C503.56174,384.103369 502.991746,383.737623 502.511994,383.26737 C502.032241,382.797118 501.656995,382.236624 501.386244,381.58587 C501.115492,380.935117 500.980119,380.215499 500.980119,379.426995 Z M502.932369,379.426995 C502.932369,379.968498 503.015493,380.464868 503.181744,380.91612 C503.347995,381.367373 503.585492,381.759244 503.894244,382.091745 C504.202995,382.424247 504.568742,382.683119 504.991494,382.86837 C505.414246,383.053621 505.882116,383.146245 506.395119,383.146245 C506.908121,383.146245 507.378366,383.053621 507.805869,382.86837 C508.233371,382.683119 508.601492,382.424247 508.910244,382.091745 C509.218995,381.759244 509.456493,381.367373 509.622744,380.91612 C509.788994,380.464868 509.872119,379.968498 509.872119,379.426995 C509.872119,378.904493 509.788994,378.419998 509.622744,377.973495 C509.456493,377.526993 509.22137,377.137497 508.917369,376.804995 C508.613367,376.472494 508.247621,376.211246 507.820119,376.021245 C507.392616,375.831245 506.917621,375.736245 506.395119,375.736245 C505.872616,375.736245 505.399996,375.831245 504.977244,376.021245 C504.554492,376.211246 504.19112,376.472494 503.887119,376.804995 C503.583117,377.137497 503.347995,377.526993 503.181744,377.973495 C503.015493,378.419998 502.932369,378.904493 502.932369,379.426995 Z M518.312868,374.410995 L520.692618,374.410995 L525.380868,381.963495 L525.409368,381.963495 L525.409368,374.410995 L527.204868,374.410995 L527.204868,384.499995 L524.924868,384.499995 L520.136868,376.705245 L520.108368,376.705245 L520.108368,384.499995 L518.312868,384.499995 L518.312868,374.410995 Z M539.322118,376.519995 C539.132117,376.272994 538.863745,376.066371 538.516993,375.90012 C538.170242,375.73387 537.82112,375.650745 537.469618,375.650745 C537.260617,375.650745 537.051619,375.67687 536.842618,375.72912 C536.633617,375.781371 536.443619,375.86212 536.272618,375.97137 C536.101617,376.080621 535.961494,376.22312 535.852243,376.39887 C535.742993,376.574621 535.688368,376.785994 535.688368,377.032995 C535.688368,377.260997 535.735868,377.455745 535.830868,377.617245 C535.925869,377.778746 536.056492,377.916495 536.222743,378.030495 C536.388994,378.144496 536.590867,378.244245 536.828368,378.329745 C537.065869,378.415246 537.327117,378.500745 537.612118,378.586245 C537.93512,378.690746 538.269992,378.809495 538.616743,378.942495 C538.963495,379.075496 539.281742,379.251244 539.571493,379.469745 C539.861245,379.688247 540.098742,379.963744 540.283993,380.296245 C540.469244,380.628747 540.561868,381.041993 540.561868,381.535995 C540.561868,382.077498 540.462119,382.550118 540.262618,382.95387 C540.063117,383.357622 539.79712,383.692494 539.464618,383.958495 C539.132117,384.224497 538.74262,384.423995 538.296118,384.556995 C537.849616,384.689996 537.379371,384.756495 536.885368,384.756495 C536.229865,384.756495 535.588621,384.635372 534.961618,384.39312 C534.334615,384.150869 533.82162,383.792248 533.422618,383.317245 L534.705118,382.120245 C534.95212,382.462247 535.282241,382.732994 535.695493,382.932495 C536.108745,383.131996 536.514866,383.231745 536.913868,383.231745 C537.122869,383.231745 537.336617,383.205621 537.555118,383.15337 C537.773619,383.10112 537.970742,383.013246 538.146493,382.889745 C538.322244,382.766245 538.464743,382.611871 538.573993,382.42662 C538.683244,382.241369 538.737868,382.010997 538.737868,381.735495 C538.737868,381.469494 538.676119,381.248621 538.552618,381.07287 C538.429118,380.89712 538.262869,380.745121 538.053868,380.61687 C537.844867,380.48862 537.59787,380.376996 537.312868,380.281995 L536.415118,379.982745 C536.111117,379.887745 535.80712,379.773746 535.503118,379.640745 C535.199117,379.507745 534.925994,379.331997 534.683743,379.113495 C534.441492,378.894994 534.244369,378.626622 534.092368,378.30837 C533.940368,377.990119 533.864368,377.593498 533.864368,377.118495 C533.864368,376.605493 533.971242,376.163747 534.184993,375.793245 C534.398744,375.422744 534.678992,375.116372 535.025743,374.87412 C535.372495,374.631869 535.766741,374.451371 536.208493,374.33262 C536.650245,374.21387 537.099116,374.154495 537.555118,374.154495 C538.068121,374.154495 538.588241,374.244745 539.115493,374.425245 C539.642746,374.605746 540.101116,374.876494 540.490618,375.237495 L539.322118,376.519995 Z" id="ACTIONS" fill="#4495D8"></path>
                <g id="Group-18" transform="translate(125.399998, 331.549996)">
                    <rect id="Rectangle-3-Copy-2" stroke="#424649" stroke-width="2.84999996" stroke-linecap="square" x="0" y="0" width="235.599997" height="54.1499993"></rect>
                    <path d="M34.0859996,18.2576001 L39.3527995,18.2576001 C40.2800041,18.2576001 41.1159958,18.3411992 41.8607995,18.5084001 C42.6056032,18.6756009 43.2439968,18.9491982 43.7759995,19.3292 C44.3080021,19.7092019 44.718398,20.1955971 45.0071994,20.7884 C45.2960009,21.381203 45.4403994,22.0955958 45.4403994,22.9316 C45.4403994,23.8284045 45.2732011,24.5807969 44.9387994,25.1888 C44.6043978,25.796803 44.1522023,26.2869981 43.5821995,26.6594 C43.0121966,27.0318018 42.3472033,27.3015991 41.5871995,27.4687999 C40.8271957,27.6360008 40.0216038,27.7195999 39.1703995,27.7195999 L36.9587995,27.7195999 L36.9587995,34.3999999 L34.0859996,34.3999999 L34.0859996,18.2576001 Z M38.9651995,25.3028 C39.4364019,25.3028 39.8847974,25.2686003 40.3103995,25.2002 C40.7360016,25.1317996 41.1159978,25.0102008 41.4503995,24.8354 C41.7848011,24.6605991 42.0507985,24.4212015 42.2483995,24.1172 C42.4460005,23.8131985 42.5447995,23.4180024 42.5447995,22.9316 C42.5447995,22.4603977 42.4460005,22.0766015 42.2483995,21.7802 C42.0507985,21.4837985 41.7886011,21.2520009 41.4617995,21.0848 C41.1349978,20.9175992 40.7626016,20.8074003 40.3445995,20.7542 C39.9265974,20.7009998 39.4972017,20.6744 39.0563995,20.6744 L36.9587995,20.6744 L36.9587995,25.3028 L38.9651995,25.3028 Z M47.2187994,28.8823999 C47.2187994,28.0159956 47.3745978,27.2294035 47.6861994,26.5226 C47.997801,25.8157964 48.4195967,25.2116025 48.9515994,24.71 C49.483602,24.2083975 50.1143957,23.8208014 50.8439994,23.5472 C51.573603,23.2735986 52.3487952,23.1368 53.1695993,23.1368 C53.9904034,23.1368 54.7655957,23.2735986 55.4951993,23.5472 C56.2248029,23.8208014 56.8555966,24.2083975 57.3875993,24.71 C57.9196019,25.2116025 58.3413977,25.8157964 58.6529993,26.5226 C58.9646008,27.2294035 59.1203993,28.0159956 59.1203993,28.8823999 C59.1203993,29.7488042 58.9646008,30.5391963 58.6529993,31.2535999 C58.3413977,31.9680035 57.9196019,32.5797973 57.3875993,33.0889999 C56.8555966,33.5982024 56.2248029,33.9971984 55.4951993,34.2859999 C54.7655957,34.5748013 53.9904034,34.7191999 53.1695993,34.7191999 C52.3487952,34.7191999 51.573603,34.5748013 50.8439994,34.2859999 C50.1143957,33.9971984 49.483602,33.5982024 48.9515994,33.0889999 C48.4195967,32.5797973 47.997801,31.9680035 47.6861994,31.2535999 C47.3745978,30.5391963 47.2187994,29.7488042 47.2187994,28.8823999 Z M50.0003994,28.8823999 C50.0003994,29.308002 50.0649987,29.7335978 50.1941994,30.1591999 C50.3234,30.584802 50.5171981,30.9647982 50.7755994,31.2991999 C51.0340007,31.6336016 51.3607974,31.9071988 51.7559994,32.1199999 C52.1512013,32.3328009 52.6223966,32.4391999 53.1695993,32.4391999 C53.7168021,32.4391999 54.1879973,32.3328009 54.5831993,32.1199999 C54.9784013,31.9071988 55.305198,31.6336016 55.5635993,31.2991999 C55.8220006,30.9647982 56.0157987,30.584802 56.1449993,30.1591999 C56.2741999,29.7335978 56.3387993,29.308002 56.3387993,28.8823999 C56.3387993,28.4567978 56.2741999,28.035002 56.1449993,27.6169999 C56.0157987,27.1989979 55.8220006,26.8228016 55.5635993,26.4884 C55.305198,26.1539983 54.9784013,25.884201 54.5831993,25.679 C54.1879973,25.4737989 53.7168021,25.3712 53.1695993,25.3712 C52.6223966,25.3712 52.1512013,25.4737989 51.7559994,25.679 C51.3607974,25.884201 51.0340007,26.1539983 50.7755994,26.4884 C50.5171981,26.8228016 50.3234,27.1989979 50.1941994,27.6169999 C50.0649987,28.035002 50.0003994,28.4567978 50.0003994,28.8823999 Z M67.7615991,26.3744 C67.5183979,26.0551984 67.1840013,25.7778011 66.7583992,25.5422 C66.332797,25.3065988 65.8692017,25.1888 65.3675992,25.1888 C64.926797,25.1888 64.524001,25.2799991 64.1591992,25.4624 C63.7943974,25.6448009 63.6119992,25.9487978 63.6119992,26.3744 C63.6119992,26.8000021 63.8133972,27.1001991 64.2161992,27.2749999 C64.6190012,27.4498008 65.2079953,27.628399 65.9831992,27.8107999 C66.3936012,27.9020004 66.8077971,28.0235992 67.2257992,28.1755999 C67.6438012,28.3276007 68.0237974,28.5289987 68.3657991,28.7797999 C68.7078008,29.0306012 68.9851981,29.3421981 69.1979991,29.7145999 C69.4108002,30.0870018 69.5171991,30.5391972 69.5171991,31.0711999 C69.5171991,31.7400032 69.3918004,32.3061976 69.1409991,32.7697999 C68.8901979,33.2334022 68.5558012,33.6095984 68.1377991,33.8983999 C67.7197971,34.1872013 67.2334019,34.3961992 66.6785992,34.5253999 C66.1237964,34.6546005 65.5500021,34.7191999 64.9571992,34.7191999 C64.1059949,34.7191999 63.2776032,34.5634014 62.4719992,34.2517999 C61.6663952,33.9401983 60.9976019,33.4956028 60.4655992,32.9179999 L62.2667992,31.2307999 C62.5708007,31.6260019 62.9659968,31.9527986 63.4523992,32.2111999 C63.9388016,32.4696012 64.4783962,32.5987999 65.0711992,32.5987999 C65.2688002,32.5987999 65.4701982,32.5760001 65.6753992,32.5303999 C65.8806002,32.4847997 66.0705983,32.4126004 66.2453992,32.3137999 C66.4202,32.2149994 66.5607986,32.0820007 66.6671992,31.9147999 C66.7735997,31.7475991 66.8267992,31.5424011 66.8267992,31.2991999 C66.8267992,30.8431976 66.6178013,30.5164009 66.1997992,30.3187999 C65.7817971,30.1211989 65.1548034,29.9236009 64.3187992,29.7259999 C63.9083971,29.6347995 63.5094011,29.5170006 63.1217992,29.3725999 C62.7341973,29.2281992 62.3884007,29.0382011 62.0843992,28.8025999 C61.7803977,28.5669988 61.5372001,28.2744017 61.3547992,27.9247999 C61.1723983,27.5751982 61.0811992,27.1420025 61.0811992,26.6252 C61.0811992,26.0171969 61.206598,25.4928022 61.4573992,25.052 C61.7082005,24.6111978 62.0387972,24.2502014 62.4491992,23.969 C62.8596013,23.6877986 63.3231966,23.4788007 63.8399992,23.342 C64.3568018,23.2051993 64.8887964,23.1368 65.4359992,23.1368 C66.2264031,23.1368 66.9977954,23.2735986 67.7501991,23.5472 C68.5026029,23.8208014 69.0991969,24.2387972 69.5399991,24.8012 L67.7615991,26.3744 Z M77.884799,26.3744 C77.6415978,26.0551984 77.3072012,25.7778011 76.881599,25.5422 C76.4559969,25.3065988 75.9924016,25.1888 75.4907991,25.1888 C75.0499969,25.1888 74.6472009,25.2799991 74.2823991,25.4624 C73.9175972,25.6448009 73.7351991,25.9487978 73.7351991,26.3744 C73.7351991,26.8000021 73.9365971,27.1001991 74.3393991,27.2749999 C74.7422011,27.4498008 75.3311952,27.628399 76.106399,27.8107999 C76.5168011,27.9020004 76.9309969,28.0235992 77.348999,28.1755999 C77.7670011,28.3276007 78.1469973,28.5289987 78.488999,28.7797999 C78.8310007,29.0306012 79.1083979,29.3421981 79.321199,29.7145999 C79.5340001,30.0870018 79.640399,30.5391972 79.640399,31.0711999 C79.640399,31.7400032 79.5150003,32.3061976 79.264199,32.7697999 C79.0133978,33.2334022 78.6790011,33.6095984 78.260999,33.8983999 C77.8429969,34.1872013 77.3566018,34.3961992 76.801799,34.5253999 C76.2469963,34.6546005 75.673202,34.7191999 75.0803991,34.7191999 C74.2291948,34.7191999 73.4008031,34.5634014 72.5951991,34.2517999 C71.7895951,33.9401983 71.1208018,33.4956028 70.5887991,32.9179999 L72.3899991,31.2307999 C72.6940006,31.6260019 73.0891967,31.9527986 73.5755991,32.2111999 C74.0620015,32.4696012 74.6015961,32.5987999 75.1943991,32.5987999 C75.392,32.5987999 75.593398,32.5760001 75.798599,32.5303999 C76.0038001,32.4847997 76.1937982,32.4126004 76.368599,32.3137999 C76.5433999,32.2149994 76.6839985,32.0820007 76.790399,31.9147999 C76.8967996,31.7475991 76.949999,31.5424011 76.949999,31.2991999 C76.949999,30.8431976 76.7410011,30.5164009 76.322999,30.3187999 C75.904997,30.1211989 75.2780032,29.9236009 74.4419991,29.7259999 C74.031597,29.6347995 73.632601,29.5170006 73.2449991,29.3725999 C72.8573971,29.2281992 72.5116006,29.0382011 72.2075991,28.8025999 C71.9035976,28.5669988 71.6604,28.2744017 71.4779991,27.9247999 C71.2955982,27.5751982 71.2043991,27.1420025 71.2043991,26.6252 C71.2043991,26.0171969 71.3297979,25.4928022 71.5805991,25.052 C71.8314004,24.6111978 72.161997,24.2502014 72.5723991,23.969 C72.9828011,23.6877986 73.4463965,23.4788007 73.9631991,23.342 C74.4800016,23.2051993 75.0119963,23.1368 75.5591991,23.1368 C76.349603,23.1368 77.1209953,23.2735986 77.873399,23.5472 C78.6258028,23.8208014 79.2223968,24.2387972 79.663199,24.8012 L77.884799,26.3744 Z M82.057199,23.456 L84.7931989,23.456 L84.7931989,34.3999999 L82.057199,34.3999999 L82.057199,23.456 Z M81.669599,19.7396 C81.669599,19.2987978 81.8329973,18.9150017 82.159799,18.5882001 C82.4866006,18.2613984 82.9007965,18.0980001 83.402399,18.0980001 C83.9040015,18.0980001 84.3257972,18.2537985 84.6677989,18.5654001 C85.0098006,18.8770016 85.1807989,19.2683977 85.1807989,19.7396 C85.1807989,20.2108024 85.0098006,20.6021985 84.6677989,20.9138 C84.3257972,21.2254016 83.9040015,21.3812 83.402399,21.3812 C82.9007965,21.3812 82.4866006,21.2178017 82.159799,20.891 C81.8329973,20.5641984 81.669599,20.1804022 81.669599,19.7396 Z M90.9035989,17.1632001 L90.9035989,24.8468 L90.9719989,24.8468 C91.1087995,24.6643991 91.2835978,24.474401 91.4963989,24.2768 C91.7091999,24.079199 91.9637974,23.8968008 92.2601988,23.7296 C92.5566003,23.5623992 92.9023969,23.4218006 93.2975988,23.3078 C93.6928008,23.1937994 94.1411963,23.1368 94.6427988,23.1368 C95.4180027,23.1368 96.1323955,23.2849985 96.7859988,23.5814 C97.439602,23.8778015 98.0019964,24.2843974 98.4731988,24.8012 C98.9444011,25.3180026 99.3091975,25.9259965 99.5675988,26.6252 C99.826,27.3244034 99.9551987,28.0767959 99.9551987,28.8823999 C99.9551987,29.6880039 99.8298,30.4441964 99.5789988,31.1509999 C99.3281975,31.8578034 98.9710011,32.4733973 98.5073988,32.9977999 C98.0437965,33.5222025 97.4814021,33.9401983 96.8201988,34.2517999 C96.1589955,34.5634014 95.410403,34.7191999 94.5743988,34.7191999 C93.7991949,34.7191999 93.0734022,34.5520015 92.3969988,34.2175999 C91.7205955,33.8831982 91.1924008,33.3968031 90.8123989,32.7583999 L90.7667989,32.7583999 L90.7667989,34.3999999 L88.1675989,34.3999999 L88.1675989,17.1632001 L90.9035989,17.1632001 Z M97.1735988,28.8823999 C97.1735988,28.4567978 97.1089994,28.035002 96.9797988,27.6169999 C96.8505981,27.1989979 96.6568001,26.8228016 96.3983988,26.4884 C96.1399975,26.1539983 95.8132008,25.884201 95.4179988,25.679 C95.0227968,25.4737989 94.5592015,25.3712 94.0271988,25.3712 C93.5255963,25.3712 93.0772008,25.4775989 92.6819988,25.6904 C92.2867969,25.903201 91.9486003,26.1767983 91.6673988,26.5112 C91.3861974,26.8456016 91.1733996,27.2255978 91.0289989,27.6511999 C90.8845981,28.0768021 90.8123989,28.5023978 90.8123989,28.9279999 C90.8123989,29.353602 90.8845981,29.7753978 91.0289989,30.1933999 C91.1733996,30.611402 91.3861974,30.9875982 91.6673988,31.3219999 C91.9486003,31.6564016 92.2867969,31.9261989 92.6819988,32.1313999 C93.0772008,32.3366009 93.5255963,32.4391999 94.0271988,32.4391999 C94.5592015,32.4391999 95.0227968,32.3328009 95.4179988,32.1199999 C95.8132008,31.9071988 96.1399975,31.6336016 96.3983988,31.2991999 C96.6568001,30.9647982 96.8505981,30.584802 96.9797988,30.1591999 C97.1089994,29.7335978 97.1735988,29.308002 97.1735988,28.8823999 Z M102.645599,17.1632001 L105.381599,17.1632001 L105.381599,34.3999999 L102.645599,34.3999999 L102.645599,17.1632001 Z M116.416799,27.8335999 C116.416799,27.4839982 116.367399,27.1496015 116.268599,26.8304 C116.169798,26.5111984 116.014,26.2300012 115.801199,25.9868 C115.588397,25.7435987 115.3186,25.5498007 114.991799,25.4054 C114.664997,25.2609992 114.281201,25.1888 113.840399,25.1888 C113.019594,25.1888 112.324201,25.4357975 111.754199,25.9298 C111.184196,26.4238024 110.868799,27.0583961 110.807999,27.8335999 L116.416799,27.8335999 Z M119.152799,29.0647999 L119.152799,29.4295999 C119.152799,29.5512005 119.145199,29.6727993 119.129999,29.7943999 L110.807999,29.7943999 C110.838399,30.1896019 110.940998,30.5505983 111.115799,30.8773999 C111.290599,31.2042015 111.522397,31.4853987 111.811199,31.7209999 C112.1,31.9566011 112.426797,32.1427992 112.791599,32.2795999 C113.1564,32.4164006 113.536397,32.4847999 113.931599,32.4847999 C114.615602,32.4847999 115.193196,32.3594011 115.664399,32.1085999 C116.135601,31.8577986 116.523197,31.5120021 116.827199,31.0711999 L118.651199,32.5303999 C117.571993,33.9896072 116.006409,34.7191999 113.954399,34.7191999 C113.103194,34.7191999 112.320402,34.5862012 111.605999,34.3201999 C110.891595,34.0541985 110.272201,33.6780023 109.747799,33.1915999 C109.223396,32.7051974 108.813,32.1086034 108.516599,31.4017999 C108.220197,30.6949964 108.071999,29.8932044 108.071999,28.9963999 C108.071999,28.1147955 108.220197,27.3130036 108.516599,26.591 C108.813,25.8689964 109.219596,25.2534025 109.736399,24.7442 C110.253201,24.2349974 110.864995,23.8398014 111.571799,23.5586 C112.278602,23.2773986 113.042394,23.1368 113.863199,23.1368 C114.623202,23.1368 115.326195,23.2621987 115.972199,23.513 C116.618202,23.7638012 117.176796,24.1361975 117.647999,24.6302 C118.119201,25.1242024 118.487797,25.7397963 118.753799,26.477 C119.0198,27.2142036 119.152799,28.076795 119.152799,29.0647999 Z M132.695998,18.2576001 L135.181198,18.2576001 L142.135198,34.3999999 L138.851998,34.3999999 L137.347198,30.7063999 L130.347598,30.7063999 L128.888398,34.3999999 L125.673598,34.3999999 L132.695998,18.2576001 Z M136.343998,28.2439999 L133.858798,21.6776 L131.327998,28.2439999 L136.343998,28.2439999 Z M151.072798,26.4884 C150.859997,26.1843984 150.5408,25.929801 150.115198,25.7246 C149.689596,25.5193989 149.2564,25.4168 148.815598,25.4168 C148.313996,25.4168 147.8732,25.5193989 147.493198,25.7246 C147.113196,25.929801 146.797799,26.1995983 146.546998,26.534 C146.296197,26.8684016 146.109999,27.2445979 145.988398,27.6625999 C145.866798,28.080602 145.805998,28.5023978 145.805998,28.9279999 C145.805998,29.353602 145.870598,29.7753978 145.999798,30.1933999 C146.128999,30.611402 146.322797,30.9875982 146.581198,31.3219999 C146.839599,31.6564016 147.162596,31.9261989 147.550198,32.1313999 C147.9378,32.3366009 148.389996,32.4391999 148.906798,32.4391999 C149.3324,32.4391999 149.757996,32.3556007 150.183598,32.1883999 C150.6092,32.0211991 150.951197,31.7780015 151.209598,31.4587999 L152.919598,33.1915999 C152.463596,33.6780023 151.882202,34.0541985 151.175398,34.3201999 C150.468595,34.5862012 149.704802,34.7191999 148.883998,34.7191999 C148.078394,34.7191999 147.314602,34.5900011 146.592598,34.3315999 C145.870595,34.0731986 145.239801,33.6932024 144.700198,33.1915999 C144.160595,32.6899974 143.735,32.0820035 143.423398,31.3675999 C143.111797,30.6531963 142.955998,29.8400045 142.955998,28.9279999 C142.955998,28.0463955 143.111797,27.2484035 143.423398,26.534 C143.735,25.8195964 144.156796,25.2116025 144.688798,24.71 C145.220801,24.2083975 145.840195,23.8208014 146.546998,23.5472 C147.253802,23.2735986 148.009994,23.1368 148.815598,23.1368 C149.621202,23.1368 150.400194,23.2887985 151.152598,23.5928 C151.905002,23.8968015 152.501596,24.3147973 152.942398,24.8468 L151.072798,26.4884 Z M153.147598,25.6448 L153.147598,23.456 L155.062798,23.456 L155.062798,20.2868 L157.753198,20.2868 L157.753198,23.456 L160.489198,23.456 L160.489198,25.6448 L157.753198,25.6448 L157.753198,30.7291999 C157.753198,31.2156023 157.840597,31.6183983 158.015398,31.9375999 C158.190199,32.2568015 158.581595,32.4163999 159.189598,32.4163999 C159.371999,32.4163999 159.569597,32.3974001 159.782398,32.3593999 C159.995199,32.3213997 160.185197,32.2644003 160.352398,32.1883999 L160.443598,34.3315999 C160.200397,34.4228003 159.9116,34.4949996 159.577198,34.5481999 C159.242796,34.6014001 158.9236,34.6279999 158.619598,34.6279999 C157.889994,34.6279999 157.2972,34.5254009 156.841198,34.3201999 C156.385196,34.1149988 156.024199,33.8338017 155.758198,33.4765999 C155.492197,33.1193981 155.309799,32.7090022 155.210998,32.2453999 C155.112198,31.7817976 155.062798,31.2840026 155.062798,30.7519999 L155.062798,25.6448 L153.147598,25.6448 Z M162.518398,23.456 L165.254398,23.456 L165.254398,34.3999999 L162.518398,34.3999999 L162.518398,23.456 Z M162.130798,19.7396 C162.130798,19.2987978 162.294196,18.9150017 162.620998,18.5882001 C162.9478,18.2613984 163.361995,18.0980001 163.863598,18.0980001 C164.3652,18.0980001 164.786996,18.2537985 165.128998,18.5654001 C165.471,18.8770016 165.641998,19.2683977 165.641998,19.7396 C165.641998,20.2108024 165.471,20.6021985 165.128998,20.9138 C164.786996,21.2254016 164.3652,21.3812 163.863598,21.3812 C163.361995,21.3812 162.9478,21.2178017 162.620998,20.891 C162.294196,20.5641984 162.130798,20.1804022 162.130798,19.7396 Z M167.944798,28.8823999 C167.944798,28.0159956 168.100596,27.2294035 168.412198,26.5226 C168.723799,25.8157964 169.145595,25.2116025 169.677598,24.71 C170.209601,24.2083975 170.840394,23.8208014 171.569998,23.5472 C172.299601,23.2735986 173.074794,23.1368 173.895598,23.1368 C174.716402,23.1368 175.491594,23.2735986 176.221198,23.5472 C176.950801,23.8208014 177.581595,24.2083975 178.113598,24.71 C178.6456,25.2116025 179.067396,25.8157964 179.378998,26.5226 C179.690599,27.2294035 179.846398,28.0159956 179.846398,28.8823999 C179.846398,29.7488042 179.690599,30.5391963 179.378998,31.2535999 C179.067396,31.9680035 178.6456,32.5797973 178.113598,33.0889999 C177.581595,33.5982024 176.950801,33.9971984 176.221198,34.2859999 C175.491594,34.5748013 174.716402,34.7191999 173.895598,34.7191999 C173.074794,34.7191999 172.299601,34.5748013 171.569998,34.2859999 C170.840394,33.9971984 170.209601,33.5982024 169.677598,33.0889999 C169.145595,32.5797973 168.723799,31.9680035 168.412198,31.2535999 C168.100596,30.5391963 167.944798,29.7488042 167.944798,28.8823999 Z M170.726398,28.8823999 C170.726398,29.308002 170.790997,29.7335978 170.920198,30.1591999 C171.049398,30.584802 171.243197,30.9647982 171.501598,31.2991999 C171.759999,31.6336016 172.086796,31.9071988 172.481998,32.1199999 C172.8772,32.3328009 173.348395,32.4391999 173.895598,32.4391999 C174.442801,32.4391999 174.913996,32.3328009 175.309198,32.1199999 C175.7044,31.9071988 176.031196,31.6336016 176.289598,31.2991999 C176.547999,30.9647982 176.741797,30.584802 176.870998,30.1591999 C177.000198,29.7335978 177.064798,29.308002 177.064798,28.8823999 C177.064798,28.4567978 177.000198,28.035002 176.870998,27.6169999 C176.741797,27.1989979 176.547999,26.8228016 176.289598,26.4884 C176.031196,26.1539983 175.7044,25.884201 175.309198,25.679 C174.913996,25.4737989 174.442801,25.3712 173.895598,25.3712 C173.348395,25.3712 172.8772,25.4737989 172.481998,25.679 C172.086796,25.884201 171.759999,26.1539983 171.501598,26.4884 C171.243197,26.8228016 171.049398,27.1989979 170.920198,27.6169999 C170.790997,28.035002 170.726398,28.4567978 170.726398,28.8823999 Z M182.491198,23.456 L185.090398,23.456 L185.090398,25.2116 L185.135998,25.2116 C185.379199,24.6643972 185.800995,24.1818021 186.401398,23.7638 C187.001801,23.3457979 187.712394,23.1368 188.533198,23.1368 C189.247601,23.1368 189.859395,23.2621987 190.368598,23.513 C190.8778,23.7638012 191.295796,24.0943979 191.622598,24.5048 C191.949399,24.915202 192.188797,25.3863973 192.340798,25.9184 C192.492798,26.4504026 192.568798,26.9975971 192.568798,27.5599999 L192.568798,34.3999999 L189.832798,34.3999999 L189.832798,28.3351999 C189.832798,28.0159983 189.809998,27.6816017 189.764398,27.3319999 C189.718797,26.9823982 189.619998,26.6670014 189.467998,26.3858 C189.315997,26.1045986 189.106999,25.8728009 188.840998,25.6904 C188.574996,25.5079991 188.2216,25.4168 187.780798,25.4168 C187.339995,25.4168 186.959999,25.5041991 186.640798,25.679 C186.321596,25.8538008 186.059399,26.0779986 185.854198,26.3516 C185.648997,26.6252013 185.493198,26.9405982 185.386798,27.2977999 C185.280397,27.6550017 185.227198,28.0159981 185.227198,28.3807999 L185.227198,34.3999999 L182.491198,34.3999999 L182.491198,23.456 Z M201.757197,26.3744 C201.513996,26.0551984 201.1796,25.7778011 200.753997,25.5422 C200.328395,25.3065988 199.8648,25.1888 199.363197,25.1888 C198.922395,25.1888 198.519599,25.2799991 198.154798,25.4624 C197.789996,25.6448009 197.607598,25.9487978 197.607598,26.3744 C197.607598,26.8000021 197.808996,27.1001991 198.211798,27.2749999 C198.6146,27.4498008 199.203594,27.628399 199.978797,27.8107999 C200.3892,27.9020004 200.803395,28.0235992 201.221397,28.1755999 C201.6394,28.3276007 202.019396,28.5289987 202.361397,28.7797999 C202.703399,29.0306012 202.980796,29.3421981 203.193597,29.7145999 C203.406399,30.0870018 203.512797,30.5391972 203.512797,31.0711999 C203.512797,31.7400032 203.387399,32.3061976 203.136597,32.7697999 C202.885796,33.2334022 202.5514,33.6095984 202.133397,33.8983999 C201.715395,34.1872013 201.229,34.3961992 200.674197,34.5253999 C200.119395,34.6546005 199.5456,34.7191999 198.952798,34.7191999 C198.101593,34.7191999 197.273202,34.5634014 196.467598,34.2517999 C195.661994,33.9401983 194.9932,33.4956028 194.461198,32.9179999 L196.262398,31.2307999 C196.566399,31.6260019 196.961595,31.9527986 197.447998,32.2111999 C197.9344,32.4696012 198.473995,32.5987999 199.066798,32.5987999 C199.264398,32.5987999 199.465796,32.5760001 199.670997,32.5303999 C199.876199,32.4847997 200.066197,32.4126004 200.240997,32.3137999 C200.415798,32.2149994 200.556397,32.0820007 200.662797,31.9147999 C200.769198,31.7475991 200.822397,31.5424011 200.822397,31.2991999 C200.822397,30.8431976 200.6134,30.5164009 200.195397,30.3187999 C199.777395,30.1211989 199.150402,29.9236009 198.314398,29.7259999 C197.903995,29.6347995 197.504999,29.5170006 197.117398,29.3725999 C196.729796,29.2281992 196.383999,29.0382011 196.079998,28.8025999 C195.775996,28.5669988 195.532798,28.2744017 195.350398,27.9247999 C195.167997,27.5751982 195.076798,27.1420025 195.076798,26.6252 C195.076798,26.0171969 195.202196,25.4928022 195.452998,25.052 C195.703799,24.6111978 196.034395,24.2502014 196.444798,23.969 C196.8552,23.6877986 197.318795,23.4788007 197.835598,23.342 C198.3524,23.2051993 198.884395,23.1368 199.431597,23.1368 C200.222001,23.1368 200.993394,23.2735986 201.745797,23.5472 C202.498201,23.8208014 203.094795,24.2387972 203.535597,24.8012 L201.757197,26.3744 Z" id="Possible-Actions" fill="#424649"></path>
                </g>
                <g id="Group-15" transform="translate(500.649994, 129.199998) rotate(90.000000) translate(-500.649994, -129.199998) translate(493.049994, 13.300000)" stroke="#63B5FF" stroke-width="3.79999995" stroke-linecap="square">
                    <path d="M7.5999999,0 L7.66751433,229.745943 L7.5999999,0 Z" id="Line-2-Copy-7"></path>
                    <polyline id="Rectangle" transform="translate(7.667514, 224.810350) rotate(-135.000000) translate(-7.667514, -224.810350) " points="2.91751438 229.817107 2.91751438 219.803594 2.91751438 219.803594 12.4175143 219.803594"></polyline>
                </g>
                <g id="Group-15" transform="translate(111.871186, 166.931637) rotate(-45.000000) translate(-111.871186, -166.931637) translate(88.121187, 145.556637)" stroke="#63B5FF" stroke-width="3.79999995" stroke-linecap="square">
                    <path d="M47.1718771,0.840802678 C20.2403623,0.779345273 6.92824847,19.7113002 7.66751433,40.6959454" id="Line-2-Copy-7"></path>
                    <polyline id="Rectangle" transform="translate(7.667514, 35.760353) rotate(-135.000000) translate(-7.667514, -35.760353) " points="2.91751438 40.7671093 2.91751438 30.7535959 2.91751438 30.7535959 12.4175143 30.7535959"></polyline>
                </g>
                <g id="Group-15-Copy-2" transform="translate(111.708192, 316.908190) rotate(-45.000000) translate(-111.708192, -316.908190) translate(87.958192, 295.533190)" stroke="#63B5FF" stroke-width="3.79999995" stroke-linecap="square">
                    <path d="M47.1718771,0.840802678 C20.2403623,0.779345273 6.92824847,19.7113002 7.66751433,40.6959454" id="Line-2-Copy-7"></path>
                    <polyline id="Rectangle" transform="translate(7.667514, 35.760353) rotate(-135.000000) translate(-7.667514, -35.760353) " points="2.91751438 40.7671093 2.91751438 30.7535959 2.91751438 30.7535959 12.4175143 30.7535959"></polyline>
                </g>
                <g id="Group-15-Copy" transform="translate(500.649994, 355.299996) scale(-1, 1) rotate(90.000000) translate(-500.649994, -355.299996) translate(493.049994, 239.399997)" stroke="#63B5FF" stroke-width="3.79999995" stroke-linecap="square">
                    <path d="M7.5999999,0 L7.66751433,229.745943 L7.5999999,0 Z" id="Line-2-Copy-7"></path>
                    <polyline id="Rectangle" transform="translate(7.667514, 224.810350) rotate(-135.000000) translate(-7.667514, -224.810350) " points="2.91751438 229.817107 2.91751438 219.803594 2.91751438 219.803594 12.4175143 219.803594"></polyline>
                </g>
            </g>
        </g>
    </g>
</svg>