<?xml version="1.0" encoding="UTF-8"?>
<svg width="1024px" height="1085px" viewBox="0 0 1024 1085" version="1.1" xmlns="http://www.w3.org/2000/svg" xmlns:xlink="http://www.w3.org/1999/xlink">
    <!-- Generator: Sketch 45.1 (43504) - http://www.bohemiancoding.com/sketch -->
    <title>Artboard Copy 2@1x</title>
    <desc>Created with Sketch.</desc>
    <defs>
        <rect id="path-1" x="0" y="0" width="61.2808618" height="28.8000011" rx="14.4000006"></rect>
        <rect id="path-2" x="0" y="0" width="61.2808618" height="28.8000011" rx="14.4000006"></rect>
        <rect id="path-3" x="0" y="0" width="61.2808618" height="28.8000011" rx="14.4000006"></rect>
        <rect id="path-4" x="0" y="0" width="61.2808618" height="28.8000011" rx="14.4000006"></rect>
        <rect id="path-5" x="0" y="0" width="61.2808618" height="28.8000011" rx="14.4000006"></rect>
    </defs>
    <g id="Page-1" stroke="none" stroke-width="1" fill="none" fill-rule="evenodd">
        <g id="Artboard-Copy-2">
            <g id="Group-6" transform="translate(36.000000, 41.000000)">
                <g id="Group-20">
                    <g id="Group-2" transform="translate(277.300014, 36.000001)">
                        <g id="Group" transform="translate(0.000000, 2.700000)" stroke="#D0D4D9" stroke-width="3.60000014">
                            <path d="M36.9000015,0.450000018 L36.9000015,108.450004" id="Line"></path>
                            <path d="M73.8000029,0.450000018 L73.8000029,108.450004" id="Line-Copy"></path>
                            <path d="M54.9000022,-18.4500007 L54.9000022,90.4500036" id="Line" transform="translate(54.900002, 36.000001) rotate(90.000000) translate(-54.900002, -36.000001) "></path>
                            <path d="M54.9000022,18.4500007 L54.9000022,127.350005" id="Line-Copy" transform="translate(54.900002, 72.900003) rotate(90.000000) translate(-54.900002, -72.900003) "></path>
                        </g>
                        <polygon id="X" fill="#424649" transform="translate(19.091884, 56.891885) rotate(-315.000000) translate(-19.091884, -56.891885) " points="16.721016 70.3918859 16.721016 59.1906471 5.59188331 59.1906471 5.59188331 54.5095323 16.721016 54.5095323 16.721016 43.3918848 21.4627517 43.3918848 21.4627517 54.5095323 32.5918844 54.5095323 32.5918844 59.1906471 21.4627517 59.1906471 21.4627517 70.3918859 18.2630464 70.3918859"></polygon>
                        <polygon id="X-Copy-2" fill="#424649" transform="translate(94.691887, 19.091884) rotate(-315.000000) translate(-94.691887, -19.091884) " points="92.321019 32.5918844 92.321019 21.3906456 81.1918863 21.3906456 81.1918863 16.7095308 92.321019 16.7095308 92.321019 5.59188331 97.0627547 5.59188331 97.0627547 16.7095308 108.191887 16.7095308 108.191887 21.3906456 97.0627547 21.3906456 97.0627547 32.5918844 93.8630494 32.5918844"></polygon>
                        <polygon id="X-Copy" fill="#424649" transform="translate(19.091884, 94.691887) rotate(-315.000000) translate(-19.091884, -94.691887) " points="16.721016 108.191887 16.721016 96.9906486 5.59188331 96.9906486 5.59188331 92.3095338 16.721016 92.3095338 16.721016 81.1918863 21.4627517 81.1918863 21.4627517 92.3095338 32.5918844 92.3095338 32.5918844 96.9906486 21.4627517 96.9906486 21.4627517 108.191887 18.2630464 108.191887"></polygon>
                        <path d="M55.3500022,101.700004 C59.0809766,101.700004 62.103936,98.6770446 62.103936,94.9500038 C62.103936,91.2229629 59.0809766,88.2000035 55.3500022,88.2000035 C51.6190278,88.2000035 48.5960684,91.2229629 48.5960684,94.9500038 C48.5960684,98.6770446 51.6190278,101.700004 55.3500022,101.700004 Z M55.3500022,106.200004 C49.1367985,106.200004 44.1000018,101.163207 44.1000018,94.9500038 C44.1000018,88.7368001 49.1367985,83.7000033 55.3500022,83.7000033 C61.5632059,83.7000033 66.6000026,88.7368001 66.6000026,94.9500038 C66.6000026,101.163207 61.5632059,106.200004 55.3500022,106.200004 Z" id="O" fill="#424649" fill-rule="nonzero"></path>
                        <path d="M19.3500008,26.100001 C23.0809752,26.100001 26.1039346,23.0770416 26.1039346,19.3500008 C26.1039346,15.6229599 23.0809752,12.6000005 19.3500008,12.6000005 C15.6190264,12.6000005 12.5960669,15.6229599 12.5960669,19.3500008 C12.5960669,23.0770416 15.6190264,26.100001 19.3500008,26.100001 Z M19.3500008,30.6000012 C13.1367971,30.6000012 8.10000032,25.5632045 8.10000032,19.3500008 C8.10000032,13.1367971 13.1367971,8.10000032 19.3500008,8.10000032 C25.5632045,8.10000032 30.6000012,13.1367971 30.6000012,19.3500008 C30.6000012,25.5632045 25.5632045,30.6000012 19.3500008,30.6000012 Z" id="O-Copy-2" fill="#424649" fill-rule="nonzero"></path>
                        <path d="M94.9500038,101.700004 C98.6809782,101.700004 101.703938,98.6770446 101.703938,94.9500038 C101.703938,91.2229629 98.6809782,88.2000035 94.9500038,88.2000035 C91.2190294,88.2000035 88.1960699,91.2229629 88.1960699,94.9500038 C88.1960699,98.6770446 91.2190294,101.700004 94.9500038,101.700004 Z M94.9500038,106.200004 C88.7368001,106.200004 83.7000033,101.163207 83.7000033,94.9500038 C83.7000033,88.7368001 88.7368001,83.7000033 94.9500038,83.7000033 C101.163207,83.7000033 106.200004,88.7368001 106.200004,94.9500038 C106.200004,101.163207 101.163207,106.200004 94.9500038,106.200004 Z" id="O-Copy" fill="#424649" fill-rule="nonzero"></path>
                    </g>
                    <g id="Group-3" transform="translate(0.000000, 324.000013)">
                        <g id="Group-Copy" transform="translate(0.000000, 2.700000)" stroke="#D0D4D9" stroke-width="3.60000014">
                            <path d="M36.9000015,0.450000018 L36.9000015,108.450004" id="Line"></path>
                            <path d="M73.8000029,0.450000018 L73.8000029,108.450004" id="Line-Copy"></path>
                            <path d="M54.9000022,-18.4500007 L54.9000022,90.4500036" id="Line" transform="translate(54.900002, 36.000001) rotate(90.000000) translate(-54.900002, -36.000001) "></path>
                            <path d="M54.9000022,18.4500007 L54.9000022,127.350005" id="Line-Copy" transform="translate(54.900002, 72.900003) rotate(90.000000) translate(-54.900002, -72.900003) "></path>
                        </g>
                        <polygon id="X-Copy-3" fill="#424649" transform="translate(19.091884, 56.891885) rotate(-315.000000) translate(-19.091884, -56.891885) " points="16.721016 70.3918859 16.721016 59.1906471 5.59188331 59.1906471 5.59188331 54.5095323 16.721016 54.5095323 16.721016 43.3918848 21.4627517 43.3918848 21.4627517 54.5095323 32.5918844 54.5095323 32.5918844 59.1906471 21.4627517 59.1906471 21.4627517 70.3918859 18.2630464 70.3918859"></polygon>
                        <polygon id="X-Copy-6" fill="#2ECD72" transform="translate(55.091885, 56.891885) rotate(-315.000000) translate(-55.091885, -56.891885) " points="52.7210174 70.3918859 52.7210174 59.1906471 41.5918847 59.1906471 41.5918847 54.5095323 52.7210174 54.5095323 52.7210174 43.3918848 57.4627531 43.3918848 57.4627531 54.5095323 68.5918858 54.5095323 68.5918858 59.1906471 57.4627531 59.1906471 57.4627531 70.3918859 54.2630478 70.3918859"></polygon>
                        <polygon id="X-Copy-4" fill="#424649" transform="translate(94.691887, 19.091884) rotate(-315.000000) translate(-94.691887, -19.091884) " points="92.321019 32.5918844 92.321019 21.3906456 81.1918863 21.3906456 81.1918863 16.7095308 92.321019 16.7095308 92.321019 5.59188331 97.0627547 5.59188331 97.0627547 16.7095308 108.191887 16.7095308 108.191887 21.3906456 97.0627547 21.3906456 97.0627547 32.5918844 93.8630494 32.5918844"></polygon>
                        <polygon id="X-Copy-5" fill="#424649" transform="translate(19.091884, 94.691887) rotate(-315.000000) translate(-19.091884, -94.691887) " points="16.721016 108.191887 16.721016 96.9906486 5.59188331 96.9906486 5.59188331 92.3095338 16.721016 92.3095338 16.721016 81.1918863 21.4627517 81.1918863 21.4627517 92.3095338 32.5918844 92.3095338 32.5918844 96.9906486 21.4627517 96.9906486 21.4627517 108.191887 18.2630464 108.191887"></polygon>
                        <path d="M55.3500022,101.700004 C59.0809766,101.700004 62.103936,98.6770446 62.103936,94.9500038 C62.103936,91.2229629 59.0809766,88.2000035 55.3500022,88.2000035 C51.6190278,88.2000035 48.5960684,91.2229629 48.5960684,94.9500038 C48.5960684,98.6770446 51.6190278,101.700004 55.3500022,101.700004 Z M55.3500022,106.200004 C49.1367985,106.200004 44.1000018,101.163207 44.1000018,94.9500038 C44.1000018,88.7368001 49.1367985,83.7000033 55.3500022,83.7000033 C61.5632059,83.7000033 66.6000026,88.7368001 66.6000026,94.9500038 C66.6000026,101.163207 61.5632059,106.200004 55.3500022,106.200004 Z" id="O-Copy-3" fill="#424649" fill-rule="nonzero"></path>
                        <path d="M19.3500008,26.100001 C23.0809752,26.100001 26.1039346,23.0770416 26.1039346,19.3500008 C26.1039346,15.6229599 23.0809752,12.6000005 19.3500008,12.6000005 C15.6190264,12.6000005 12.5960669,15.6229599 12.5960669,19.3500008 C12.5960669,23.0770416 15.6190264,26.100001 19.3500008,26.100001 Z M19.3500008,30.6000012 C13.1367971,30.6000012 8.10000032,25.5632045 8.10000032,19.3500008 C8.10000032,13.1367971 13.1367971,8.10000032 19.3500008,8.10000032 C25.5632045,8.10000032 30.6000012,13.1367971 30.6000012,19.3500008 C30.6000012,25.5632045 25.5632045,30.6000012 19.3500008,30.6000012 Z" id="O-Copy-4" fill="#424649" fill-rule="nonzero"></path>
                        <path d="M94.9500038,101.700004 C98.6809782,101.700004 101.703938,98.6770446 101.703938,94.9500038 C101.703938,91.2229629 98.6809782,88.2000035 94.9500038,88.2000035 C91.2190294,88.2000035 88.1960699,91.2229629 88.1960699,94.9500038 C88.1960699,98.6770446 91.2190294,101.700004 94.9500038,101.700004 Z M94.9500038,106.200004 C88.7368001,106.200004 83.7000033,101.163207 83.7000033,94.9500038 C83.7000033,88.7368001 88.7368001,83.7000033 94.9500038,83.7000033 C101.163207,83.7000033 106.200004,88.7368001 106.200004,94.9500038 C106.200004,101.163207 101.163207,106.200004 94.9500038,106.200004 Z" id="O-Copy-5" fill="#424649" fill-rule="nonzero"></path>
                    </g>
                    <g id="Group-4" transform="translate(277.300014, 324.000013)">
                        <g id="Group-Copy-2" transform="translate(0.000000, 2.700000)" stroke="#D0D4D9" stroke-width="3.60000014">
                            <path d="M36.9000015,0.450000018 L36.9000015,108.450004" id="Line"></path>
                            <path d="M73.8000029,0.450000018 L73.8000029,108.450004" id="Line-Copy"></path>
                            <path d="M54.9000022,-18.4500007 L54.9000022,90.4500036" id="Line" transform="translate(54.900002, 36.000001) rotate(90.000000) translate(-54.900002, -36.000001) "></path>
                            <path d="M54.9000022,18.4500007 L54.9000022,127.350005" id="Line-Copy" transform="translate(54.900002, 72.900003) rotate(90.000000) translate(-54.900002, -72.900003) "></path>
                        </g>
                        <polygon id="X-Copy-7" fill="#424649" transform="translate(19.091884, 56.891885) rotate(-315.000000) translate(-19.091884, -56.891885) " points="16.721016 70.3918859 16.721016 59.1906471 5.59188331 59.1906471 5.59188331 54.5095323 16.721016 54.5095323 16.721016 43.3918848 21.4627517 43.3918848 21.4627517 54.5095323 32.5918844 54.5095323 32.5918844 59.1906471 21.4627517 59.1906471 21.4627517 70.3918859 18.2630464 70.3918859"></polygon>
                        <polygon id="X-Copy-8" fill="#2ECD72" transform="translate(55.091885, 19.091884) rotate(-315.000000) translate(-55.091885, -19.091884) " points="52.7210174 32.5918844 52.7210174 21.3906456 41.5918847 21.3906456 41.5918847 16.7095308 52.7210174 16.7095308 52.7210174 5.59188331 57.4627531 5.59188331 57.4627531 16.7095308 68.5918858 16.7095308 68.5918858 21.3906456 57.4627531 21.3906456 57.4627531 32.5918844 54.2630478 32.5918844"></polygon>
                        <polygon id="X-Copy-9" fill="#424649" transform="translate(94.691887, 19.091884) rotate(-315.000000) translate(-94.691887, -19.091884) " points="92.321019 32.5918844 92.321019 21.3906456 81.1918863 21.3906456 81.1918863 16.7095308 92.321019 16.7095308 92.321019 5.59188331 97.0627547 5.59188331 97.0627547 16.7095308 108.191887 16.7095308 108.191887 21.3906456 97.0627547 21.3906456 97.0627547 32.5918844 93.8630494 32.5918844"></polygon>
                        <polygon id="X-Copy-10" fill="#424649" transform="translate(19.091884, 94.691887) rotate(-315.000000) translate(-19.091884, -94.691887) " points="16.721016 108.191887 16.721016 96.9906486 5.59188331 96.9906486 5.59188331 92.3095338 16.721016 92.3095338 16.721016 81.1918863 21.4627517 81.1918863 21.4627517 92.3095338 32.5918844 92.3095338 32.5918844 96.9906486 21.4627517 96.9906486 21.4627517 108.191887 18.2630464 108.191887"></polygon>
                        <path d="M55.3500022,101.700004 C59.0809766,101.700004 62.103936,98.6770446 62.103936,94.9500038 C62.103936,91.2229629 59.0809766,88.2000035 55.3500022,88.2000035 C51.6190278,88.2000035 48.5960684,91.2229629 48.5960684,94.9500038 C48.5960684,98.6770446 51.6190278,101.700004 55.3500022,101.700004 Z M55.3500022,106.200004 C49.1367985,106.200004 44.1000018,101.163207 44.1000018,94.9500038 C44.1000018,88.7368001 49.1367985,83.7000033 55.3500022,83.7000033 C61.5632059,83.7000033 66.6000026,88.7368001 66.6000026,94.9500038 C66.6000026,101.163207 61.5632059,106.200004 55.3500022,106.200004 Z" id="O-Copy-6" fill="#424649" fill-rule="nonzero"></path>
                        <path d="M19.3500008,26.100001 C23.0809752,26.100001 26.1039346,23.0770416 26.1039346,19.3500008 C26.1039346,15.6229599 23.0809752,12.6000005 19.3500008,12.6000005 C15.6190264,12.6000005 12.5960669,15.6229599 12.5960669,19.3500008 C12.5960669,23.0770416 15.6190264,26.100001 19.3500008,26.100001 Z M19.3500008,30.6000012 C13.1367971,30.6000012 8.10000032,25.5632045 8.10000032,19.3500008 C8.10000032,13.1367971 13.1367971,8.10000032 19.3500008,8.10000032 C25.5632045,8.10000032 30.6000012,13.1367971 30.6000012,19.3500008 C30.6000012,25.5632045 25.5632045,30.6000012 19.3500008,30.6000012 Z" id="O-Copy-7" fill="#424649" fill-rule="nonzero"></path>
                        <path d="M94.9500038,101.700004 C98.6809782,101.700004 101.703938,98.6770446 101.703938,94.9500038 C101.703938,91.2229629 98.6809782,88.2000035 94.9500038,88.2000035 C91.2190294,88.2000035 88.1960699,91.2229629 88.1960699,94.9500038 C88.1960699,98.6770446 91.2190294,101.700004 94.9500038,101.700004 Z M94.9500038,106.200004 C88.7368001,106.200004 83.7000033,101.163207 83.7000033,94.9500038 C83.7000033,88.7368001 88.7368001,83.7000033 94.9500038,83.7000033 C101.163207,83.7000033 106.200004,88.7368001 106.200004,94.9500038 C106.200004,101.163207 101.163207,106.200004 94.9500038,106.200004 Z" id="O-Copy-8" fill="#424649" fill-rule="nonzero"></path>
                    </g>
                    <g id="Group-9" transform="translate(184.600011, 564.300022)">
                        <g id="Group-Copy-4" transform="translate(0.000000, 3.600000)" stroke="#D0D4D9" stroke-width="3.60000014">
                            <path d="M36.9000015,0.450000018 L36.9000015,108.450004" id="Line"></path>
                            <path d="M73.8000029,0.450000018 L73.8000029,108.450004" id="Line-Copy"></path>
                            <path d="M54.9000022,-18.4500007 L54.9000022,90.4500036" id="Line" transform="translate(54.900002, 36.000001) rotate(90.000000) translate(-54.900002, -36.000001) "></path>
                            <path d="M54.9000022,18.4500007 L54.9000022,127.350005" id="Line-Copy" transform="translate(54.900002, 72.900003) rotate(90.000000) translate(-54.900002, -72.900003) "></path>
                        </g>
                        <polygon id="X-Copy-15" fill="#424649" transform="translate(19.091884, 57.791885) rotate(-315.000000) translate(-19.091884, -57.791885) " points="16.721016 71.2918859 16.721016 60.0906471 5.59188331 60.0906471 5.59188331 55.4095324 16.721016 55.4095324 16.721016 44.2918849 21.4627517 44.2918849 21.4627517 55.4095324 32.5918844 55.4095324 32.5918844 60.0906471 21.4627517 60.0906471 21.4627517 71.2918859 18.2630464 71.2918859"></polygon>
                        <polygon id="X-Copy-16" fill="#424649" transform="translate(55.091885, 19.091884) rotate(-315.000000) translate(-55.091885, -19.091884) " points="52.7210174 32.5918844 52.7210174 21.3906456 41.5918847 21.3906456 41.5918847 16.7095308 52.7210174 16.7095308 52.7210174 5.59188331 57.4627531 5.59188331 57.4627531 16.7095308 68.5918858 16.7095308 68.5918858 21.3906456 57.4627531 21.3906456 57.4627531 32.5918844 54.2630478 32.5918844"></polygon>
                        <polygon id="X-Copy-17" fill="#424649" transform="translate(94.691887, 19.091884) rotate(-315.000000) translate(-94.691887, -19.091884) " points="92.321019 32.5918844 92.321019 21.3906456 81.1918863 21.3906456 81.1918863 16.7095308 92.321019 16.7095308 92.321019 5.59188331 97.0627547 5.59188331 97.0627547 16.7095308 108.191887 16.7095308 108.191887 21.3906456 97.0627547 21.3906456 97.0627547 32.5918844 93.8630494 32.5918844"></polygon>
                        <polygon id="X-Copy-18" fill="#424649" transform="translate(19.091884, 95.591887) rotate(-315.000000) translate(-19.091884, -95.591887) " points="16.721016 109.091887 16.721016 97.8906486 5.59188331 97.8906486 5.59188331 93.2095339 16.721016 93.2095339 16.721016 82.0918864 21.4627517 82.0918864 21.4627517 93.2095339 32.5918844 93.2095339 32.5918844 97.8906486 21.4627517 97.8906486 21.4627517 109.091887 18.2630464 109.091887"></polygon>
                        <path d="M55.3500022,102.600004 C59.0809766,102.600004 62.103936,99.5770446 62.103936,95.8500038 C62.103936,92.122963 59.0809766,89.1000035 55.3500022,89.1000035 C51.6190278,89.1000035 48.5960684,92.122963 48.5960684,95.8500038 C48.5960684,99.5770446 51.6190278,102.600004 55.3500022,102.600004 Z M55.3500022,107.100004 C49.1367985,107.100004 44.1000018,102.063207 44.1000018,95.8500038 C44.1000018,89.6368001 49.1367985,84.6000034 55.3500022,84.6000034 C61.5632059,84.6000034 66.6000026,89.6368001 66.6000026,95.8500038 C66.6000026,102.063207 61.5632059,107.100004 55.3500022,107.100004 Z" id="O-Copy-12" fill="#424649" fill-rule="nonzero"></path>
                        <path d="M55.3500022,63.9000025 C59.0809766,63.9000025 62.103936,60.8770431 62.103936,57.1500023 C62.103936,53.4229614 59.0809766,50.400002 55.3500022,50.400002 C51.6190278,50.400002 48.5960684,53.4229614 48.5960684,57.1500023 C48.5960684,60.8770431 51.6190278,63.9000025 55.3500022,63.9000025 Z M55.3500022,68.4000027 C49.1367985,68.4000027 44.1000018,63.363206 44.1000018,57.1500023 C44.1000018,50.9367986 49.1367985,45.9000018 55.3500022,45.9000018 C61.5632059,45.9000018 66.6000026,50.9367986 66.6000026,57.1500023 C66.6000026,63.363206 61.5632059,68.4000027 55.3500022,68.4000027 Z" id="O-Copy-15" fill="#C885FF" fill-rule="nonzero"></path>
                        <path d="M19.3500008,27.0000011 C23.0809752,27.0000011 26.1039346,23.9770416 26.1039346,20.2500008 C26.1039346,16.52296 23.0809752,13.5000005 19.3500008,13.5000005 C15.6190264,13.5000005 12.5960669,16.52296 12.5960669,20.2500008 C12.5960669,23.9770416 15.6190264,27.0000011 19.3500008,27.0000011 Z M19.3500008,31.5000013 C13.1367971,31.5000013 8.10000032,26.4632045 8.10000032,20.2500008 C8.10000032,14.0367971 13.1367971,9.00000036 19.3500008,9.00000036 C25.5632045,9.00000036 30.6000012,14.0367971 30.6000012,20.2500008 C30.6000012,26.4632045 25.5632045,31.5000013 19.3500008,31.5000013 Z" id="O-Copy-13" fill="#424649" fill-rule="nonzero"></path>
                        <path d="M94.9500038,102.600004 C98.6809782,102.600004 101.703938,99.5770446 101.703938,95.8500038 C101.703938,92.122963 98.6809782,89.1000035 94.9500038,89.1000035 C91.2190294,89.1000035 88.1960699,92.122963 88.1960699,95.8500038 C88.1960699,99.5770446 91.2190294,102.600004 94.9500038,102.600004 Z M94.9500038,107.100004 C88.7368001,107.100004 83.7000033,102.063207 83.7000033,95.8500038 C83.7000033,89.6368001 88.7368001,84.6000034 94.9500038,84.6000034 C101.163207,84.6000034 106.200004,89.6368001 106.200004,95.8500038 C106.200004,102.063207 101.163207,107.100004 94.9500038,107.100004 Z" id="O-Copy-14" fill="#424649" fill-rule="nonzero"></path>
                    </g>
                    <g id="Group-10" transform="translate(388.900019, 564.300022)">
                        <g id="Group-Copy-8" transform="translate(0.000000, 3.600000)" stroke="#D0D4D9" stroke-width="3.60000014">
                            <path d="M36.9000015,0.450000018 L36.9000015,108.450004" id="Line"></path>
                            <path d="M73.8000029,0.450000018 L73.8000029,108.450004" id="Line-Copy"></path>
                            <path d="M54.9000022,-18.4500007 L54.9000022,90.4500036" id="Line" transform="translate(54.900002, 36.000001) rotate(90.000000) translate(-54.900002, -36.000001) "></path>
                            <path d="M54.9000022,18.4500007 L54.9000022,127.350005" id="Line-Copy" transform="translate(54.900002, 72.900003) rotate(90.000000) translate(-54.900002, -72.900003) "></path>
                        </g>
                        <polygon id="X-Copy-19" fill="#424649" transform="translate(19.091884, 57.791885) rotate(-315.000000) translate(-19.091884, -57.791885) " points="16.721016 71.2918859 16.721016 60.0906471 5.59188331 60.0906471 5.59188331 55.4095324 16.721016 55.4095324 16.721016 44.2918849 21.4627517 44.2918849 21.4627517 55.4095324 32.5918844 55.4095324 32.5918844 60.0906471 21.4627517 60.0906471 21.4627517 71.2918859 18.2630464 71.2918859"></polygon>
                        <polygon id="X-Copy-20" fill="#424649" transform="translate(55.091885, 19.091884) rotate(-315.000000) translate(-55.091885, -19.091884) " points="52.7210174 32.5918844 52.7210174 21.3906456 41.5918847 21.3906456 41.5918847 16.7095308 52.7210174 16.7095308 52.7210174 5.59188331 57.4627531 5.59188331 57.4627531 16.7095308 68.5918858 16.7095308 68.5918858 21.3906456 57.4627531 21.3906456 57.4627531 32.5918844 54.2630478 32.5918844"></polygon>
                        <polygon id="X-Copy-21" fill="#424649" transform="translate(94.691887, 19.091884) rotate(-315.000000) translate(-94.691887, -19.091884) " points="92.321019 32.5918844 92.321019 21.3906456 81.1918863 21.3906456 81.1918863 16.7095308 92.321019 16.7095308 92.321019 5.59188331 97.0627547 5.59188331 97.0627547 16.7095308 108.191887 16.7095308 108.191887 21.3906456 97.0627547 21.3906456 97.0627547 32.5918844 93.8630494 32.5918844"></polygon>
                        <polygon id="X-Copy-22" fill="#424649" transform="translate(19.091884, 95.591887) rotate(-315.000000) translate(-19.091884, -95.591887) " points="16.721016 109.091887 16.721016 97.8906486 5.59188331 97.8906486 5.59188331 93.2095339 16.721016 93.2095339 16.721016 82.0918864 21.4627517 82.0918864 21.4627517 93.2095339 32.5918844 93.2095339 32.5918844 97.8906486 21.4627517 97.8906486 21.4627517 109.091887 18.2630464 109.091887"></polygon>
                        <path d="M55.3500022,102.600004 C59.0809766,102.600004 62.103936,99.5770446 62.103936,95.8500038 C62.103936,92.122963 59.0809766,89.1000035 55.3500022,89.1000035 C51.6190278,89.1000035 48.5960684,92.122963 48.5960684,95.8500038 C48.5960684,99.5770446 51.6190278,102.600004 55.3500022,102.600004 Z M55.3500022,107.100004 C49.1367985,107.100004 44.1000018,102.063207 44.1000018,95.8500038 C44.1000018,89.6368001 49.1367985,84.6000034 55.3500022,84.6000034 C61.5632059,84.6000034 66.6000026,89.6368001 66.6000026,95.8500038 C66.6000026,102.063207 61.5632059,107.100004 55.3500022,107.100004 Z" id="O-Copy-16" fill="#424649" fill-rule="nonzero"></path>
                        <path d="M94.0500037,63.9000025 C97.7809781,63.9000025 100.803938,60.8770431 100.803938,57.1500023 C100.803938,53.4229614 97.7809781,50.400002 94.0500037,50.400002 C90.3190293,50.400002 87.2960699,53.4229614 87.2960699,57.1500023 C87.2960699,60.8770431 90.3190293,63.9000025 94.0500037,63.9000025 Z M94.0500037,68.4000027 C87.8368001,68.4000027 82.8000033,63.363206 82.8000033,57.1500023 C82.8000033,50.9367986 87.8368001,45.9000018 94.0500037,45.9000018 C100.263207,45.9000018 105.300004,50.9367986 105.300004,57.1500023 C105.300004,63.363206 100.263207,68.4000027 94.0500037,68.4000027 Z" id="O-Copy-17" fill="#C885FF" fill-rule="nonzero"></path>
                        <path d="M19.3500008,27.0000011 C23.0809752,27.0000011 26.1039346,23.9770416 26.1039346,20.2500008 C26.1039346,16.52296 23.0809752,13.5000005 19.3500008,13.5000005 C15.6190264,13.5000005 12.5960669,16.52296 12.5960669,20.2500008 C12.5960669,23.9770416 15.6190264,27.0000011 19.3500008,27.0000011 Z M19.3500008,31.5000013 C13.1367971,31.5000013 8.10000032,26.4632045 8.10000032,20.2500008 C8.10000032,14.0367971 13.1367971,9.00000036 19.3500008,9.00000036 C25.5632045,9.00000036 30.6000012,14.0367971 30.6000012,20.2500008 C30.6000012,26.4632045 25.5632045,31.5000013 19.3500008,31.5000013 Z" id="O-Copy-18" fill="#424649" fill-rule="nonzero"></path>
                        <path d="M94.9500038,102.600004 C98.6809782,102.600004 101.703938,99.5770446 101.703938,95.8500038 C101.703938,92.122963 98.6809782,89.1000035 94.9500038,89.1000035 C91.2190294,89.1000035 88.1960699,92.122963 88.1960699,95.8500038 C88.1960699,99.5770446 91.2190294,102.600004 94.9500038,102.600004 Z M94.9500038,107.100004 C88.7368001,107.100004 83.7000033,102.063207 83.7000033,95.8500038 C83.7000033,89.6368001 88.7368001,84.6000034 94.9500038,84.6000034 C101.163207,84.6000034 106.200004,89.6368001 106.200004,95.8500038 C106.200004,102.063207 101.163207,107.100004 94.9500038,107.100004 Z" id="O-Copy-19" fill="#424649" fill-rule="nonzero"></path>
                    </g>
                    <g id="Group-10-Copy" transform="translate(388.900019, 815.400032)">
                        <g id="Group-Copy-8" transform="translate(0.000000, 3.600000)" stroke="#D0D4D9" stroke-width="3.60000014">
                            <path d="M36.9000015,0.450000018 L36.9000015,108.450004" id="Line"></path>
                            <path d="M73.8000029,0.450000018 L73.8000029,108.450004" id="Line-Copy"></path>
                            <path d="M54.9000022,-18.4500007 L54.9000022,90.4500036" id="Line" transform="translate(54.900002, 36.000001) rotate(90.000000) translate(-54.900002, -36.000001) "></path>
                            <path d="M54.9000022,18.4500007 L54.9000022,127.350005" id="Line-Copy" transform="translate(54.900002, 72.900003) rotate(90.000000) translate(-54.900002, -72.900003) "></path>
                        </g>
                        <polygon id="X-Copy-19" fill="#424649" transform="translate(19.091884, 57.791885) rotate(-315.000000) translate(-19.091884, -57.791885) " points="16.721016 71.2918859 16.721016 60.0906471 5.59188331 60.0906471 5.59188331 55.4095324 16.721016 55.4095324 16.721016 44.2918849 21.4627517 44.2918849 21.4627517 55.4095324 32.5918844 55.4095324 32.5918844 60.0906471 21.4627517 60.0906471 21.4627517 71.2918859 18.2630464 71.2918859"></polygon>
                        <polygon id="X-Copy-20" fill="#424649" transform="translate(55.091885, 19.091884) rotate(-315.000000) translate(-55.091885, -19.091884) " points="52.7210174 32.5918844 52.7210174 21.3906456 41.5918847 21.3906456 41.5918847 16.7095308 52.7210174 16.7095308 52.7210174 5.59188331 57.4627531 5.59188331 57.4627531 16.7095308 68.5918858 16.7095308 68.5918858 21.3906456 57.4627531 21.3906456 57.4627531 32.5918844 54.2630478 32.5918844"></polygon>
                        <polygon id="X-Copy-36" fill="#2ECD72" transform="translate(55.091885, 57.791885) rotate(-315.000000) translate(-55.091885, -57.791885) " points="52.7210174 71.2918859 52.7210174 60.0906471 41.5918847 60.0906471 41.5918847 55.4095324 52.7210174 55.4095324 52.7210174 44.2918849 57.4627531 44.2918849 57.4627531 55.4095324 68.5918858 55.4095324 68.5918858 60.0906471 57.4627531 60.0906471 57.4627531 71.2918859 54.2630478 71.2918859"></polygon>
                        <polygon id="X-Copy-21" fill="#424649" transform="translate(94.691887, 19.091884) rotate(-315.000000) translate(-94.691887, -19.091884) " points="92.321019 32.5918844 92.321019 21.3906456 81.1918863 21.3906456 81.1918863 16.7095308 92.321019 16.7095308 92.321019 5.59188331 97.0627547 5.59188331 97.0627547 16.7095308 108.191887 16.7095308 108.191887 21.3906456 97.0627547 21.3906456 97.0627547 32.5918844 93.8630494 32.5918844"></polygon>
                        <polygon id="X-Copy-22" fill="#424649" transform="translate(19.091884, 95.591887) rotate(-315.000000) translate(-19.091884, -95.591887) " points="16.721016 109.091887 16.721016 97.8906486 5.59188331 97.8906486 5.59188331 93.2095339 16.721016 93.2095339 16.721016 82.0918864 21.4627517 82.0918864 21.4627517 93.2095339 32.5918844 93.2095339 32.5918844 97.8906486 21.4627517 97.8906486 21.4627517 109.091887 18.2630464 109.091887"></polygon>
                        <path d="M55.3500022,102.600004 C59.0809766,102.600004 62.103936,99.5770446 62.103936,95.8500038 C62.103936,92.122963 59.0809766,89.1000035 55.3500022,89.1000035 C51.6190278,89.1000035 48.5960684,92.122963 48.5960684,95.8500038 C48.5960684,99.5770446 51.6190278,102.600004 55.3500022,102.600004 Z M55.3500022,107.100004 C49.1367985,107.100004 44.1000018,102.063207 44.1000018,95.8500038 C44.1000018,89.6368001 49.1367985,84.6000034 55.3500022,84.6000034 C61.5632059,84.6000034 66.6000026,89.6368001 66.6000026,95.8500038 C66.6000026,102.063207 61.5632059,107.100004 55.3500022,107.100004 Z" id="O-Copy-16" fill="#424649" fill-rule="nonzero"></path>
                        <path d="M94.0500037,63.9000025 C97.7809781,63.9000025 100.803938,60.8770431 100.803938,57.1500023 C100.803938,53.4229614 97.7809781,50.400002 94.0500037,50.400002 C90.3190293,50.400002 87.2960699,53.4229614 87.2960699,57.1500023 C87.2960699,60.8770431 90.3190293,63.9000025 94.0500037,63.9000025 Z M94.0500037,68.4000027 C87.8368001,68.4000027 82.8000033,63.363206 82.8000033,57.1500023 C82.8000033,50.9367986 87.8368001,45.9000018 94.0500037,45.9000018 C100.263207,45.9000018 105.300004,50.9367986 105.300004,57.1500023 C105.300004,63.363206 100.263207,68.4000027 94.0500037,68.4000027 Z" id="O-Copy-17" fill="#424649" fill-rule="nonzero"></path>
                        <path d="M19.3500008,27.0000011 C23.0809752,27.0000011 26.1039346,23.9770416 26.1039346,20.2500008 C26.1039346,16.52296 23.0809752,13.5000005 19.3500008,13.5000005 C15.6190264,13.5000005 12.5960669,16.52296 12.5960669,20.2500008 C12.5960669,23.9770416 15.6190264,27.0000011 19.3500008,27.0000011 Z M19.3500008,31.5000013 C13.1367971,31.5000013 8.10000032,26.4632045 8.10000032,20.2500008 C8.10000032,14.0367971 13.1367971,9.00000036 19.3500008,9.00000036 C25.5632045,9.00000036 30.6000012,14.0367971 30.6000012,20.2500008 C30.6000012,26.4632045 25.5632045,31.5000013 19.3500008,31.5000013 Z" id="O-Copy-18" fill="#424649" fill-rule="nonzero"></path>
                        <path d="M94.9500038,102.600004 C98.6809782,102.600004 101.703938,99.5770446 101.703938,95.8500038 C101.703938,92.122963 98.6809782,89.1000035 94.9500038,89.1000035 C91.2190294,89.1000035 88.1960699,92.122963 88.1960699,95.8500038 C88.1960699,99.5770446 91.2190294,102.600004 94.9500038,102.600004 Z M94.9500038,107.100004 C88.7368001,107.100004 83.7000033,102.063207 83.7000033,95.8500038 C83.7000033,89.6368001 88.7368001,84.6000034 94.9500038,84.6000034 C101.163207,84.6000034 106.200004,89.6368001 106.200004,95.8500038 C106.200004,102.063207 101.163207,107.100004 94.9500038,107.100004 Z" id="O-Copy-19" fill="#424649" fill-rule="nonzero"></path>
                    </g>
                    <g id="Group-5" transform="translate(634.600028, 324.000013)">
                        <g id="Group-Copy-3" transform="translate(0.000000, 2.700000)" stroke="#D0D4D9" stroke-width="3.60000014">
                            <path d="M36.9000015,0.450000018 L36.9000015,108.450004" id="Line"></path>
                            <path d="M73.8000029,0.450000018 L73.8000029,108.450004" id="Line-Copy"></path>
                            <path d="M54.9000022,-18.4500007 L54.9000022,90.4500036" id="Line" transform="translate(54.900002, 36.000001) rotate(90.000000) translate(-54.900002, -36.000001) "></path>
                            <path d="M54.9000022,18.4500007 L54.9000022,127.350005" id="Line-Copy" transform="translate(54.900002, 72.900003) rotate(90.000000) translate(-54.900002, -72.900003) "></path>
                        </g>
                        <polygon id="X-Copy-14" fill="#424649" transform="translate(19.091884, 56.891885) rotate(-315.000000) translate(-19.091884, -56.891885) " points="16.721016 70.3918859 16.721016 59.1906471 5.59188331 59.1906471 5.59188331 54.5095323 16.721016 54.5095323 16.721016 43.3918848 21.4627517 43.3918848 21.4627517 54.5095323 32.5918844 54.5095323 32.5918844 59.1906471 21.4627517 59.1906471 21.4627517 70.3918859 18.2630464 70.3918859"></polygon>
                        <polygon id="X-Copy-13" fill="#2ECD72" transform="translate(94.691887, 56.891885) rotate(-315.000000) translate(-94.691887, -56.891885) " points="92.321019 70.3918859 92.321019 59.1906471 81.1918863 59.1906471 81.1918863 54.5095323 92.321019 54.5095323 92.321019 43.3918848 97.0627547 43.3918848 97.0627547 54.5095323 108.191887 54.5095323 108.191887 59.1906471 97.0627547 59.1906471 97.0627547 70.3918859 93.8630494 70.3918859"></polygon>
                        <polygon id="X-Copy-12" fill="#424649" transform="translate(94.691887, 19.091884) rotate(-315.000000) translate(-94.691887, -19.091884) " points="92.321019 32.5918844 92.321019 21.3906456 81.1918863 21.3906456 81.1918863 16.7095308 92.321019 16.7095308 92.321019 5.59188331 97.0627547 5.59188331 97.0627547 16.7095308 108.191887 16.7095308 108.191887 21.3906456 97.0627547 21.3906456 97.0627547 32.5918844 93.8630494 32.5918844"></polygon>
                        <polygon id="X-Copy-11" fill="#424649" transform="translate(19.091884, 94.691887) rotate(-315.000000) translate(-19.091884, -94.691887) " points="16.721016 108.191887 16.721016 96.9906486 5.59188331 96.9906486 5.59188331 92.3095338 16.721016 92.3095338 16.721016 81.1918863 21.4627517 81.1918863 21.4627517 92.3095338 32.5918844 92.3095338 32.5918844 96.9906486 21.4627517 96.9906486 21.4627517 108.191887 18.2630464 108.191887"></polygon>
                        <path d="M55.3500022,101.700004 C59.0809766,101.700004 62.103936,98.6770446 62.103936,94.9500038 C62.103936,91.2229629 59.0809766,88.2000035 55.3500022,88.2000035 C51.6190278,88.2000035 48.5960684,91.2229629 48.5960684,94.9500038 C48.5960684,98.6770446 51.6190278,101.700004 55.3500022,101.700004 Z M55.3500022,106.200004 C49.1367985,106.200004 44.1000018,101.163207 44.1000018,94.9500038 C44.1000018,88.7368001 49.1367985,83.7000033 55.3500022,83.7000033 C61.5632059,83.7000033 66.6000026,88.7368001 66.6000026,94.9500038 C66.6000026,101.163207 61.5632059,106.200004 55.3500022,106.200004 Z" id="O-Copy-11" fill="#424649" fill-rule="nonzero"></path>
                        <path d="M19.3500008,26.100001 C23.0809752,26.100001 26.1039346,23.0770416 26.1039346,19.3500008 C26.1039346,15.6229599 23.0809752,12.6000005 19.3500008,12.6000005 C15.6190264,12.6000005 12.5960669,15.6229599 12.5960669,19.3500008 C12.5960669,23.0770416 15.6190264,26.100001 19.3500008,26.100001 Z M19.3500008,30.6000012 C13.1367971,30.6000012 8.10000032,25.5632045 8.10000032,19.3500008 C8.10000032,13.1367971 13.1367971,8.10000032 19.3500008,8.10000032 C25.5632045,8.10000032 30.6000012,13.1367971 30.6000012,19.3500008 C30.6000012,25.5632045 25.5632045,30.6000012 19.3500008,30.6000012 Z" id="O-Copy-10" fill="#424649" fill-rule="nonzero"></path>
                        <path d="M94.9500038,101.700004 C98.6809782,101.700004 101.703938,98.6770446 101.703938,94.9500038 C101.703938,91.2229629 98.6809782,88.2000035 94.9500038,88.2000035 C91.2190294,88.2000035 88.1960699,91.2229629 88.1960699,94.9500038 C88.1960699,98.6770446 91.2190294,101.700004 94.9500038,101.700004 Z M94.9500038,106.200004 C88.7368001,106.200004 83.7000033,101.163207 83.7000033,94.9500038 C83.7000033,88.7368001 88.7368001,83.7000033 94.9500038,83.7000033 C101.163207,83.7000033 106.200004,88.7368001 106.200004,94.9500038 C106.200004,101.163207 101.163207,106.200004 94.9500038,106.200004 Z" id="O-Copy-9" fill="#424649" fill-rule="nonzero"></path>
                    </g>
                    <g id="Group-11" transform="translate(634.600028, 567.000023)">
                        <g id="Group-Copy-9" transform="translate(0.000000, 2.700000)" stroke="#D0D4D9" stroke-width="3.60000014">
                            <path d="M36.9000015,0.450000018 L36.9000015,108.450004" id="Line"></path>
                            <path d="M73.8000029,0.450000018 L73.8000029,108.450004" id="Line-Copy"></path>
                            <path d="M54.9000022,-18.4500007 L54.9000022,90.4500036" id="Line" transform="translate(54.900002, 36.000001) rotate(90.000000) translate(-54.900002, -36.000001) "></path>
                            <path d="M54.9000022,18.4500007 L54.9000022,127.350005" id="Line-Copy" transform="translate(54.900002, 72.900003) rotate(90.000000) translate(-54.900002, -72.900003) "></path>
                        </g>
                        <polygon id="X-Copy-23" fill="#424649" transform="translate(19.091884, 56.891885) rotate(-315.000000) translate(-19.091884, -56.891885) " points="16.721016 70.3918859 16.721016 59.1906471 5.59188331 59.1906471 5.59188331 54.5095323 16.721016 54.5095323 16.721016 43.3918848 21.4627517 43.3918848 21.4627517 54.5095323 32.5918844 54.5095323 32.5918844 59.1906471 21.4627517 59.1906471 21.4627517 70.3918859 18.2630464 70.3918859"></polygon>
                        <polygon id="X-Copy-24" fill="#424649" transform="translate(94.691887, 56.891885) rotate(-315.000000) translate(-94.691887, -56.891885) " points="92.321019 70.3918859 92.321019 59.1906471 81.1918863 59.1906471 81.1918863 54.5095323 92.321019 54.5095323 92.321019 43.3918848 97.0627547 43.3918848 97.0627547 54.5095323 108.191887 54.5095323 108.191887 59.1906471 97.0627547 59.1906471 97.0627547 70.3918859 93.8630494 70.3918859"></polygon>
                        <polygon id="X-Copy-25" fill="#424649" transform="translate(94.691887, 19.091884) rotate(-315.000000) translate(-94.691887, -19.091884) " points="92.321019 32.5918844 92.321019 21.3906456 81.1918863 21.3906456 81.1918863 16.7095308 92.321019 16.7095308 92.321019 5.59188331 97.0627547 5.59188331 97.0627547 16.7095308 108.191887 16.7095308 108.191887 21.3906456 97.0627547 21.3906456 97.0627547 32.5918844 93.8630494 32.5918844"></polygon>
                        <polygon id="X-Copy-26" fill="#424649" transform="translate(19.091884, 94.691887) rotate(-315.000000) translate(-19.091884, -94.691887) " points="16.721016 108.191887 16.721016 96.9906486 5.59188331 96.9906486 5.59188331 92.3095338 16.721016 92.3095338 16.721016 81.1918863 21.4627517 81.1918863 21.4627517 92.3095338 32.5918844 92.3095338 32.5918844 96.9906486 21.4627517 96.9906486 21.4627517 108.191887 18.2630464 108.191887"></polygon>
                        <path d="M55.3500022,101.700004 C59.0809766,101.700004 62.103936,98.6770446 62.103936,94.9500038 C62.103936,91.2229629 59.0809766,88.2000035 55.3500022,88.2000035 C51.6190278,88.2000035 48.5960684,91.2229629 48.5960684,94.9500038 C48.5960684,98.6770446 51.6190278,101.700004 55.3500022,101.700004 Z M55.3500022,106.200004 C49.1367985,106.200004 44.1000018,101.163207 44.1000018,94.9500038 C44.1000018,88.7368001 49.1367985,83.7000033 55.3500022,83.7000033 C61.5632059,83.7000033 66.6000026,88.7368001 66.6000026,94.9500038 C66.6000026,101.163207 61.5632059,106.200004 55.3500022,106.200004 Z" id="O-Copy-20" fill="#424649" fill-rule="nonzero"></path>
                        <path d="M55.3500022,63.9000025 C59.0809766,63.9000025 62.103936,60.8770431 62.103936,57.1500023 C62.103936,53.4229614 59.0809766,50.400002 55.3500022,50.400002 C51.6190278,50.400002 48.5960684,53.4229614 48.5960684,57.1500023 C48.5960684,60.8770431 51.6190278,63.9000025 55.3500022,63.9000025 Z M55.3500022,68.4000027 C49.1367985,68.4000027 44.1000018,63.363206 44.1000018,57.1500023 C44.1000018,50.9367986 49.1367985,45.9000018 55.3500022,45.9000018 C61.5632059,45.9000018 66.6000026,50.9367986 66.6000026,57.1500023 C66.6000026,63.363206 61.5632059,68.4000027 55.3500022,68.4000027 Z" id="O-Copy-26" fill="#C885FF" fill-rule="nonzero"></path>
                        <path d="M19.3500008,26.100001 C23.0809752,26.100001 26.1039346,23.0770416 26.1039346,19.3500008 C26.1039346,15.6229599 23.0809752,12.6000005 19.3500008,12.6000005 C15.6190264,12.6000005 12.5960669,15.6229599 12.5960669,19.3500008 C12.5960669,23.0770416 15.6190264,26.100001 19.3500008,26.100001 Z M19.3500008,30.6000012 C13.1367971,30.6000012 8.10000032,25.5632045 8.10000032,19.3500008 C8.10000032,13.1367971 13.1367971,8.10000032 19.3500008,8.10000032 C25.5632045,8.10000032 30.6000012,13.1367971 30.6000012,19.3500008 C30.6000012,25.5632045 25.5632045,30.6000012 19.3500008,30.6000012 Z" id="O-Copy-21" fill="#424649" fill-rule="nonzero"></path>
                        <path d="M94.9500038,101.700004 C98.6809782,101.700004 101.703938,98.6770446 101.703938,94.9500038 C101.703938,91.2229629 98.6809782,88.2000035 94.9500038,88.2000035 C91.2190294,88.2000035 88.1960699,91.2229629 88.1960699,94.9500038 C88.1960699,98.6770446 91.2190294,101.700004 94.9500038,101.700004 Z M94.9500038,106.200004 C88.7368001,106.200004 83.7000033,101.163207 83.7000033,94.9500038 C83.7000033,88.7368001 88.7368001,83.7000033 94.9500038,83.7000033 C101.163207,83.7000033 106.200004,88.7368001 106.200004,94.9500038 C106.200004,101.163207 101.163207,106.200004 94.9500038,106.200004 Z" id="O-Copy-22" fill="#424649" fill-rule="nonzero"></path>
                    </g>
                    <g id="Group-12" transform="translate(835.900038, 567.000023)">
                        <g id="Group-Copy-10" transform="translate(0.000000, 2.700000)" stroke="#D0D4D9" stroke-width="3.60000014">
                            <path d="M36.9000015,0.450000018 L36.9000015,108.450004" id="Line"></path>
                            <path d="M73.8000029,0.450000018 L73.8000029,108.450004" id="Line-Copy"></path>
                            <path d="M54.9000022,-18.4500007 L54.9000022,90.4500036" id="Line" transform="translate(54.900002, 36.000001) rotate(90.000000) translate(-54.900002, -36.000001) "></path>
                            <path d="M54.9000022,18.4500007 L54.9000022,127.350005" id="Line-Copy" transform="translate(54.900002, 72.900003) rotate(90.000000) translate(-54.900002, -72.900003) "></path>
                        </g>
                        <polygon id="X-Copy-27" fill="#424649" transform="translate(19.091884, 56.891885) rotate(-315.000000) translate(-19.091884, -56.891885) " points="16.721016 70.3918859 16.721016 59.1906471 5.59188331 59.1906471 5.59188331 54.5095323 16.721016 54.5095323 16.721016 43.3918848 21.4627517 43.3918848 21.4627517 54.5095323 32.5918844 54.5095323 32.5918844 59.1906471 21.4627517 59.1906471 21.4627517 70.3918859 18.2630464 70.3918859"></polygon>
                        <polygon id="X-Copy-28" fill="#424649" transform="translate(94.691887, 56.891885) rotate(-315.000000) translate(-94.691887, -56.891885) " points="92.321019 70.3918859 92.321019 59.1906471 81.1918863 59.1906471 81.1918863 54.5095323 92.321019 54.5095323 92.321019 43.3918848 97.0627547 43.3918848 97.0627547 54.5095323 108.191887 54.5095323 108.191887 59.1906471 97.0627547 59.1906471 97.0627547 70.3918859 93.8630494 70.3918859"></polygon>
                        <polygon id="X-Copy-29" fill="#424649" transform="translate(95.591887, 19.091884) rotate(-315.000000) translate(-95.591887, -19.091884) " points="93.221019 32.5918844 93.221019 21.3906456 82.0918864 21.3906456 82.0918864 16.7095308 93.221019 16.7095308 93.221019 5.59188331 97.9627548 5.59188331 97.9627548 16.7095308 109.091887 16.7095308 109.091887 21.3906456 97.9627548 21.3906456 97.9627548 32.5918844 94.7630494 32.5918844"></polygon>
                        <polygon id="X-Copy-30" fill="#424649" transform="translate(19.091884, 94.691887) rotate(-315.000000) translate(-19.091884, -94.691887) " points="16.721016 108.191887 16.721016 96.9906486 5.59188331 96.9906486 5.59188331 92.3095338 16.721016 92.3095338 16.721016 81.1918863 21.4627517 81.1918863 21.4627517 92.3095338 32.5918844 92.3095338 32.5918844 96.9906486 21.4627517 96.9906486 21.4627517 108.191887 18.2630464 108.191887"></polygon>
                        <path d="M55.3500022,101.700004 C59.0809766,101.700004 62.103936,98.6770446 62.103936,94.9500038 C62.103936,91.2229629 59.0809766,88.2000035 55.3500022,88.2000035 C51.6190278,88.2000035 48.5960684,91.2229629 48.5960684,94.9500038 C48.5960684,98.6770446 51.6190278,101.700004 55.3500022,101.700004 Z M55.3500022,106.200004 C49.1367985,106.200004 44.1000018,101.163207 44.1000018,94.9500038 C44.1000018,88.7368001 49.1367985,83.7000033 55.3500022,83.7000033 C61.5632059,83.7000033 66.6000026,88.7368001 66.6000026,94.9500038 C66.6000026,101.163207 61.5632059,106.200004 55.3500022,106.200004 Z" id="O-Copy-23" fill="#424649" fill-rule="nonzero"></path>
                        <path d="M55.3500022,26.100001 C59.0809766,26.100001 62.103936,23.0770416 62.103936,19.3500008 C62.103936,15.6229599 59.0809766,12.6000005 55.3500022,12.6000005 C51.6190278,12.6000005 48.5960684,15.6229599 48.5960684,19.3500008 C48.5960684,23.0770416 51.6190278,26.100001 55.3500022,26.100001 Z M55.3500022,30.6000012 C49.1367985,30.6000012 44.1000018,25.5632045 44.1000018,19.3500008 C44.1000018,13.1367971 49.1367985,8.10000032 55.3500022,8.10000032 C61.5632059,8.10000032 66.6000026,13.1367971 66.6000026,19.3500008 C66.6000026,25.5632045 61.5632059,30.6000012 55.3500022,30.6000012 Z" id="O-Copy-27" fill="#C885FF" fill-rule="nonzero"></path>
                        <path d="M19.3500008,26.100001 C23.0809752,26.100001 26.1039346,23.0770416 26.1039346,19.3500008 C26.1039346,15.6229599 23.0809752,12.6000005 19.3500008,12.6000005 C15.6190264,12.6000005 12.5960669,15.6229599 12.5960669,19.3500008 C12.5960669,23.0770416 15.6190264,26.100001 19.3500008,26.100001 Z M19.3500008,30.6000012 C13.1367971,30.6000012 8.10000032,25.5632045 8.10000032,19.3500008 C8.10000032,13.1367971 13.1367971,8.10000032 19.3500008,8.10000032 C25.5632045,8.10000032 30.6000012,13.1367971 30.6000012,19.3500008 C30.6000012,25.5632045 25.5632045,30.6000012 19.3500008,30.6000012 Z" id="O-Copy-24" fill="#424649" fill-rule="nonzero"></path>
                        <path d="M94.9500038,101.700004 C98.6809782,101.700004 101.703938,98.6770446 101.703938,94.9500038 C101.703938,91.2229629 98.6809782,88.2000035 94.9500038,88.2000035 C91.2190294,88.2000035 88.1960699,91.2229629 88.1960699,94.9500038 C88.1960699,98.6770446 91.2190294,101.700004 94.9500038,101.700004 Z M94.9500038,106.200004 C88.7368001,106.200004 83.7000033,101.163207 83.7000033,94.9500038 C83.7000033,88.7368001 88.7368001,83.7000033 94.9500038,83.7000033 C101.163207,83.7000033 106.200004,88.7368001 106.200004,94.9500038 C106.200004,101.163207 101.163207,106.200004 94.9500038,106.200004 Z" id="O-Copy-25" fill="#424649" fill-rule="nonzero"></path>
                    </g>
                    <g id="Group-13" transform="translate(835.900038, 815.400032)">
                        <g id="Group-Copy-11" transform="translate(0.000000, 2.700000)" stroke="#D0D4D9" stroke-width="3.60000014">
                            <path d="M36.9000015,0.450000018 L36.9000015,108.450004" id="Line"></path>
                            <path d="M73.8000029,0.450000018 L73.8000029,108.450004" id="Line-Copy"></path>
                            <path d="M54.9000022,-18.4500007 L54.9000022,90.4500036" id="Line" transform="translate(54.900002, 36.000001) rotate(90.000000) translate(-54.900002, -36.000001) "></path>
                            <path d="M54.9000022,18.4500007 L54.9000022,127.350005" id="Line-Copy" transform="translate(54.900002, 72.900003) rotate(90.000000) translate(-54.900002, -72.900003) "></path>
                        </g>
                        <polygon id="X-Copy-31" fill="#424649" transform="translate(19.091884, 56.891885) rotate(-315.000000) translate(-19.091884, -56.891885) " points="16.721016 70.3918859 16.721016 59.1906471 5.59188331 59.1906471 5.59188331 54.5095323 16.721016 54.5095323 16.721016 43.3918848 21.4627517 43.3918848 21.4627517 54.5095323 32.5918844 54.5095323 32.5918844 59.1906471 21.4627517 59.1906471 21.4627517 70.3918859 18.2630464 70.3918859"></polygon>
                        <polygon id="X-Copy-35" fill="#2ECD72" transform="translate(55.091885, 56.891885) rotate(-315.000000) translate(-55.091885, -56.891885) " points="52.7210174 70.3918859 52.7210174 59.1906471 41.5918847 59.1906471 41.5918847 54.5095323 52.7210174 54.5095323 52.7210174 43.3918848 57.4627531 43.3918848 57.4627531 54.5095323 68.5918858 54.5095323 68.5918858 59.1906471 57.4627531 59.1906471 57.4627531 70.3918859 54.2630478 70.3918859"></polygon>
                        <polygon id="X-Copy-32" fill="#424649" transform="translate(94.691887, 56.891885) rotate(-315.000000) translate(-94.691887, -56.891885) " points="92.321019 70.3918859 92.321019 59.1906471 81.1918863 59.1906471 81.1918863 54.5095323 92.321019 54.5095323 92.321019 43.3918848 97.0627547 43.3918848 97.0627547 54.5095323 108.191887 54.5095323 108.191887 59.1906471 97.0627547 59.1906471 97.0627547 70.3918859 93.8630494 70.3918859"></polygon>
                        <polygon id="X-Copy-33" fill="#424649" transform="translate(95.591887, 19.091884) rotate(-315.000000) translate(-95.591887, -19.091884) " points="93.221019 32.5918844 93.221019 21.3906456 82.0918864 21.3906456 82.0918864 16.7095308 93.221019 16.7095308 93.221019 5.59188331 97.9627548 5.59188331 97.9627548 16.7095308 109.091887 16.7095308 109.091887 21.3906456 97.9627548 21.3906456 97.9627548 32.5918844 94.7630494 32.5918844"></polygon>
                        <polygon id="X-Copy-34" fill="#424649" transform="translate(19.091884, 94.691887) rotate(-315.000000) translate(-19.091884, -94.691887) " points="16.721016 108.191887 16.721016 96.9906486 5.59188331 96.9906486 5.59188331 92.3095338 16.721016 92.3095338 16.721016 81.1918863 21.4627517 81.1918863 21.4627517 92.3095338 32.5918844 92.3095338 32.5918844 96.9906486 21.4627517 96.9906486 21.4627517 108.191887 18.2630464 108.191887"></polygon>
                        <path d="M55.3500022,101.700004 C59.0809766,101.700004 62.103936,98.6770446 62.103936,94.9500038 C62.103936,91.2229629 59.0809766,88.2000035 55.3500022,88.2000035 C51.6190278,88.2000035 48.5960684,91.2229629 48.5960684,94.9500038 C48.5960684,98.6770446 51.6190278,101.700004 55.3500022,101.700004 Z M55.3500022,106.200004 C49.1367985,106.200004 44.1000018,101.163207 44.1000018,94.9500038 C44.1000018,88.7368001 49.1367985,83.7000033 55.3500022,83.7000033 C61.5632059,83.7000033 66.6000026,88.7368001 66.6000026,94.9500038 C66.6000026,101.163207 61.5632059,106.200004 55.3500022,106.200004 Z" id="O-Copy-28" fill="#424649" fill-rule="nonzero"></path>
                        <path d="M55.3500022,26.100001 C59.0809766,26.100001 62.103936,23.0770416 62.103936,19.3500008 C62.103936,15.6229599 59.0809766,12.6000005 55.3500022,12.6000005 C51.6190278,12.6000005 48.5960684,15.6229599 48.5960684,19.3500008 C48.5960684,23.0770416 51.6190278,26.100001 55.3500022,26.100001 Z M55.3500022,30.6000012 C49.1367985,30.6000012 44.1000018,25.5632045 44.1000018,19.3500008 C44.1000018,13.1367971 49.1367985,8.10000032 55.3500022,8.10000032 C61.5632059,8.10000032 66.6000026,13.1367971 66.6000026,19.3500008 C66.6000026,25.5632045 61.5632059,30.6000012 55.3500022,30.6000012 Z" id="O-Copy-29" fill="#424649" fill-rule="nonzero"></path>
                        <path d="M19.3500008,26.100001 C23.0809752,26.100001 26.1039346,23.0770416 26.1039346,19.3500008 C26.1039346,15.6229599 23.0809752,12.6000005 19.3500008,12.6000005 C15.6190264,12.6000005 12.5960669,15.6229599 12.5960669,19.3500008 C12.5960669,23.0770416 15.6190264,26.100001 19.3500008,26.100001 Z M19.3500008,30.6000012 C13.1367971,30.6000012 8.10000032,25.5632045 8.10000032,19.3500008 C8.10000032,13.1367971 13.1367971,8.10000032 19.3500008,8.10000032 C25.5632045,8.10000032 30.6000012,13.1367971 30.6000012,19.3500008 C30.6000012,25.5632045 25.5632045,30.6000012 19.3500008,30.6000012 Z" id="O-Copy-30" fill="#424649" fill-rule="nonzero"></path>
                        <path d="M94.9500038,101.700004 C98.6809782,101.700004 101.703938,98.6770446 101.703938,94.9500038 C101.703938,91.2229629 98.6809782,88.2000035 94.9500038,88.2000035 C91.2190294,88.2000035 88.1960699,91.2229629 88.1960699,94.9500038 C88.1960699,98.6770446 91.2190294,101.700004 94.9500038,101.700004 Z M94.9500038,106.200004 C88.7368001,106.200004 83.7000033,101.163207 83.7000033,94.9500038 C83.7000033,88.7368001 88.7368001,83.7000033 94.9500038,83.7000033 C101.163207,83.7000033 106.200004,88.7368001 106.200004,94.9500038 C106.200004,101.163207 101.163207,106.200004 94.9500038,106.200004 Z" id="O-Copy-31" fill="#424649" fill-rule="nonzero"></path>
                    </g>
                    <text id="1" font-family="AvenirNext-DemiBold, Avenir Next" font-size="21.6000009" font-weight="500" letter-spacing="-0.144000003" fill="#424649">
                        <tspan x="328.834016" y="22">1</tspan>
                    </text>
                    <text id="2" font-family="AvenirNext-DemiBold, Avenir Next" font-size="21.6000009" font-weight="500" letter-spacing="-0.144000003" fill="#424649">
                        <tspan x="51.534002" y="307.300011">2</tspan>
                    </text>
                    <text id="3" font-family="AvenirNext-DemiBold, Avenir Next" font-size="21.6000009" font-weight="500" letter-spacing="-0.144000003" fill="#424649">
                        <tspan x="328.834016" y="307.300011">3</tspan>
                    </text>
                    <text id="5" font-family="AvenirNext-DemiBold, Avenir Next" font-size="21.6000009" font-weight="500" letter-spacing="-0.144000003" fill="#424649">
                        <tspan x="236.134013" y="547.600021">5</tspan>
                    </text>
                    <text id="6" font-family="AvenirNext-DemiBold, Avenir Next" font-size="21.6000009" font-weight="500" letter-spacing="-0.144000003" fill="#424649">
                        <tspan x="440.434021" y="547.600021">6</tspan>
                    </text>
                    <text id="7" opacity="0.800000012" font-family="AvenirNext-DemiBold, Avenir Next" font-size="21.6000009" font-weight="500" letter-spacing="-0.144000003" fill="#424649">
                        <tspan x="686.13403" y="550.300021">7</tspan>
                    </text>
                    <text id="8" font-family="AvenirNext-DemiBold, Avenir Next" font-size="21.6000009" font-weight="500" letter-spacing="-0.144000003" fill="#424649">
                        <tspan x="887.43404" y="550.300021">8</tspan>
                    </text>
                    <text id="10" font-family="AvenirNext-DemiBold, Avenir Next" font-size="21.6000009" font-weight="500" letter-spacing="-0.144000003" fill="#424649">
                        <tspan x="880.918039" y="798.700031">10</tspan>
                    </text>
                    <text id="9-copy" font-family="AvenirNext-DemiBold, Avenir Next" font-size="21.6000009" font-weight="500" letter-spacing="-0.144000003" fill="#424649">
                        <tspan x="439.534021" y="798.700031">9</tspan>
                    </text>
                    <text id="4" font-family="AvenirNext-DemiBold, Avenir Next" font-size="21.6000009" font-weight="500" letter-spacing="-0.144000003" fill="#424649">
                        <tspan x="686.13403" y="307.300011">4</tspan>
                    </text>
                    <g id="Group-14" transform="translate(26.100001, 456.300018)">
                        <g id="Rectangle-31-Copy-2" stroke-linecap="square">
                            <use fill="#63B5FF" fill-rule="evenodd" xlink:href="#path-1"></use>
                            <rect stroke="#FFFFFF" stroke-width="2.88000011" x="-1.44000006" y="-1.44000006" width="64.1608619" height="31.6800013" rx="15.8400006"></rect>
                        </g>
                        <path d="M24.2641106,14.4931207 L24.2641106,10.3747205 L26.1735507,10.3747205 L26.1735507,14.4931207 L30.2919509,14.4931207 L30.2919509,16.4025608 L26.1735507,16.4025608 L26.1735507,20.5209609 L24.2641106,20.5209609 L24.2641106,16.4025608 L20.1457105,16.4025608 L20.1457105,14.4931207 L24.2641106,14.4931207 Z M36.3874711,10.5993605 L33.766671,12.7521606 L32.456271,11.1984006 L36.5933911,7.86624043 L38.6338712,7.86624043 L38.6338712,21.120001 L36.3874711,21.120001 L36.3874711,10.5993605 Z" id="+1" fill="#FFFFFF"></path>
                    </g>
                    <g id="Group-14-Copy" transform="translate(210.700012, 697.500028)">
                        <g id="Rectangle-31-Copy-2" stroke-linecap="square">
                            <use fill="#63B5FF" fill-rule="evenodd" xlink:href="#path-2"></use>
                            <rect stroke="#FFFFFF" stroke-width="2.88000011" x="-1.44000006" y="-1.44000006" width="64.1608619" height="31.6800013" rx="15.8400006"></rect>
                        </g>
                        <path d="M28.4012308,17.3760008 L22.0364306,17.3760008 L22.0364306,15.6537607 L28.4012308,15.6537607 L28.4012308,17.3760008 Z M33.897711,10.5993605 L31.2769109,12.7521606 L29.9665109,11.1984006 L34.103631,7.86624043 L36.1441111,7.86624043 L36.1441111,21.120001 L33.897711,21.120001 L33.897711,10.5993605 Z" id="1" fill="#FFFFFF"></path>
                    </g>
                    <g id="Group-14-Copy-2" transform="translate(415.000020, 947.700038)">
                        <g id="Rectangle-31-Copy-2" stroke-linecap="square">
                            <use fill="#63B5FF" fill-rule="evenodd" xlink:href="#path-3"></use>
                            <rect stroke="#FFFFFF" stroke-width="2.88000011" x="-1.44000006" y="-1.44000006" width="64.1608619" height="31.6800013" rx="15.8400006"></rect>
                        </g>
                        <path d="M24.2641106,14.4931207 L24.2641106,10.3747205 L26.1735507,10.3747205 L26.1735507,14.4931207 L30.2919509,14.4931207 L30.2919509,16.4025608 L26.1735507,16.4025608 L26.1735507,20.5209609 L24.2641106,20.5209609 L24.2641106,16.4025608 L20.1457105,16.4025608 L20.1457105,14.4931207 L24.2641106,14.4931207 Z M36.3874711,10.5993605 L33.766671,12.7521606 L32.456271,11.1984006 L36.5933911,7.86624043 L38.6338712,7.86624043 L38.6338712,21.120001 L36.3874711,21.120001 L36.3874711,10.5993605 Z" id="+1" fill="#FFFFFF"></path>
                    </g>
                    <g id="Group-14-Copy-3" transform="translate(660.700029, 697.500028)">
                        <g id="Rectangle-31-Copy-2" stroke-linecap="square">
                            <use fill="#63B5FF" fill-rule="evenodd" xlink:href="#path-4"></use>
                            <rect stroke="#FFFFFF" stroke-width="2.88000011" x="-1.44000006" y="-1.44000006" width="64.1608619" height="31.6800013" rx="15.8400006"></rect>
                        </g>
                        <path d="M28.4012308,17.3760008 L22.0364306,17.3760008 L22.0364306,15.6537607 L28.4012308,15.6537607 L28.4012308,17.3760008 Z M33.897711,10.5993605 L31.2769109,12.7521606 L29.9665109,11.1984006 L34.103631,7.86624043 L36.1441111,7.86624043 L36.1441111,21.120001 L33.897711,21.120001 L33.897711,10.5993605 Z" id="1" fill="#FFFFFF"></path>
                    </g>
                    <g id="Group-14-Copy-4" transform="translate(860.200039, 947.700038)">
                        <g id="Rectangle-31-Copy-2" stroke-linecap="square">
                            <use fill="#63B5FF" fill-rule="evenodd" xlink:href="#path-5"></use>
                            <rect stroke="#FFFFFF" stroke-width="2.88000011" x="-1.44000006" y="-1.44000006" width="64.1608619" height="31.6800013" rx="15.8400006"></rect>
                        </g>
                        <path d="M24.2641106,14.4931207 L24.2641106,10.3747205 L26.1735507,10.3747205 L26.1735507,14.4931207 L30.2919509,14.4931207 L30.2919509,16.4025608 L26.1735507,16.4025608 L26.1735507,20.5209609 L24.2641106,20.5209609 L24.2641106,16.4025608 L20.1457105,16.4025608 L20.1457105,14.4931207 L24.2641106,14.4931207 Z M36.3874711,10.5993605 L33.766671,12.7521606 L32.456271,11.1984006 L36.5933911,7.86624043 L38.6338712,7.86624043 L38.6338712,21.120001 L36.3874711,21.120001 L36.3874711,10.5993605 Z" id="+1" fill="#FFFFFF"></path>
                    </g>
                    <path d="M334.000016,184.050007 L334.000016,263.25001" id="Line-2" stroke="#63B5FF" stroke-width="3.60000014" stroke-linecap="square"></path>
                    <path d="M334.000016,184.500007 L646.750029,281.700011" id="Line-2-Copy" stroke="#63B5FF" stroke-width="3.60000014" stroke-linecap="square"></path>
                    <path d="M333.100016,460.800018 L390.126939,513.00002" id="Line-2-Copy-3" stroke="#63B5FF" stroke-width="3.60000014" stroke-linecap="square"></path>
                    <path d="M693.317064,462.600018 L843.522334,513.00002" id="Line-2-Copy-5" stroke="#63B5FF" stroke-width="3.60000014" stroke-linecap="square"></path>
                    <path d="M108.650016,184.500007 L331.800033,281.5" id="Line-2-Copy-2" stroke="#63B5FF" stroke-width="3.60000014" stroke-linecap="square" transform="translate(220.650016, 233.000007) scale(-1, 1) translate(-220.650016, -233.000007) "></path>
                    <path d="M333.426937,460.800018 L276.400014,513.00002 L333.426937,460.800018 Z" id="Line-2-Copy-4" stroke="#63B5FF" stroke-width="3.60000014" stroke-linecap="square"></path>
                    <path d="M692.44581,460.800018 L692.200031,513.00002 L692.44581,460.800018 Z" id="Line-2-Copy-6" stroke="#63B5FF" stroke-width="3.60000014" stroke-linecap="square"></path>
                    <path d="M445.8458,702.000028 L445.600021,754.20003 L445.8458,702.000028 Z" id="Line-2-Copy-7" stroke="#63B5FF" stroke-width="3.60000014" stroke-linecap="square"></path>
                    <path d="M893.745819,702.000028 L893.50004,754.20003 L893.745819,702.000028 Z" id="Line-2-Copy-8" stroke="#63B5FF" stroke-width="3.60000014" stroke-linecap="square"></path>
                    <polyline id="Rectangle" stroke="#63B5FF" stroke-width="3.60000014" stroke-linecap="square" transform="translate(111.274928, 280.674935) rotate(-67.000000) translate(-111.274928, -280.674935) " points="106.774928 285.174936 106.774928 276.174935 106.774928 276.174935 115.774929 276.174935"></polyline>
                    <polyline id="Rectangle-Copy-3" stroke="#63B5FF" stroke-width="3.60000014" stroke-linecap="square" transform="translate(642.574953, 280.674935) scale(-1, 1) rotate(-59.000000) translate(-642.574953, -280.674935) " points="638.074953 285.174936 638.074953 276.174935 638.074953 276.174935 647.074953 276.174935"></polyline>
                    <polyline id="Rectangle" stroke="#63B5FF" stroke-width="3.60000014" stroke-linecap="square" transform="translate(334.063977, 261.063971) rotate(-135.000000) translate(-334.063977, -261.063971) " points="329.563977 265.563972 329.563977 256.563971 329.563977 256.563971 338.563978 256.563971"></polyline>
                    <polyline id="Rectangle" stroke="#63B5FF" stroke-width="3.60000014" stroke-linecap="square" transform="translate(445.663982, 749.763991) rotate(-135.000000) translate(-445.663982, -749.763991) " points="441.163982 754.263991 441.163982 745.263991 441.163982 745.263991 450.163982 745.263991"></polyline>
                    <polyline id="Rectangle-Copy-2" stroke="#63B5FF" stroke-width="3.60000014" stroke-linecap="square" transform="translate(893.564001, 749.763991) rotate(-135.000000) translate(-893.564001, -749.763991) " points="889.064001 754.263991 889.064001 745.263991 889.064001 745.263991 898.064001 745.263991"></polyline>
                    <polyline id="Rectangle" stroke="#63B5FF" stroke-width="3.60000014" stroke-linecap="square" transform="translate(692.263992, 508.563981) rotate(-135.000000) translate(-692.263992, -508.563981) " points="687.763992 513.063981 687.763992 504.063981 687.763992 504.063981 696.763992 504.063981"></polyline>
                    <polyline id="Rectangle-Copy-4" stroke="#63B5FF" stroke-width="3.60000014" stroke-linecap="square" transform="translate(387.100019, 510.300020) rotate(-180.000000) translate(-387.100019, -510.300020) " points="382.600018 514.80002 382.600018 505.80002 382.600018 505.80002 391.600019 505.80002"></polyline>
                    <polyline id="Rectangle-Copy-5" stroke="#63B5FF" stroke-width="3.60000014" stroke-linecap="square" transform="translate(279.100014, 510.300020) scale(-1, 1) rotate(-180.000000) translate(-279.100014, -510.300020) " points="274.600014 514.80002 274.600014 505.80002 274.600014 505.80002 283.600014 505.80002"></polyline>
                    <polyline id="Rectangle-Copy" stroke="#63B5FF" stroke-width="3.60000014" stroke-linecap="square" transform="translate(840.374962, 511.974945) rotate(-211.000000) translate(-840.374962, -511.974945) " points="835.874961 516.474945 835.874961 507.474944 835.874961 507.474944 844.874962 507.474944"></polyline>
                </g>
            </g>
        </g>
    </g>
</svg>