<?xml version="1.0" encoding="utf-8"?>
<!-- Generator: Adobe Illustrator 21.0.2, SVG Export Plug-In . SVG Version: 6.00 Build 0)  -->
<!DOCTYPE svg PUBLIC "-//W3C//DTD SVG 1.1//EN" "http://www.w3.org/Graphics/SVG/1.1/DTD/svg11.dtd">
<svg version="1.1" id="logo_complete" xmlns="http://www.w3.org/2000/svg" xmlns:xlink="http://www.w3.org/1999/xlink" x="0px"
	 y="0px" width="457.3px" height="80.2px" viewBox="0 0 457.3 80.2" enable-background="new 0 0 457.3 80.2" xml:space="preserve">
<g>
	<path fill="#424548" d="M68.8,0.2H11.5C5.2,0.2,0.2,5.3,0.2,11.5v57.3c0,6.3,5.1,11.3,11.3,11.3h57.3c6.3,0,11.3-5.1,11.3-11.3
		V11.5C80.2,5.3,75.1,0.2,68.8,0.2z M40.5,63.2c-3.5,3.4-7.8,5.2-12.8,5.2c-3.9,0-8.2-1.2-12.7-3.5v-13c4.1,3.8,7.9,5.7,11.5,5.7
		c1.8,0,3.4-0.6,4.7-1.8c1.3-1.2,2-2.6,2-4.3c0-1.4-0.5-2.6-1.4-3.6c-1-1-2.7-2.3-5.4-3.6c-3.7-1.8-6.5-3.9-8.5-6.1
		c-2-2.2-3-5.1-3-8.5c0-4.4,1.5-8.1,4.6-11.1c3.1-3,7.1-4.5,12.2-4.5c3.5,0,7.1,0.9,10.8,2.8v12.6c-3.3-3.2-6.5-4.8-9.6-4.8
		c-1.5,0-2.8,0.5-3.9,1.4c-1.1,0.9-1.7,2-1.7,3.3c0,1.3,0.5,2.3,1.4,3.2c0.9,0.9,2.5,1.9,4.9,3c3.9,1.8,6.9,3.8,9,6
		c2,2.3,3.1,5.4,3.1,9.2C45.8,55.6,44.1,59.7,40.5,63.2z M64.1,67.5H52v-36c0,0,1.6,2.2,6.1,2.2c4.5,0,5.9-2.2,5.9-2.2V67.5z
		 M62.7,24.9c-1.3,1.2-2.8,1.8-4.5,1.8c-1.8,0-3.3-0.6-4.6-1.9c-1.2-1.3-1.9-2.8-1.9-4.5c0-1.8,0.6-3.3,1.9-4.5
		c1.3-1.2,2.8-1.9,4.5-1.9c1.6,0,3.1,0.6,4.5,1.8c1.3,1.2,2,2.7,2,4.6C64.6,22.2,63.9,23.7,62.7,24.9z"/>
</g>
<text transform="matrix(1 0 0 1 106.0013 53.071)" fill="#424548" font-family="'AvenirNext-DemiBold'" font-size="36.7516px">Small Improvements</text>
</svg>
