<?xml version="1.0" encoding="utf-8"?>
<!-- Generator: Adobe Illustrator 21.0.2, SVG Export Plug-In . SVG Version: 6.00 Build 0)  -->
<!DOCTYPE svg PUBLIC "-//W3C//DTD SVG 1.1//EN" "http://www.w3.org/Graphics/SVG/1.1/DTD/svg11.dtd">
<svg version="1.1" id="logo_complete" xmlns="http://www.w3.org/2000/svg" xmlns:xlink="http://www.w3.org/1999/xlink" x="0px"
	 y="0px" width="284.7px" height="80px" viewBox="0 0 284.7 80" enable-background="new 0 0 284.7 80" xml:space="preserve">
<g>
	<g>
		<defs>
			<path id="SVGID_1_" d="M11.3,0C5.1,0,0,5.1,0,11.3v57.4C0,74.9,5.1,80,11.3,80h57.3C74.9,80,80,74.9,80,68.7V11.3
				C80,5.1,74.9,0,68.7,0H11.3z"/>
		</defs>
		<clipPath id="SVGID_2_">
			<use xlink:href="#SVGID_1_"  overflow="visible"/>
		</clipPath>
		
			<linearGradient id="SVGID_3_" gradientUnits="userSpaceOnUse" x1="10.3202" y1="77.7775" x2="11.3787" y2="77.7775" gradientTransform="matrix(0 75.5551 75.5551 0 -5836.4937 -779.7421)">
			<stop  offset="0" style="stop-color:#F8EE65"/>
			<stop  offset="1" style="stop-color:#F9A51B"/>
		</linearGradient>
		<rect clip-path="url(#SVGID_2_)" fill="url(#SVGID_3_)" width="80" height="80"/>
	</g>
	<g>
		<path d="M14.8,51.6c4.1,3.8,7.9,5.7,11.5,5.7c1.8,0,3.4-0.6,4.7-1.8c1.3-1.2,2-2.6,2-4.3c0-1.4-0.5-2.6-1.4-3.6
			c-1-1-2.7-2.3-5.4-3.6c-3.7-1.8-6.5-3.9-8.5-6.1c-2-2.2-3-5.1-3-8.5c0-4.4,1.5-8.1,4.6-11.1c3.1-3,7.1-4.5,12.2-4.5
			c3.5,0,7.1,0.9,10.8,2.8v12.6c-3.3-3.2-6.5-4.8-9.6-4.8c-1.5,0-2.8,0.5-3.9,1.4c-1.1,0.9-1.7,2-1.7,3.3c0,1.3,0.5,2.3,1.4,3.2
			c0.9,0.9,2.5,1.9,4.9,3c3.9,1.8,6.9,3.8,9,6c2,2.3,3.1,5.4,3.1,9.2c0,4.9-1.8,9-5.3,12.5c-3.5,3.4-7.8,5.2-12.8,5.2
			c-3.9,0-8.2-1.2-12.7-3.5V51.6z"/>
		<path d="M58,13.8c1.6,0,3.1,0.6,4.5,1.8c1.3,1.2,2,2.7,2,4.6c0,1.8-0.6,3.3-1.9,4.5c-1.3,1.2-2.8,1.8-4.5,1.8
			c-1.8,0-3.3-0.6-4.6-1.9c-1.2-1.3-1.9-2.8-1.9-4.5c0-1.8,0.6-3.3,1.9-4.5C54.7,14.4,56.2,13.8,58,13.8 M51.9,31.4
			c0,0,1.6,2.2,6.1,2.2c4.5,0,5.9-2.2,5.9-2.2v36h-12V31.4z"/>
	</g>
	<g>
		<path d="M93.4,31.7c1.8,1.7,3.6,2.6,5.2,2.6c0.8,0,1.5-0.3,2.1-0.8c0.6-0.5,0.9-1.2,0.9-1.9c0-0.6-0.2-1.2-0.6-1.6
			c-0.4-0.5-1.2-1-2.4-1.6c-1.7-0.8-2.9-1.7-3.8-2.8c-0.9-1-1.3-2.3-1.3-3.8c0-2,0.7-3.6,2.1-5c1.4-1.4,3.2-2,5.5-2
			c1.6,0,3.2,0.4,4.9,1.3v5.7c-1.5-1.5-2.9-2.2-4.3-2.2c-0.7,0-1.3,0.2-1.8,0.6c-0.5,0.4-0.7,0.9-0.7,1.5c0,0.6,0.2,1.1,0.6,1.5
			c0.4,0.4,1.1,0.9,2.2,1.3c1.8,0.8,3.1,1.7,4.1,2.7c0.9,1,1.4,2.4,1.4,4.2c0,2.2-0.8,4.1-2.4,5.7c-1.6,1.6-3.5,2.3-5.8,2.3
			c-1.8,0-3.7-0.5-5.7-1.6V31.7z"/>
		<path d="M122.6,24.8c0.5-0.9,1.1-1.5,1.8-2c0.7-0.4,1.5-0.7,2.3-0.7c1.4,0,2.5,0.5,3.4,1.6c0.8,1,1.3,2.4,1.3,4v11.1h-5.4v-10
			c0-1.3-0.4-1.9-1.1-1.9c-0.5,0-0.9,0.2-1.1,0.7c-0.3,0.5-0.4,1.2-0.4,2.1v9.1h-5.4v-10c0-1.3-0.4-1.9-1.1-1.9
			c-0.4,0-0.8,0.2-1.1,0.7c-0.3,0.5-0.4,1.1-0.4,1.8v9.4H110V22.6h4.6l0.6,1.8c0.5-0.7,1-1.3,1.6-1.6c0.6-0.4,1.3-0.5,2.1-0.5
			C120.5,22.2,121.8,23.1,122.6,24.8"/>
		<path d="M135.4,23.5c1.9-0.9,3.6-1.3,5.3-1.3c1.2,0,2.3,0.2,3.2,0.6c0.9,0.4,1.7,1.1,2.3,2.1c0.6,1,0.9,2.2,0.9,3.7v5.5
			c0,1.6,0.3,3.2,1,4.7h-5.4c-0.2-0.5-0.4-1-0.5-1.5c-0.5,0.6-1.1,1.1-1.7,1.4c-0.6,0.3-1.2,0.5-1.8,0.5c-1.3,0-2.4-0.5-3.4-1.5
			c-1-1-1.5-2.2-1.5-3.7c0-3.3,2.8-5.2,8.4-6c-0.1-0.6-0.4-1-0.9-1.3c-0.5-0.3-1.2-0.4-2-0.4c-1.2,0-2.5,0.5-3.9,1.5V23.5z
			 M142.2,30.8c-2.3,0.2-3.4,1.1-3.4,2.6c0,0.6,0.2,1,0.5,1.4c0.3,0.4,0.7,0.6,1.2,0.6c0.5,0,1-0.2,1.3-0.7c0.3-0.5,0.4-1.1,0.4-1.8
			V30.8z"/>
		<rect x="150.5" y="15.1" width="5.4" height="23.8"/>
		<rect x="159.5" y="15.1" width="5.4" height="23.8"/>
		<rect x="94.1" y="43" width="5.6" height="23.8"/>
		<path d="M115.8,52.8c0.5-0.9,1.1-1.5,1.8-2c0.7-0.4,1.5-0.7,2.3-0.7c1.4,0,2.5,0.5,3.4,1.6c0.8,1,1.3,2.4,1.3,4v11.1h-5.4v-10
			c0-1.3-0.4-1.9-1.1-1.9c-0.5,0-0.9,0.2-1.1,0.7c-0.3,0.5-0.4,1.2-0.4,2.1v9.1h-5.4v-10c0-1.3-0.4-1.9-1.1-1.9
			c-0.4,0-0.8,0.2-1.1,0.7c-0.3,0.5-0.4,1.1-0.4,1.8v9.4h-5.3V50.5h4.6l0.6,1.8c0.5-0.7,1-1.3,1.6-1.6c0.6-0.3,1.3-0.5,2.1-0.5
			C113.7,50.2,115,51,115.8,52.8"/>
		<path d="M133,52.4c0.5-0.7,1-1.3,1.6-1.7c0.6-0.4,1.3-0.5,2-0.5c1.7,0,3.1,0.8,4.1,2.4c1,1.6,1.5,3.6,1.5,5.8
			c0,1.6-0.3,3.1-0.8,4.4c-0.5,1.3-1.2,2.4-2.1,3.2c-0.9,0.8-1.9,1.2-3.1,1.2c-0.5,0-1.1-0.1-1.6-0.3c-0.5-0.2-1-0.6-1.5-1v8.6h-5.4
			V50.5h4.6L133,52.4z M133.2,61.6c0.2,0.3,0.4,0.5,0.7,0.7c0.3,0.2,0.5,0.2,0.8,0.2c0.6,0,1.1-0.3,1.5-1c0.4-0.7,0.5-1.7,0.5-2.9
			c0-1.2-0.2-2.2-0.5-2.9c-0.3-0.7-0.8-1-1.4-1c-0.6,0-1,0.2-1.3,0.7c-0.3,0.5-0.4,1.2-0.4,2.2V61.6z"/>
		<path d="M150.3,52.7c0.3-0.8,0.7-1.5,1.2-1.9c0.5-0.4,1-0.6,1.7-0.6c0.4,0,0.8,0.1,1.3,0.4v5.1c-0.6-0.3-1.1-0.4-1.5-0.4
			c-0.7,0-1.3,0.3-1.7,0.8c-0.5,0.6-0.7,1.3-0.7,2.2v8.6H145V50.5h4.7L150.3,52.7z"/>
		<path d="M163.4,50.2c2.2,0,4.1,0.7,5.5,2.2c1.4,1.5,2.2,3.5,2.2,6.2c0,2.5-0.7,4.6-2.1,6.2c-1.4,1.6-3.3,2.4-5.6,2.4
			c-2.4,0-4.2-0.8-5.5-2.4c-1.3-1.6-2-3.6-2-6c0-2.5,0.7-4.6,2.1-6.2C159.3,51,161.1,50.2,163.4,50.2 M163.5,54.3
			c-0.7,0-1.2,0.4-1.5,1.1c-0.3,0.7-0.5,1.8-0.5,3.2c0,1.4,0.2,2.5,0.5,3.2c0.3,0.7,0.8,1.1,1.5,1.1c0.7,0,1.2-0.4,1.5-1.1
			c0.3-0.7,0.5-1.8,0.5-3.2c0-1.5-0.2-2.5-0.5-3.3C164.6,54.7,164.1,54.3,163.5,54.3"/>
		<polygon points="171.5,50.5 177.3,50.5 178.9,61.1 180.6,50.5 186.1,50.5 181.4,66.8 176.1,66.8 		"/>
		<path d="M200.3,65.4c-2.1,1.2-4,1.8-5.8,1.8c-2.3,0-4.3-0.8-5.7-2.4c-1.5-1.6-2.2-3.6-2.2-6.1c0-2.4,0.7-4.4,2.1-6.1
			c1.4-1.7,3.2-2.5,5.5-2.5c2,0,3.7,0.7,4.9,2.1c1.2,1.4,1.9,3.3,1.9,5.7v1.3h-8.8c0.3,1.1,0.7,1.9,1.3,2.5c0.6,0.5,1.4,0.8,2.3,0.8
			c0.7,0,1.4-0.2,2-0.5c0.6-0.3,1.4-0.9,2.4-1.8V65.4z M196.2,56.5v-0.5c0-0.7-0.2-1.4-0.6-1.9c-0.4-0.5-0.9-0.8-1.5-0.8
			c-0.7,0-1.2,0.3-1.6,0.8c-0.4,0.5-0.6,1.3-0.6,2.4H196.2z"/>
		<path d="M216.4,52.8c0.5-0.9,1.1-1.5,1.8-2c0.7-0.4,1.5-0.7,2.3-0.7c1.4,0,2.5,0.5,3.4,1.6c0.8,1,1.3,2.4,1.3,4v11.1h-5.4v-10
			c0-1.3-0.4-1.9-1.1-1.9c-0.5,0-0.9,0.2-1.1,0.7c-0.2,0.5-0.4,1.2-0.4,2.1v9.1h-5.4v-10c0-1.3-0.4-1.9-1.1-1.9
			c-0.4,0-0.8,0.2-1.1,0.7c-0.3,0.5-0.4,1.1-0.4,1.8v9.4h-5.3V50.5h4.6l0.6,1.8c0.5-0.7,1-1.3,1.6-1.6c0.6-0.3,1.3-0.5,2-0.5
			C214.4,50.2,215.6,51,216.4,52.8"/>
		<path d="M241.5,65.4c-2.1,1.2-4,1.8-5.8,1.8c-2.3,0-4.2-0.8-5.7-2.4c-1.5-1.6-2.2-3.6-2.2-6.1c0-2.4,0.7-4.4,2.1-6.1
			c1.4-1.7,3.2-2.5,5.5-2.5c2,0,3.7,0.7,4.9,2.1c1.2,1.4,1.8,3.3,1.8,5.7v1.3h-8.7c0.3,1.1,0.7,1.9,1.3,2.5c0.6,0.5,1.4,0.8,2.3,0.8
			c0.7,0,1.4-0.2,2-0.5c0.6-0.3,1.4-0.9,2.5-1.8V65.4z M237.4,56.5v-0.5c0-0.7-0.2-1.4-0.6-1.9c-0.4-0.5-0.9-0.8-1.5-0.8
			c-0.7,0-1.2,0.3-1.6,0.8c-0.4,0.5-0.6,1.3-0.6,2.4H237.4z"/>
		<path d="M250.1,52.2c0.5-0.7,1-1.2,1.6-1.6c0.6-0.3,1.3-0.5,2.1-0.5c1.3,0,2.4,0.5,3.2,1.4c0.9,0.9,1.3,2.1,1.3,3.5v11.7h-5.4
			V56.2c0-0.9-0.3-1.4-1-1.4c-0.5,0-0.9,0.2-1.1,0.7c-0.3,0.5-0.4,1.2-0.4,2.1v9.1H245V50.5h4.7L250.1,52.2z"/>
		<path d="M263.1,45.6h4.5v4.9h2.7v4h-2.5v6.6c0,1,0.4,1.5,1.2,1.5c0.4,0,0.8-0.2,1.2-0.5v4.4c-1,0.3-2,0.5-3,0.5
			c-1.7,0-2.9-0.4-3.7-1.2c-0.8-0.8-1.2-2-1.2-3.7v-7.7h-2v-4h2.3L263.1,45.6z"/>
		<path d="M272.7,60.8c1.7,1.4,3.2,2.1,4.5,2.1c0.5,0,0.9-0.1,1.3-0.4c0.4-0.3,0.5-0.6,0.5-1c0-0.3-0.1-0.6-0.4-0.8
			c-0.3-0.2-0.8-0.5-1.6-0.8c-1.8-0.7-3-1.5-3.5-2.3c-0.5-0.8-0.8-1.6-0.8-2.5c0-1.5,0.6-2.7,1.9-3.7c1.2-0.9,2.8-1.4,4.5-1.4
			c1.6,0,3.1,0.4,4.6,1.1v4.8c-1.3-1.1-2.5-1.6-3.6-1.6c-0.5,0-0.9,0.1-1.2,0.3c-0.3,0.2-0.4,0.4-0.4,0.8c0,0.5,0.6,0.9,1.7,1.3
			c3.1,1,4.6,2.6,4.6,4.9c0,1.6-0.6,2.9-1.9,4c-1.3,1.1-2.9,1.6-4.9,1.6c-1.7,0-3.4-0.5-5.3-1.4V60.8z"/>
	</g>
</g>
</svg>
